<?xml version="1.0" encoding="UTF-8"?>
<svg xmlns="http://www.w3.org/2000/svg" viewBox="0 0 187.49 139.59">
  <g>
    <path d="m133.38,36.84L149.08,0h-11.24l-15.43,35.91c-1.26-.05-2.54-.09-3.84-.11h-63.46L39.86,0h-11.63l15.26,35.8H0v103.78h118.6c19.7-.19,36.47-4.6,48.47-12.75,13.36-9.07,20.43-22.67,20.43-39.32,0-27.93-19.94-46.24-54.12-50.68Zm-44.72,77.67l-29.12-68.33h58.06c.14,0,.27,0,.4,0l-29.35,68.32Zm-5.12,15.24H10.99l-.19-83.57h37.11l35.63,83.57Zm45.61-83c29.62,2.98,46.95,17.74,46.95,40.77,0,26.45-21.87,42.24-58.5,42.24h-23.84l35.39-83Z"/>
  </g>
</svg>