<?xml version="1.0" encoding="UTF-8"?>
<svg xmlns="http://www.w3.org/2000/svg" viewBox="0 0 305.12 305.73">
  <g>
    <g>
      <g>
        <path d="m143.67,106.77v-32.58h9.99c11.76,0,16.47,6.16,16.47,16.01,0,10.97-5.79,16.57-17.08,16.57h-9.38Zm9.75-2.43c7.51,0,10.73-4.81,10.73-13.86s-2.94-13.86-10.69-13.86h-4.15v27.72h4.11Z"/>
        <path d="m145.44,171.22v-32.58h8.87c9.43,0,12.93,3.36,12.93,9.01,0,4.67-2.43,7.33-6.86,8.49l8.77,15.07h-6.39l-7.75-14.33h-3.92v14.33h-5.65Zm8.45-16.71c5.18,0,7.42-2.05,7.42-6.72s-2.1-6.72-7.33-6.72h-2.89v13.44h2.8Z"/>
        <path d="m153.33,235.67v-13.49c-4.15-6.02-7.61-12.74-10.45-19.09h6.02c2.38,5.83,5.41,11.39,8.73,16.75,2.75-5.69,4.67-11.43,6.07-16.75h5.74c-2.71,6.02-6.16,12.56-10.45,19.09v13.49h-5.65Z"/>
      </g>
      <path d="m10.56,105.03l-3.99-1.41C28.39,41.64,87.22,0,152.97,0s124.58,41.64,146.4,103.63l-3.99,1.41C274.15,44.74,216.92,4.23,152.97,4.23S31.79,44.74,10.56,105.03Z"/>
      <path d="m42.79,105.17l-3.89-1.68C58.57,57.93,103.35,28.49,152.97,28.49s93.97,29.18,113.78,74.34l-3.88,1.7c-19.14-43.62-62.28-71.81-109.9-71.81S61.79,61.16,42.79,105.17Z"/>
      <g>
        <path d="m5.43,118.95c11.03-1.62,22.71-2.6,34.13-2.84l-1.35,5.72c-10.21.18-21.34.82-31.39,2,7.81,4.48,17.29,9.01,27.79,13.31l-1.31,5.54c-9.82-5.14-20.04-11.39-29.24-17.92l1.37-5.81Z"/>
        <path d="m0,156.92c11.11,2.07,22.23,4.76,33.48,8.32l.55,5.95c-10.47,5.46-20.91,10.12-31.42,14.13l-.54-5.86c2.94-1.11,5.94-2.23,8.92-3.44l-1.15-12.5c-3.13-.37-6.25-.65-9.31-.83l-.53-5.76Zm12.2,6.85l1.04,11.34c6-2.52,11.99-5.22,18-8.17-6.41-1.38-12.73-2.39-19.04-3.18Z"/>
        <path d="m10.85,212.32l29.77-13.25,2.3,5.16-27.72,12.34,6.73,9.83-4.01,1.78-7.06-15.86Z"/>
        <path d="m32.95,251.01l24.67-21.29,3.69,4.28-22.97,19.82,9.28,7.47-3.32,2.87-11.34-13.15Z"/>
        <path d="m65.41,281.89l17.16-27.69,15.47,9.59-2.16,3.49-9.69-8.2-6.42,10.36,9.21,5.7-1.25,2.02-9.2-5.7-7.13,11.51,12,5.18-2.19,3.53-15.79-9.78Z"/>
        <path d="m114.84,304.43l3.11-13.13c-2.65-6.82-4.47-14.15-5.77-20.98l5.86,1.39c.97,6.23,2.64,12.33,4.63,18.32,3.99-4.91,7.18-10.05,9.77-14.91l5.59,1.32c-4.02,5.24-8.89,10.8-14.57,16.17l-3.11,13.13-5.5-1.3Z"/>
        <path d="m188,305.49l-9.71-31.1,8.47-2.64c9-2.81,13.34-.65,15.03,4.75,1.39,4.45-.13,7.72-4.02,10.15l12.87,11.78-6.1,1.91-11.66-11.37-3.74,1.17,4.27,13.68-5.39,1.68Zm3.08-18.47c4.95-1.54,6.47-4.17,5.08-8.63-1.35-4.32-4.01-5.79-9-4.23l-2.76.86,4.01,12.83,2.67-.83Z"/>
        <path d="m233.99,286.53c-4.17-10.5-7.83-21.34-10.82-32.75l4.74-3.63c10.2,5.94,19.71,12.29,28.71,19.04l-4.67,3.58c-2.51-1.9-5.05-3.83-7.67-5.71l-9.96,7.64c1.36,2.84,2.79,5.63,4.26,8.32l-4.59,3.52Zm-.72-13.97l9.04-6.93c-5.33-3.73-10.81-7.35-16.51-10.87,2.25,6.16,4.77,12.05,7.47,17.8Z"/>
        <path d="m275.9,247.42l-27.74-17.08,3.79-6.16,31.2,1.23c-7.69-4.52-16.09-8.59-24.25-12.51l2.47-4.02,27.74,17.08-2.89,4.69-34.65-1.22c9.02,4.84,18.36,9.44,27.04,13.58l-2.72,4.41Z"/>
        <path d="m302.06,174.17c1.33,2.64,1.92,5.9,1.2,9.56-1.71,8.6-8.69,12.64-19.04,10.59-10.44-2.07-15.7-8.63-13.92-17.6.61-3.07,1.87-5.58,3.78-7.77l4.7,1.74c-3.28,1.68-5.44,3.68-5.97,6.38-1.14,5.77,3.89,9.67,12.36,11.35,9.11,1.81,14.56-.25,15.66-5.79.58-2.93-.31-5.87-1.73-8.34l2.97-.12Z"/>
        <path d="m302.04,126.17l-15.58,2.46,2.2,13.97,15.58-2.46.88,5.58-32.18,5.07-.88-5.58,14.15-2.23-2.2-13.97-14.15,2.23-.88-5.58,32.18-5.07.88,5.58Z"/>
      </g>
    </g>
  </g>
</svg>