<?xml version="1.0" encoding="UTF-8"?>
<svg xmlns="http://www.w3.org/2000/svg" viewBox="0 0 126 272.48">
  <g>
    <g>
      <line x1="18.17" y1="92.35" x2="13.84" y2="94.91"/>
      <path fill="none" d="m102.76,145.02c.07-.04.19-.06.23-.13.44-.76,1.12-1.18,1.85-1.56.97-.5,1.94-1.01,2.63-1.96-.84-.28-1.51.13-2.21.34-.42.13-.83.31-1.26.37-.56.09-.88-.19-1.07-.82-.24-.81-.47-1.62-.73-2.51-1.04,1.49-.99,3.94-.14,5.42,0,0,.62.8.69.85Z"/>
      <path fill="none" d="m105.47,140.19c2.24.08,3.28-.42,4.45-2.18.58-.88,1.08-1.8.84-3.05-1.38.48-3.73,2.82-5.29,5.22Z"/>
      <path fill="none" d="m108.01,135.31c.27-.29.5-.66.66-1.05.19-.47.02-.96-.34-1.34-.36-.38-.8-.35-1.16-.13-.4.24-.79.52-1.11.86-1.22,1.34-1.9,3.07-2.56,4.79-.14.36.07.91.13,1.49,1.55-1.64,2.98-3.12,4.38-4.62Z"/>
      <path fill="none" d="m108.01,135.31c.27-.29.5-.66.66-1.05.19-.47.02-.96-.34-1.34-.36-.38-.8-.35-1.16-.13-.4.24-.79.52-1.11.86-1.22,1.34-1.9,3.07-2.56,4.79-.14.36.07.91.13,1.49,1.55-1.64,2.98-3.12,4.38-4.62Z"/>
      <path fill="none" d="m102.76,145.02c.07-.04.19-.06.23-.13.44-.76,1.12-1.18,1.85-1.56.97-.5,1.94-1.01,2.63-1.96-.84-.28-1.51.13-2.21.34-.42.13-.83.31-1.26.37-.56.09-.88-.19-1.07-.82-.24-.81-.47-1.62-.73-2.51-1.04,1.49-.99,3.94-.14,5.42,0,0,.62.8.69.85Z"/>
      <path fill="none" d="m105.47,140.19c2.24.08,3.28-.42,4.45-2.18.58-.88,1.08-1.8.84-3.05-1.38.48-3.73,2.82-5.29,5.22Z"/>
      <path fill="none" d="m108.01,135.31c.27-.29.5-.66.66-1.05.19-.47.02-.96-.34-1.34-.36-.38-.8-.35-1.16-.13-.4.24-.79.52-1.11.86-1.22,1.34-1.9,3.07-2.56,4.79-.14.36.07.91.13,1.49,1.55-1.64,2.98-3.12,4.38-4.62Z"/>
      <path fill="none" d="m105.47,140.19c2.24.08,3.28-.42,4.45-2.18.58-.88,1.08-1.8.84-3.05-1.38.48-3.73,2.82-5.29,5.22Z"/>
      <path fill="none" d="m102.76,145.02c.07-.04.19-.06.23-.13.44-.76,1.12-1.18,1.85-1.56.97-.5,1.94-1.01,2.63-1.96-.84-.28-1.51.13-2.21.34-.42.13-.83.31-1.26.37-.56.09-.88-.19-1.07-.82-.24-.81-.47-1.62-.73-2.51-1.04,1.49-.99,3.94-.14,5.42,0,0,.62.8.69.85Z"/>
      <path fill="none" d="m105.73,139.72c2.24.08,3.28-.42,4.45-2.18.58-.88,1.08-1.8.84-3.05-1.38.48-3.73,2.82-5.29,5.22Z"/>
      <path fill="none" d="m103.02,144.54c.07-.04.19-.06.23-.13.44-.76,1.12-1.18,1.85-1.56.97-.5,1.94-1.01,2.63-1.96-.84-.28-1.51.13-2.21.34-.42.13-.83.31-1.26.37-.56.09-.88-.19-1.07-.82-.24-.81-.47-1.62-.73-2.51-1.04,1.49-.99,3.94-.14,5.42,0,0,.62.8.69.85Z"/>
      <path fill="none" d="m108.27,134.84c.27-.29.5-.66.66-1.05.19-.47.02-.96-.34-1.34-.36-.38-.8-.35-1.16-.13-.4.24-.79.52-1.11.86-1.22,1.34-1.9,3.07-2.56,4.79-.14.36.07.91.13,1.49,1.55-1.64,2.98-3.12,4.38-4.62Z"/>
      <path d="m69.7,15.29c.28-1.66.55-3.31.83-4.97"/>
      <path d="m37.9,57.58c1.42,0,2.78.09,4.05.27-1.16-.16-2.36-.28-3.67-.28-.13,0-.26,0-.39.01Z"/>
      <path d="m76.09,62.66l-.3.37,1.57-.07c-.4-.12-.82-.22-1.27-.3Z"/>
      <path d="m67.04,83.82c-.5-1.6-.87-2.53-.88-2.56l-.96-2.39-1.17,2.3c-.04.09-.28.58-.62,1.36,0,.04.01.08.02.13.14-.16.28-.31.44-.5,0,.07.02.14.03.21.26-.58.44-.95.48-1.02l.78-1.54.65,1.61s.28.72.67,1.91c.13.14.27.29.38.38.04.03.11.08.19.12Z"/>
      <polygon points="75.4 216.14 75.13 216.41 75.4 216.14 75.4 216.14"/>
      <path d="m55.91,62.42s-.09-.05-.13-.07c0,.03-.02.06-.02.09.05,0,.1-.02.15-.02Z"/>
      <path d="m45.91,57.91c-1.49-.43-3.07-.66-4.66-.79.99.41,1.95.75,2.88,1.09.72.15,1.48.27,2.15.48.85.28,1.71.63,2.58,1.02,1.34.37,2.56.68,3.47.88-2.11-1.05-4.28-2.06-6.41-2.68Z"/>
      <path fill="none" d="m59.99,106.05h0c-.42,9.68,1.86,18.27,3.07,22.05,1.53-3.66,4.55-12.03,4.97-21.7.42-9.68-1.86-18.27-3.07-22.05-1.53,3.66-4.55,12.03-4.97,21.7Z"/>
      <path fill="none" d="m15.36,154.11c4.58,3,8.61,6.02,12.33,9.23,5.84,5.04,11.85,11.14,18.92,19.18,4.71,5.36,9.3,10.86,13.65,16.35-2.62-5.27-5.18-10-7.81-14.45-6.62-11.17-14.08-19.35-22.79-25-7.52-4.88-16.04-7.99-24.64-9.01,3.98,2.4,7.93,5.12,11.75,8.07,7.86,6.08,15.67,13.42,24.59,23.1,1.55,1.69,3.12,3.47,4.63,5.19l.09.1c4.19,4.79,8.52,9.74,13.44,13.57l-.81-1c-5.76-7.15-11.72-14.54-18.06-21.4-8.42-9.11-17.03-16.98-25.59-23.4-.15-.11-.18-.3-.07-.45.1-.14.26-.17.4-.09Z"/>
      <path fill="none" d="m78.56,202.15c-3.27,3.55-6.36,7.22-9.99,11.65-.35.43-.71.86-1.08,1.29-2.18,2.59-4.64,5.51-5.48,9.05,3.45-3.89,7.12-7.66,10.68-11.32l.06-.06c1.79-1.84,3.63-3.73,5.42-5.6.89-.94,1.8-1.92,2.67-2.88,4.2-4.57,8.5-9.26,13.92-11.81.17-.08.36-.02.45.16.09.16.07.39-.12.51-5.09,3.13-9.32,7.84-13.42,12.39l-.09.1c-.93,1.04-1.89,2.1-2.84,3.13-1.71,1.84-3.43,3.74-5.1,5.58l-.19.21c-.66.73-1.32,1.46-1.98,2.18.69-.47,1.41-.94,2.18-1.44l1.17-.76c3.87-2.51,7.86-5.1,11.35-8.35,3.49-3.25,6.68-6.98,9.76-10.59l.24-.28c4.45-5.21,9.47-11.09,15.5-14.93-3.26.72-6.61,1.9-9.97,3.51-7.74,3.72-15.09,9.53-23.14,18.26Z"/>
      <path fill="none" d="m59.99,106.05h0c-.42,9.68,1.86,18.27,3.07,22.05,1.53-3.66,4.55-12.03,4.97-21.7.42-9.68-1.86-18.27-3.07-22.05-1.53,3.66-4.55,12.03-4.97,21.7Z"/>
      <path fill="none" d="m15.36,154.11c4.58,3,8.61,6.02,12.33,9.23,5.84,5.04,11.85,11.14,18.92,19.18,4.71,5.36,9.3,10.86,13.65,16.35-2.62-5.27-5.18-10-7.81-14.45-6.62-11.17-14.08-19.35-22.79-25-7.52-4.88-16.04-7.99-24.64-9.01,3.98,2.4,7.93,5.12,11.75,8.07,7.86,6.08,15.67,13.42,24.59,23.1,1.55,1.69,3.12,3.47,4.63,5.19l.09.1c4.19,4.79,8.52,9.74,13.44,13.57l-.81-1c-5.76-7.15-11.72-14.54-18.06-21.4-8.42-9.11-17.03-16.98-25.59-23.4-.15-.11-.18-.3-.07-.45.1-.14.26-.17.4-.09Z"/>
      <path fill="none" d="m78.56,202.15c-3.27,3.55-6.36,7.22-9.99,11.65-.35.43-.71.86-1.08,1.29-2.18,2.59-4.64,5.51-5.48,9.05,3.45-3.89,7.12-7.66,10.68-11.32l.06-.06c1.79-1.84,3.63-3.73,5.42-5.6.89-.94,1.8-1.92,2.67-2.88,4.2-4.57,8.5-9.26,13.92-11.81.17-.08.36-.02.45.16.09.16.07.39-.12.51-5.09,3.13-9.32,7.84-13.42,12.39l-.09.1c-.93,1.04-1.89,2.1-2.84,3.13-1.71,1.84-3.43,3.74-5.1,5.58l-.19.21c-.66.73-1.32,1.46-1.98,2.18.69-.47,1.41-.94,2.18-1.44l1.17-.76c3.87-2.51,7.86-5.1,11.35-8.35,3.49-3.25,6.68-6.98,9.76-10.59l.24-.28c4.45-5.21,9.47-11.09,15.5-14.93-3.26.72-6.61,1.9-9.97,3.51-7.74,3.72-15.09,9.53-23.14,18.26Z"/>
      <path fill="none" d="m78.56,202.15c-3.27,3.55-6.36,7.22-9.99,11.65-.35.43-.71.86-1.08,1.29-2.18,2.59-4.64,5.51-5.48,9.05,3.45-3.89,7.12-7.66,10.68-11.32l.06-.06c1.79-1.84,3.63-3.73,5.42-5.6.89-.94,1.8-1.92,2.67-2.88,4.2-4.57,8.5-9.26,13.92-11.81.17-.08.36-.02.45.16.09.16.07.39-.12.51-5.09,3.13-9.32,7.84-13.42,12.39l-.09.1c-.93,1.04-1.89,2.1-2.84,3.13-1.71,1.84-3.43,3.74-5.1,5.58l-.19.21c-.66.73-1.32,1.46-1.98,2.18.69-.47,1.41-.94,2.18-1.44l1.17-.76c3.87-2.51,7.86-5.1,11.35-8.35,3.49-3.25,6.68-6.98,9.76-10.59l.24-.28c4.45-5.21,9.47-11.09,15.5-14.93-3.26.72-6.61,1.9-9.97,3.51-7.74,3.72-15.09,9.53-23.14,18.26Z"/>
      <path fill="none" d="m59.99,106.05h0c-.42,9.68,1.86,18.27,3.07,22.05,1.53-3.66,4.55-12.03,4.97-21.7.42-9.68-1.86-18.27-3.07-22.05-1.53,3.66-4.55,12.03-4.97,21.7Z"/>
      <path fill="none" d="m60.26,105.58h0c-.42,9.68,1.86,18.27,3.07,22.05,1.53-3.66,4.55-12.03,4.97-21.7.42-9.68-1.86-18.27-3.07-22.05-1.53,3.66-4.55,12.03-4.97,21.7Z"/>
      <path fill="none" d="m78.83,201.68c-3.27,3.55-6.36,7.22-9.99,11.65-.35.43-.71.86-1.08,1.29-2.18,2.59-4.64,5.51-5.48,9.05,3.45-3.89,7.12-7.66,10.68-11.32l.06-.06c1.79-1.84,3.63-3.73,5.42-5.6.89-.94,1.8-1.92,2.67-2.88,4.2-4.57,8.5-9.26,13.92-11.81.17-.08.36-.02.45.16.09.16.07.39-.12.51-5.09,3.13-9.32,7.84-13.42,12.39l-.09.1c-.93,1.04-1.89,2.1-2.84,3.13-1.71,1.84-3.43,3.74-5.1,5.58l-.19.21c-.66.73-1.32,1.46-1.98,2.18.69-.47,1.41-.94,2.18-1.44l1.17-.76c3.87-2.51,7.86-5.1,11.35-8.35,3.49-3.25,6.68-6.98,9.76-10.59l.24-.28c4.45-5.21,9.47-11.09,15.5-14.93-3.26.72-6.61,1.9-9.97,3.51-7.74,3.72-15.09,9.53-23.14,18.26Z"/>
      <path fill="none" d="m15.62,153.64c4.58,3,8.61,6.02,12.33,9.23,5.84,5.04,11.85,11.14,18.92,19.18,4.71,5.36,9.3,10.86,13.65,16.35-2.62-5.27-5.18-10-7.81-14.45-6.62-11.17-14.08-19.35-22.79-25-7.52-4.88-16.04-7.99-24.64-9.01,3.98,2.4,7.93,5.12,11.75,8.07,7.86,6.08,15.67,13.42,24.59,23.1,1.55,1.69,3.12,3.47,4.63,5.19l.09.1c4.19,4.79,8.52,9.74,13.44,13.57l-.81-1c-5.76-7.15-11.72-14.54-18.06-21.4-8.42-9.11-17.03-16.98-25.59-23.4-.15-.11-.18-.3-.07-.45.1-.14.26-.17.4-.09Z"/>
      <g>
        <g>
          <path d="m26.31,105.47c-4.69-3.02-10.08-5.14-15.57-6.14l.13-.73c5.59,1.01,11.06,3.17,15.84,6.24l-.4.63Z"/>
          <g>
            <path d="m65.27,68.67c1.63.63.7-.27.63-.64.39-.35.84-.44,1.72-.17-.5-.31-.63-.39-.86-.53.89-.23,1.7-.25,2.41.1.67.33,1.07.92.97,1.77-.07.57-.13,1.16.1,1.74.11.28-.06.49-.36.48-.57-.03-1.02.23-1.47.49-1.07.62-2.57-.1-2.77-1.33-.06-.34.44-.54.22-.91-.16-.28-.32-.56-.57-1"/>
            <path d="m64.69,68.49c-.81.91-.2,2.25-1.17,3.03-.58.47-1.26.62-1.96.17-.05-.03-.1-.08-.15-.1-1.82-.45-1.88-1.73-1.51-3.2.2-.79.79-1.25,1.54-1.41.96-.21,1.84.04,2.21,1.02.2.52.55.39,1.03.48"/>
            <path d="m66.42,66c-.24.66-1.12.38-1.5.94-.03.05-.26.05-.32,0-.6-.56-1.27-1.07-1.75-1.71-.62-.82-.14-1.58.52-2.09.64-.5,1.5-.69,2.14-1.46.34,1.23,1.82,1.21,2.16,2.4.15.53-.25,2.05-.77,2.26-.31.13-.21-.29-.47-.33"/>
            <path d="m69.34,54.04c.89,1.56-.18,7.32-1.44,7.87.66-2.58,1.65-5,1.44-7.87"/>
            <path d="m63.6,72.76c.24,1.59-3.69,6.45-6.04,7.14,2.44-2.34,4.19-4.74,6.04-7.14"/>
            <path d="m77.86,77.9c-3-1.34-5.71-3.06-7.65-5.79,2.55,1.93,5.1,3.86,7.65,5.79"/>
            <path d="m72.73,57.8c-.02,2.3-1.3,3.4-2.13,4.65-.53.81-.9,1.89-2.07,2.13.04-1.08.95-1.65,1.44-2.47.78-1.3,1.63-2.56,2.76-4.32"/>
            <path d="m61.46,63.18c-1.61-.22-4.07-6.68-3.37-8.11,1.05,2.65,1.56,5.54,3.37,8.11"/>
            <path d="m58.59,69.48c-2.5,1.38-5.11,2.5-8.51,3.49,2.97-2.05,5.77-2.69,8.51-3.49"/>
            <path d="m78.57,68.75c-2.55-1.66-5.49-2.04-8.37-2.59,3.07-.08,6,.29,8.37,2.59"/>
            <path d="m73.4,80.15c-1.29-.37-5.61-5.98-5.45-6.96,1.8,2.31,3.57,4.56,5.45,6.96"/>
            <path d="m52.09,68.22c1.93-1.03,5.98-1.18,7.12-.34-2.53.12-4.83.23-7.12.34"/>
            <path d="m57.24,76.12l3.35-3.62c-.67,1.6-1.79,2.81-3.35,3.62"/>
            <path d="m61.88,57.03c.28,1.62.57,3.24.85,4.86-.86-1.5-1.15-3.13-.85-4.86"/>
            <path d="m83.43,102.04c-2.42-2.6-4.67-5.41-6.67-8.35-1.59-2.34-3.06-4.9-3.02-7.75l1.12.02c-.04,2.54,1.34,4.92,2.82,7.1,1.97,2.89,4.18,5.66,6.56,8.22l-.82.76Z"/>
            <path d="m93.29,99.86c-2.89-1.96-5.88-3.98-8.5-6.42-2.97-2.76-5.05-5.71-6.19-8.78l1.05-.39c1.08,2.9,3.07,5.71,5.91,8.35,2.56,2.38,5.51,4.38,8.37,6.31l-.63.92Z"/>
            <path d="m104.94,96.87c-.72-.31-1.46-.54-2.24-.79-.54-.17-1.09-.34-1.64-.54-2.51-.92-4.77-2.42-6.85-3.89-3.81-2.71-7.48-5.71-10.9-8.9l.76-.82c3.38,3.16,7.01,6.12,10.78,8.81,2.01,1.43,4.21,2.88,6.59,3.76.52.19,1.06.36,1.58.53.77.24,1.58.49,2.35.83l-.44,1.03Z"/>
            <path d="m99.45,86.25c-3.71-1.54-7.25-3.51-10.5-5.86l.65-.91c3.19,2.3,6.64,4.23,10.28,5.73l-.43,1.03Z"/>
            <path d="m105.94,83.38c-3.05-1.84-6.25-3.47-9.52-4.87-2.45-1.05-5.09-2-7.73-1.85l-.06-1.11c.06,0,.12,0,.18,0,2.81-.11,5.53.87,8.05,1.95,3.32,1.42,6.57,3.08,9.66,4.94l-.58.96Z"/>
            <path d="m104.67,75.05c-5.49-2.47-11.88-2.82-17.53-3.13l.06-1.11c5.74.32,12.25.68,17.92,3.23l-.46,1.02Z"/>
            <path d="m109.36,67.25c-1.33-.54-2.86-.94-4.66-1.21-5.99-.92-12.12-.13-18.06.63l-.14-1.11c6.01-.77,12.22-1.57,18.37-.62,1.89.29,3.49.71,4.91,1.28l-.42,1.03Z"/>
            <path d="m119.14,90.41c-.29-.99-.7-1.9-1.09-2.78l-.23-.52c-2.14-4.83-3.61-10.28-4.25-15.75l-.74.09c.65,5.55,2.14,11.07,4.31,15.97l.24.52c.39.86.78,1.74,1.06,2.68.05.16.05.22.05.23.02-.09-.18.13-.2.21-.04.23.26.36.47.35.01,0,.03,0,.04,0,.2-.03.36-.18.41-.39.05-.2,0-.41-.06-.61Z"/>
            <path d="m104.26,105.3l-.37-.65c4.93-2.82,10.51-4.68,16.15-5.4l.09.74c-5.54.7-11.02,2.54-15.87,5.31Z"/>
            <rect x="114.05" y="91.25" width=".74" height="5.03" transform="translate(-22.56 149.63) rotate(-61.52)"/>
            <path d="m77.07,51.93l-.44-1.03c2.34-1,3.94-3.23,5.33-5.48,1.84-2.98,3.46-6.12,4.82-9.35l1.03.43c-1.39,3.28-3.04,6.47-4.9,9.5-1.48,2.41-3.22,4.79-5.84,5.92Z"/>
            <path d="m74.63,48.27l-.78-.8c2.2-2.17,3.96-5.13,5.21-8.8,1.13-3.3,1.74-6.82,2.34-10.22l1.1.19c-.6,3.44-1.23,7-2.39,10.38-1.31,3.84-3.15,6.94-5.48,9.24Z"/>
            <path d="m70.96,44.76l-1.06-.36c1.5-4.38,2.73-8.9,3.63-13.44.48-2.42.91-5.01.74-7.55-.04-.55-.1-1.11-.17-1.66-.09-.81-.19-1.64-.2-2.48l1.12-.02c.01.78.1,1.55.2,2.37.07.56.13,1.14.17,1.71.18,2.67-.26,5.35-.76,7.84-.92,4.59-2.15,9.16-3.67,13.58Z"/>
            <path d="m66.52,40.57l-1.09-.23c.8-3.85,1.14-7.79,1.03-11.72l1.12-.03c.11,4.01-.24,8.04-1.06,11.98Z"/>
            <path d="m62.22,42.84c-1.32-2.55-1.55-5.5-1.59-8.3-.06-3.61.13-7.25.57-10.84l1.11.14c-.43,3.53-.62,7.12-.56,10.68.05,2.67.25,5.46,1.47,7.81l-.99.51Z"/>
            <path d="m58.47,46.08c-2.06-5.37-4.39-11.46-4.37-17.68h1.12c-.01,6.01,2.18,11.74,4.3,17.28l-1.04.4Z"/>
            <path d="m54.54,49.55c-3.16-5.17-6.42-10.51-8.07-16.51-.51-1.84-.78-3.48-.83-5l1.12-.04c.05,1.44.31,2.99.79,4.75,1.61,5.85,4.83,11.12,7.95,16.23l-.95.58Z"/>
            <path d="m49.61,21.83l-.58-.47c2.77-3.47,6.03-5.41,8.64-6.97.97-.58,1.88-1.12,2.66-1.68,1.13-.8,2.04-1.61,2.78-2.26.55-.48,1.02-.9,1.45-1.2,0,0,0,0,0,0,.02-.02.06-.05.11-.09.4-.31.58-.43.75-.44l.3-.03.11.29c.1.31-.1.43-.6.74-.1.06-.18.11-.22.14,0,0-.01,0-.01.01-.4.28-.85.68-1.39,1.15-.75.66-1.68,1.48-2.84,2.31-.81.57-1.73,1.13-2.71,1.71-2.69,1.61-5.75,3.44-8.44,6.8Z"/>
            <path d="m85.14,19.79c-4.59-3.35-8.57-7.68-11.53-12.53l.64-.39c2.91,4.76,6.83,9.02,11.33,12.31l-.44.6Z"/>
            <rect x="67.6" y="12.43" width="5.03" height=".74" transform="translate(45.92 79.85) rotate(-80.5)"/>
            <path d="m43.83,102.44l-.78-.8c2.51-2.43,4.86-5.08,6.98-7.87,1.6-2.11,3.09-4.41,3.19-6.95l1.12.04c-.11,2.85-1.7,5.33-3.42,7.58-2.15,2.83-4.54,5.52-7.09,8Z"/>
            <path d="m35.09,99.76l-.58-.96c2.95-1.78,6.01-3.62,8.69-5.87,2.97-2.49,5.1-5.19,6.33-8.03l1.02.44c-1.3,3-3.53,5.84-6.64,8.44-2.74,2.3-5.84,4.16-8.83,5.97Z"/>
            <path d="m23.62,96.17l-.39-1.05c.79-.29,1.6-.5,2.39-.7.53-.14,1.08-.28,1.61-.44,2.43-.75,4.69-2.08,6.78-3.41,3.91-2.48,7.69-5.25,11.23-8.23l.72.85c-3.58,3.01-7.39,5.81-11.35,8.32-2.15,1.37-4.49,2.74-7.05,3.53-.55.17-1.12.32-1.66.46-.79.2-1.54.4-2.28.67Z"/>
            <path d="m29.66,85.86l-.37-1.05c3.7-1.31,7.26-3.06,10.56-5.19l.6.94c-3.38,2.18-7.01,3.96-10.79,5.3Z"/>
            <path d="m23.32,82.65l-.53-.98c3.18-1.7,6.52-3.19,9.9-4.43,2.63-.97,5.46-1.81,8.32-1.51l-.12,1.11c-2.63-.29-5.31.52-7.81,1.44-3.34,1.23-6.63,2.7-9.76,4.37Z"/>
            <path d="m25.02,74.39l-.4-1.04c5.8-2.25,12.32-2.27,18.07-2.29v1.12c-5.65.02-12.05.04-17.66,2.21Z"/>
            <path d="m43.97,67.79c-5.88-1.07-11.97-2.17-18-1.56-1.81.18-3.36.5-4.71.97l-.36-1.06c1.44-.5,3.07-.83,4.97-1.03,6.19-.62,12.35.49,18.31,1.58l-.2,1.1Z"/>
            <rect x="13.49" y="93.26" width="5.03" height=".74" transform="translate(-45.43 21.19) rotate(-30.6)"/>
          </g>
        </g>
        <g>
          <path fill="none" d="m72.7,212.83l.06-.06c1.79-1.84,3.63-3.73,5.42-5.6.89-.94,1.8-1.92,2.67-2.88,4.2-4.57,8.5-9.26,13.92-11.81.17-.08.36-.02.45.16.09.16.07.39-.12.51-5.09,3.13-9.32,7.84-13.42,12.39l-.09.1c-.93,1.04-1.89,2.1-2.84,3.13-1.71,1.84-3.43,3.74-5.1,5.58l-.19.21c-.66.73-1.32,1.46-1.98,2.18.69-.47,1.41-.94,2.18-1.44l1.17-.76c3.87-2.51,7.86-5.1,11.35-8.35,3.49-3.25,6.68-6.98,9.76-10.59l.24-.28c4.45-5.21,9.47-11.09,15.5-14.93-3.26.72-6.61,1.9-9.97,3.51-7.74,3.72-15.09,9.53-23.14,18.26-3.27,3.55-6.36,7.22-9.99,11.65-.35.43-.71.86-1.08,1.29-2.18,2.59-4.64,5.51-5.48,9.05,3.45-3.89,7.12-7.66,10.68-11.32Z"/>
          <path fill="none" d="m102.76,145.02c.07-.04.19-.06.23-.13.44-.76,1.12-1.18,1.85-1.56.97-.5,1.94-1.01,2.63-1.96-.84-.29-1.51.13-2.21.34-.42.13-.83.31-1.26.37-.56.09-.88-.19-1.07-.82-.24-.81-.47-1.62-.73-2.51-1.04,1.49-.99,3.94-.14,5.42,0,0,.62.8.69.85Z"/>
          <path fill="none" d="m11.73,102.51c2,.27,4.05,1.17,6.42,2.2,5.24,2.29,12.4,5.41,24.95,4.62,3.66-.23,12.75-2.43,18.18-17.73.37-1.03,1.76-6.08,1.83-6.56.09-.59.2-1.13.29-1.54,0-.04-.02-.09-.03-.13-.3.34-.55.6-.76.79l-.1.08s-.06.05-.31.17c-4.66,2.37-8.16.66-10.48-.47-2.23-1.09-3.96-2.05-5.22-2.75l-.11-.06c-1.28-.72-2.49-1.4-2.94-1.43l-2.56-.17,1.66-1.96c.56-.67,1.08-2.26,1.63-3.94.59-1.81,1.26-3.86,2.26-5.69,1.72-3.16,3.36-4.74,5.86-5.54-2.11-1.14-4.32-2.25-6.42-2.93-2.27-.73-4.92-1.1-7.88-1.1-5.79,0-11.01,1.38-13.73,2.56-7.86,3.43-11.14,11.08-11.83,15.07-1.65,9.46-4.72,17.06-5.66,18.48-.34.51-1,3.08-.51,4.75.53,1.83,3.5,3.02,5.44,3.29Z"/>
          <path fill="none" d="m66.31,4.81c-.99,1.39-6.98,6.99-15.2,11.94-3.47,2.09-9.43,7.9-9.79,16.47-.21,5.03,1.64,14.77,6.43,20.68,1.44,1.79,4.17,4.23,6.02,5.81-.36-2.75-.22-5.62,2.09-8.34,1.35-1.59,3.01-2.95,4.48-4.14,1.39-1.13,2.68-2.19,3.1-2.96l1.23-2.25,1.09,2.33c.19.4,1.24,1.28,2.36,2.21,1.16.96,2.7,2.24,4.57,3.97,1.99,1.85,5.11,5.96,4.18,9.62-.03.11-.07.24-.13.38.67-.37,1.36-.75,2.06-1.14l.13-.07c1.07-.6,2.18-1.21,3.36-1.84.2-.16.37-.29.52-.4.05-.04.13-.1.17-.13,1.49-1.28,3.63-3.32,5.62-5.89.07-.05.16-.1.23-.16,3.53-4.55,6.57-10.8,4.45-17.55-3.77-11.98-9.27-17.54-13.29-21.61-1.83-1.85-3.41-3.44-4.38-5.21-.86-1.56-3.03-4.08-5.02-3.89-1.74.15-3.9,1.69-4.26,2.19Z"/>
          <path fill="none" d="m15.36,154.11c4.58,3,8.61,6.02,12.33,9.23,5.84,5.04,11.85,11.14,18.92,19.18,4.71,5.36,9.3,10.86,13.65,16.35-2.62-5.27-5.18-10-7.81-14.45-6.62-11.17-14.08-19.35-22.79-25-7.52-4.88-16.04-7.99-24.64-9.01,3.98,2.4,7.93,5.12,11.75,8.07,7.86,6.08,15.67,13.42,24.59,23.1,1.55,1.69,3.12,3.47,4.63,5.2l.09.1c4.19,4.79,8.52,9.74,13.44,13.57l-.81-1c-5.76-7.15-11.72-14.54-18.06-21.4-8.42-9.11-17.03-16.98-25.59-23.4-.15-.11-.18-.3-.07-.45.1-.14.26-.17.4-.09Z"/>
          <path fill="none" d="m105.47,140.19c2.24.09,3.28-.42,4.45-2.18.58-.88,1.08-1.8.84-3.05-1.38.48-3.73,2.82-5.29,5.22Z"/>
          <path fill="none" d="m108.01,135.31c.27-.29.5-.66.66-1.05.19-.47.02-.96-.34-1.34-.36-.38-.8-.35-1.16-.13-.4.24-.79.52-1.11.86-1.22,1.34-1.9,3.07-2.56,4.79-.14.36.07.91.13,1.49,1.55-1.64,2.98-3.12,4.38-4.62Z"/>
          <path fill="none" d="m64.98,78.48c.23.06.55.19.81.6.05.03.1.08.14.14h0c1.09,1.45,2.05,2.61,2.57,3.14l.07.04c3.45,1.7,6.12.4,8.06-.55,2.22-1.08,3.85-2,5.17-2.73l.08-.04c.81-.45,1.52-.85,2.13-1.14-.42-.93-.79-2.06-1.18-3.25-.56-1.7-1.19-3.63-2.07-5.26-1.93-3.55-3.48-4.55-7.52-4.85-.28-.05-1.11-.24-1.27-.91-.19-.81.41-1.36.75-1.53l.66-.37c.65-1.29.95-2,1.02-2.23.66-2.2-1.81-5.54-3.52-7.13-1.8-1.67-3.28-2.9-4.37-3.8l.14-.3-.2.25c-.76-.63-1.38-1.14-1.88-1.61-.71.72-1.59,1.45-2.6,2.27-1.4,1.14-2.96,2.41-4.16,3.82-2.23,2.63-2.11,5.15-1.06,8.85h.02c.3.22,1.16.9.89,1.68-.25.73-1.26.77-1.46.77-4,.3-5.54,1.29-7.48,4.85-.88,1.62-1.51,3.53-2.06,5.23-.4,1.21-.77,2.34-1.19,3.27.61.29,1.32.69,2.18,1.17,1.31.73,2.94,1.65,5.2,2.75,1.95.95,4.62,2.25,8.08.54l.06-.03c.53-.54,1.49-1.7,2.57-3.13.33-.44.88-.63,1.41-.5Z"/>
          <path fill="none" d="m66.3,92.06c-.28-.78-1.1-3.67-1.57-5.49-.48,1.82-1.24,4.49-1.51,5.24-.45,1.26-1.11,2.91-1.99,4.7-.61,2.93-1.09,6.14-1.24,9.54h0c-.42,9.68,1.86,18.27,3.07,22.05,1.53-3.66,4.55-12.03,4.97-21.7.18-4.23-.16-8.21-.69-11.71-.42-.98-.77-1.87-1.03-2.63Z"/>
          <path fill="none" d="m46.7,56.99c.15.05.3.1.45.15-.53-.56-1.01-1.09-1.43-1.62-.99-1.22-1.82-2.59-2.57-4-2.17-1.9-4.61-3.83-7.36-5.57-8.19-5.19-16.78-7.49-20.65-8.33,2.41,3.15,8.16,9.93,16.34,15.12,1.83,1.16,3.66,2.13,5.47,3.02,3.27-.09,6.66.23,9.75,1.22Z"/>
          <path fill="none" d="m87.55,56.23c3.45-.42,6.99-.21,10.15.27,1.2-.51,2.41-1.06,3.62-1.68,8.63-4.41,14.97-10.64,17.67-13.55-3.94.48-12.7,1.98-21.33,6.39-2.08,1.07-4.01,2.24-5.81,3.44-1.4,2-2.93,3.74-4.3,5.12Z"/>
          <path fill="none" d="m68.22,91.62c.32.91,1.05,2.82,1.07,2.95,5.48,12.85,13.69,14.79,17.12,15.01,12.56.78,19.71-2.34,24.95-4.62,2.38-1.04,4.43-1.93,6.43-2.2,1.94-.26,4.91-1.45,5.44-3.29.48-1.67-.18-4.24-.51-4.76-.94-1.42-4.01-9.02-5.66-18.48-.7-3.98-3.97-11.64-11.83-15.07-2.71-1.18-7.93-2.56-13.72-2.56-2.72,0-5.18.31-7.31.93l-.96.42c-1.05.61-3.66,1.93-5.65,2.83,2.28.84,3.87,2.43,5.48,5.4,1,1.83,1.67,3.88,2.26,5.68.56,1.7,1.08,3.28,1.64,3.94l1.66,1.96-2.57.17c-.45.03-1.66.71-2.94,1.43-1.22.69-3.02,1.69-5.32,2.81-2.33,1.14-5.83,2.84-10.49.48-.01,0-.3-.17-.38-.24-.25-.19-.5-.47-.81-.83.08.41.18.86.26,1.4.08.51,1.47,5.55,1.85,6.62Z"/>
          <path d="m124.88,93.29h0c-.83-1.26-3.71-8.55-5.27-17.5-.78-4.5-4.48-13.14-13.36-17.01-1.28-.56-3.11-1.15-5.25-1.65.4-.19.8-.36,1.21-.56,11.94-6.11,19.58-15.49,19.9-15.89l1.34-1.69-2.15.1c-.5.02-12.52.69-24.53,6.83-.95.49-1.82,1.02-2.71,1.54,2.21-4.31,3.41-9.44,1.68-14.94-3.96-12.58-9.73-18.41-13.94-22.67-1.75-1.77-3.13-3.17-3.93-4.62-1-1.82-3.77-5.25-7.1-5.25-.14,0-.29,0-.43.02-2.66.23-5.41,2.26-6.14,3.28-.88,1.23-6.65,6.54-14.43,11.22-3.91,2.35-10.64,8.91-11.05,18.59-.14,3.31.57,8.98,2.61,14.41-1.4-1.1-2.88-2.19-4.49-3.21-11.49-7.28-23.68-9.04-23.8-9.06l-2.13-.3,1.18,1.8c.06.1,6.84,10.36,18.36,17.66.93.59,1.86,1.13,2.78,1.65-4.08.49-7.71,1.5-9.96,2.48-8.88,3.87-12.58,12.51-13.36,17.01-1.56,8.95-4.44,16.24-5.27,17.5-.69,1.05-1.58,4.34-.84,6.91.98,3.39,5.39,4.84,7.59,5.14,1.65.22,3.46,1.01,5.76,2.02,4.79,2.09,11.36,4.95,22.02,4.95,1.3,0,2.69-.05,4.11-.14,6.83-.44,11.68-4.52,15.02-9.05-.1,1.02-.22,2.03-.27,3.09-.59,13.65,3.95,25.04,4,25.15l.8,2,.98-1.92c.23-.45,5.58-11.3,6.16-24.71,0-.2,0-.4.01-.61,0,0,.29,3.23.43,4.3.4,2.99.93,8.1,1.05,9.6.07.91.11,1.85.16,2.76.03.64.06,1.28.1,1.91-.02,9.29-2.29,43.68-3.9,53.27-.74,4.37-2.35,11.5-3.91,18.39-.32,1.42-.64,2.82-.94,4.17-2.53-5.19-5.14-10.22-7.83-14.89-4-6.96-7.44-11.92-11.16-16.11-7.2-8.12-16.19-14.28-26-17.82-5.55-2-11.29-3.12-17.06-3.33h-.01c-.5,0-.78.35-.87.66-.11.41,0,.94.53,1.22,9.05,4.94,17.98,11.57,27.31,20.29,5.02,4.69,9.76,9.84,14.35,14.84,2.94,3.2,5.98,6.5,9.07,9.66,3.59,3.66,6.97,6.41,10.33,8.4l.67.12c-.58,2.65-1.07,4.95-1.35,6.54-1.28,7.25-2.99,18-3.87,27.98-1.12,12.7-.56,23.81,1.73,33.95.11.47.48.69.85.69.07,0,.14,0,.2-.02.44-.09.82-.49.7-1.06-1.48-7.3-2.13-14.96-1.97-23.39.03-.05.05-.11.05-.2,0-.2,0-.4,0-.59,0-.14,0-.28,0-.41.09-3.29.29-6.62.59-9.89.05-.37.35-2.72.7-5.45.13-1.02.27-2.1.4-3.15.4-.04.95-.45,1.76-1.32l.06.15,3.83-4.11-.07-.08c3.02-2.4,6.3-4.47,9.49-6.46h0c3.56-2.23,7.23-4.54,10.57-7.34,4.21-3.55,7.89-7.85,11.44-12.02,2.55-2.99,5.18-6.07,7.99-8.85,4.19-4.14,8.42-7.02,12.94-8.8.53-.21.61-.68.52-1.06-.13-.53-.63-1.05-1.19-1-21.58,1.84-37.24,18.85-50.23,34.65-.34.42-.69.83-1.05,1.26l-.08.1c-.94,1.12-1.88,2.25-2.76,3.43.71-1.44,1.44-2.87,2.21-4.23.11-.17.78-1.27,1.58-2.58l.43-.7c.98-1.6,2.09-3.41,2.21-3.59,1.12-1.48,2.18-3.03,3.13-4.6l.17-.24c.19-.28.39-.55.58-.83,1.28-1.81,2.59-3.53,3.86-5.19,5.36-7.05,11.44-15.03,20.16-34.68l.55-1.23c.37-.76.69-1.56.98-2.31.03-.08.06-.17.1-.27l.07-.2c.96-2.49,1.5-5.39,2.49-8.01.19-.49.54-.89.87-1.28.36-.43.58-.91.86-1.37.38-.6.93-.94,1.53-1.2,1.16-.5,2.18-1.22,3.04-2.18.21-.23.5-.51.51-.8,0-.81.52-1.15.96-1.58.81-.78,1.46-1.69,1.79-2.84.13-.44.21-.92.22-1.39.03-1.5-.56-2.03-1.97-1.72-.06-.14-.16-.28-.19-.44-.43-1.91-2.28-2.44-3.48-1.46-.79.65-1.49,1.47-2.07,2.34-.6.9-1.02,1.96-1.55,3.02-1.28.01-1.75,1.05-2.06,2.21-.52,1.92-.24,3.95.76,5.83v1.22s-.98,3.22-.98,3.22c-.24.93-1,2.93-1.6,4.54-.26.7-.5,1.32-.65,1.75-.17.48-.36.96-.55,1.43-.13.33-.26.66-.38.97-2.11,4.68-11.05,21.5-14.03,25.96-1.37,2.04-3.79,5.26-6.14,8.38-1.81,2.4-3.68,4.89-4.62,6.28-2.3,3.37-5.6,8.42-8.31,13.26-.61,1.09-1.16,2.22-1.69,3.37.17-1.05.35-2.1.48-3.16l.09-.45c.12-.63.24-1.26.36-1.89.42-2.17.89-4.31,1.36-6.47h.01s0-.02,0-.02c.32-1.46.65-2.93.99-4.44,3.69-16.28,7.87-34.73,7.69-74.06v-.56c0-1.26,0-3.62-.1-4.85-.5-5.72-1.33-12.75-3.23-18.44,3.33,5.18,8.52,10.31,16.23,10.8,1.38.09,2.77.14,4.11.14,10.66,0,17.24-2.87,22.06-4.97,2.29-1,4.09-1.78,5.72-2,2.2-.3,6.62-1.75,7.59-5.14.74-2.57-.16-5.86-.84-6.91ZM15.03,154.65c8.56,6.41,17.17,14.28,25.59,23.4,6.34,6.86,12.3,14.25,18.06,21.4l.81,1c-4.92-3.83-9.24-8.77-13.44-13.57l-.09-.1c-1.51-1.73-3.07-3.51-4.63-5.2-8.92-9.68-16.74-17.02-24.59-23.1-3.82-2.95-7.77-5.67-11.75-8.07,8.6,1.02,17.12,4.13,24.64,9.01,8.71,5.65,16.17,13.82,22.79,25,2.64,4.45,5.19,9.18,7.81,14.45-4.34-5.49-8.94-10.99-13.65-16.35-7.07-8.04-13.08-14.14-18.92-19.18-3.71-3.21-7.74-6.23-12.33-9.23-.14-.09-.3-.05-.4.09-.11.16-.08.34.07.45Zm95.73-19.68c.25,1.25-.25,2.17-.84,3.05-1.17,1.76-2.22,2.26-4.45,2.18,1.57-2.4,3.92-4.75,5.29-5.22Zm-7.26,3.47c.66-1.72,1.34-3.45,2.56-4.79.32-.35.71-.63,1.11-.86.36-.22.8-.25,1.16.13.35.38.53.87.34,1.34-.16.39-.39.76-.66,1.05-1.4,1.51-2.82,2.99-4.38,4.62-.06-.58-.27-1.12-.13-1.49Zm-1.31.31c.26.89.49,1.7.73,2.51.19.63.51.9,1.07.82.43-.07.84-.25,1.26-.37.71-.21,1.37-.63,2.21-.34-.69.94-1.66,1.45-2.63,1.96-.73.38-1.41.8-1.85,1.56-.04.07-.16.09-.23.13-.07-.05-.69-.85-.69-.85-.86-1.48-.9-3.93.14-5.42Zm-34.7,76.34c.37-.43.73-.87,1.08-1.29,3.63-4.43,6.72-8.1,9.99-11.65,8.05-8.74,15.4-14.54,23.14-18.26,3.36-1.61,6.71-2.79,9.97-3.51-6.03,3.84-11.05,9.72-15.5,14.93l-.24.28c-3.08,3.61-6.27,7.34-9.76,10.59-3.49,3.25-7.49,5.84-11.35,8.35l-1.17.76c-.77.5-1.49.98-2.18,1.44.66-.73,1.32-1.46,1.98-2.18l.19-.21c1.67-1.84,3.39-3.74,5.1-5.58.95-1.02,1.91-2.09,2.84-3.13l.09-.1c4.09-4.55,8.33-9.25,13.42-12.39.19-.12.21-.35.12-.51-.09-.18-.28-.25-.45-.16-5.42,2.55-9.72,7.24-13.92,11.81-.88.96-1.78,1.94-2.67,2.88-1.78,1.87-3.62,3.76-5.42,5.6l-.06.06c-3.56,3.66-7.23,7.43-10.68,11.32.84-3.54,3.3-6.46,5.48-9.05ZM6.81,94.47c.94-1.43,4.01-9.02,5.66-18.48.7-3.98,3.97-11.64,11.83-15.07,2.71-1.18,7.94-2.56,13.73-2.56,2.96,0,5.61.37,7.88,1.1,2.1.68,4.31,1.79,6.42,2.93-2.5.8-4.14,2.38-5.86,5.54-1,1.83-1.67,3.88-2.26,5.69-.55,1.68-1.07,3.27-1.63,3.94l-1.66,1.96,2.56.17c.45.03,1.66.71,2.94,1.43l.11.06c1.26.7,2.99,1.67,5.22,2.75,2.32,1.13,5.82,2.84,10.48.47.25-.13.28-.14.31-.17l.1-.08c.21-.19.46-.45.76-.79,0,.04.02.09.03.13-.09.41-.2.95-.29,1.54-.07.48-1.47,5.54-1.83,6.56-5.42,15.3-14.52,17.5-18.18,17.73-12.56.79-19.71-2.33-24.95-4.62-2.38-1.04-4.43-1.93-6.42-2.2-1.94-.26-4.92-1.46-5.44-3.29-.48-1.67.18-4.24.51-4.75ZM75.59,6.5c.97,1.76,2.55,3.36,4.38,5.21,4.02,4.06,9.52,9.63,13.29,21.61,2.12,6.74-.92,13-4.45,17.55-.07.05-.16.1-.23.16-1.99,2.57-4.13,4.61-5.62,5.89-.04.03-.11.09-.17.13-.15.12-.31.25-.52.4-1.18.62-2.29,1.24-3.36,1.84l-.13.07c-.7.39-1.39.77-2.06,1.14.06-.14.1-.26.13-.38.93-3.66-2.19-7.76-4.18-9.62-1.87-1.73-3.41-3.01-4.57-3.97-1.12-.93-2.17-1.8-2.36-2.21l-1.09-2.33-1.23,2.25c-.42.76-1.71,1.82-3.1,2.96-1.47,1.2-3.13,2.55-4.48,4.14-2.31,2.72-2.44,5.59-2.09,8.34-1.85-1.58-4.57-4.02-6.02-5.81-4.79-5.91-6.64-15.65-6.43-20.68.36-8.57,6.33-14.38,9.79-16.47,8.22-4.95,14.21-10.54,15.2-11.94.36-.5,2.52-2.04,4.26-2.19,1.99-.19,4.16,2.33,5.02,3.89Zm-14.64,75.64c-3.47,1.71-6.13.41-8.08-.54-2.26-1.1-3.89-2.02-5.2-2.75-.86-.48-1.56-.88-2.18-1.17.42-.93.79-2.06,1.19-3.27.56-1.69,1.18-3.61,2.06-5.23,1.94-3.55,3.48-4.55,7.48-4.85.2,0,1.21-.04,1.46-.77.27-.78-.59-1.46-.89-1.67h-.02c-1.04-3.71-1.17-6.23,1.06-8.86,1.19-1.41,2.76-2.68,4.16-3.82,1.01-.83,1.9-1.55,2.6-2.27.5.47,1.12.98,1.88,1.61l.2-.25-.14.3c1.09.9,2.57,2.13,4.37,3.8,1.71,1.59,4.17,4.93,3.52,7.13-.07.23-.38.94-1.02,2.23l-.66.37c-.35.17-.95.72-.75,1.53.16.67.99.86,1.27.91,4.04.3,5.59,1.3,7.52,4.85.88,1.62,1.51,3.55,2.07,5.26.39,1.19.76,2.32,1.18,3.25-.61.29-1.32.69-2.13,1.14l-.08.04c-1.32.74-2.95,1.65-5.17,2.73-1.95.95-4.61,2.25-8.06.55l-.07-.04c-.53-.53-1.48-1.69-2.57-3.14h0c-.05-.06-.1-.11-.14-.14-.26-.41-.58-.54-.81-.6-.54-.13-1.08.06-1.41.5-1.08,1.43-2.04,2.6-2.57,3.13l-.06.03Zm5.97,2.28c.09.07.37.23.38.24,4.66,2.37,8.16.66,10.49-.48,2.3-1.12,4.1-2.13,5.32-2.81,1.28-.72,2.49-1.39,2.94-1.43l2.57-.17-1.66-1.96c-.56-.66-1.08-2.25-1.64-3.94-.59-1.81-1.26-3.85-2.26-5.68-1.62-2.97-3.21-4.56-5.48-5.4,1.98-.9,4.6-2.22,5.65-2.83l.96-.42c2.14-.62,4.6-.93,7.31-.93,5.79,0,11.01,1.38,13.72,2.56,7.86,3.43,11.14,11.08,11.83,15.07,1.65,9.46,4.72,17.06,5.66,18.48.34.52,1,3.09.51,4.76-.53,1.83-3.5,3.03-5.44,3.29-2,.27-4.05,1.17-6.43,2.2-5.23,2.28-12.39,5.39-24.95,4.62-3.43-.22-11.64-2.17-17.12-15.01-.02-.12-.74-2.04-1.07-2.95-.38-1.07-1.77-6.11-1.85-6.62-.08-.54-.18-.99-.26-1.4.3.36.56.64.81.83Zm30.75-36.76c8.62-4.41,17.39-5.91,21.33-6.39-2.69,2.91-9.04,9.14-17.67,13.55-1.21.62-2.42,1.17-3.62,1.68-3.16-.49-6.7-.69-10.15-.27,1.37-1.38,2.9-3.12,4.3-5.12,1.79-1.2,3.72-2.38,5.81-3.44Zm-66.17,5.08c-8.18-5.19-13.93-11.97-16.34-15.12,3.87.84,12.46,3.14,20.65,8.33,2.75,1.74,5.19,3.66,7.36,5.57.76,1.41,1.58,2.78,2.57,4,.42.52.9,1.06,1.43,1.62-.15-.05-.3-.1-.45-.15-3.09-1-6.47-1.31-9.75-1.22-1.81-.88-3.64-1.86-5.47-3.02Zm36.54,53.65c-.42,9.68-3.44,18.04-4.97,21.7-1.2-3.78-3.49-12.37-3.07-22.05h0c.15-3.4.63-6.62,1.24-9.54.88-1.8,1.55-3.45,1.99-4.7.27-.75,1.02-3.42,1.51-5.24.48,1.82,1.3,4.7,1.57,5.49.27.75.61,1.65,1.03,2.63.53,3.5.88,7.49.69,11.71Z"/>
        </g>
      </g>
    </g>
  </g>
</svg>