<?xml version="1.0" encoding="UTF-8"?>
<svg xmlns="http://www.w3.org/2000/svg" viewBox="0 0 315.01 315.01">
  <g>
    <g>
      <g>
        <g>
          <path d="m157.51,2.64c33.85,0,43.91,16.7,52.79,31.44,7.14,11.86,13.89,23.06,31.18,23.06,5.79,0,12.45-1.26,20.26-3.85-10.96,33.25,3.71,42.1,19.21,51.43,14.74,8.88,31.44,18.94,31.44,52.79s-16.7,43.91-31.44,52.79c-15.49,9.34-30.17,18.18-19.21,51.43-7.8-2.58-14.46-3.85-20.26-3.85-17.29,0-24.03,11.2-31.18,23.06-8.88,14.74-18.94,31.44-52.79,31.44s-43.92-16.7-52.79-31.44c-7.14-11.86-13.89-23.05-31.18-23.06-5.79,0-12.45,1.26-20.26,3.85,10.96-33.25-3.71-42.1-19.21-51.43-14.74-8.88-31.44-18.94-31.44-52.79s16.7-43.91,31.44-52.79c15.49-9.34,30.17-18.18,19.21-51.43,7.8,2.58,14.46,3.85,20.26,3.85,17.29,0,24.04-11.2,31.18-23.06,8.88-14.73,18.94-31.44,52.79-31.44m0-2.31c-62.19,0-47.2,54.49-83.97,54.49-6.29,0-14.09-1.59-24.05-5.33C75.05,117.68.32,84.68.32,157.51s74.72,39.82,49.17,108.02c9.96-3.73,17.76-5.33,24.05-5.33,36.76,0,21.78,54.49,83.97,54.49s47.2-54.5,83.97-54.49c6.29,0,14.09,1.59,24.05,5.33-25.56-68.19,49.17-35.19,49.17-108.02s-74.72-39.82-49.17-108.02c-9.96,3.73-17.76,5.33-24.05,5.33C204.72,54.82,219.7.32,157.51.32h0Z"/>
          <path d="m157.51,315.01c-35.34,0-45.81-17.38-55.05-32.71-7.04-11.69-13.12-21.78-28.92-21.78-6.58,0-14.41,1.74-23.93,5.31l-.66.25.25-.66c13.12-35.02-.59-43.28-16.47-52.86C17.38,203.32,0,192.85,0,157.51s17.38-45.81,32.71-55.05c15.88-9.57,29.6-17.83,16.47-52.85l-.25-.66.66.25c9.53,3.57,17.35,5.31,23.93,5.31,15.8,0,21.88-10.09,28.92-21.78C111.7,17.38,122.17,0,157.51,0s45.81,17.38,55.05,32.71c7.04,11.69,13.12,21.78,28.92,21.78,6.58,0,14.41-1.74,23.93-5.31l.66-.25-.25.66c-13.12,35.02.59,43.28,16.48,52.85,15.33,9.24,32.71,19.71,32.71,55.05s-17.38,45.81-32.71,55.05c-15.88,9.57-29.6,17.83-16.48,52.86l.25.66-.66-.25c-9.52-3.57-17.35-5.31-23.93-5.31h0c-15.8,0-21.88,10.09-28.92,21.78-9.24,15.33-19.71,32.71-55.05,32.71Zm-83.97-55.14c16.16,0,22.33,10.24,29.47,22.09,9.15,15.19,19.52,32.4,54.5,32.4s45.35-17.21,54.49-32.4c7.14-11.85,13.31-22.09,29.47-22.09h0c6.51,0,14.2,1.67,23.5,5.1-12.89-34.97.96-43.31,16.99-52.97,15.19-9.15,32.4-19.52,32.4-54.5s-17.21-45.35-32.4-54.5c-16.03-9.66-29.89-18-16.99-52.97-9.3,3.43-16.99,5.1-23.5,5.1-16.16,0-22.33-10.24-29.47-22.09C202.85,17.86,192.48.65,157.51.65s-45.35,17.21-54.5,32.4c-7.14,11.86-13.31,22.09-29.48,22.09-6.5,0-14.2-1.67-23.5-5.1,12.89,34.97-.96,43.31-16.99,52.97C17.86,112.16.65,122.53.65,157.51s17.21,45.35,32.4,54.5c16.03,9.66,29.89,18.01,16.99,52.97,9.3-3.43,16.99-5.1,23.5-5.1Zm83.97,52.82c-34.03,0-44.15-16.78-53.07-31.59-7.1-11.78-13.8-22.9-30.9-22.9-5.78,0-12.37,1.25-20.16,3.83l-.61.2.2-.61c10.88-33.01-3.67-41.78-19.07-51.06-14.81-8.92-31.59-19.04-31.59-53.07s16.78-44.15,31.59-53.07c15.4-9.28,29.95-18.04,19.07-51.06l-.2-.61.61.2c7.78,2.58,14.38,3.83,20.16,3.83,17.11,0,23.81-11.12,30.91-22.9,8.92-14.81,19.03-31.59,53.07-31.59s44.15,16.79,53.07,31.59c7.1,11.78,13.8,22.9,30.9,22.9,5.78,0,12.37-1.25,20.16-3.83l.61-.2-.2.61c-10.88,33.01,3.67,41.78,19.07,51.06,14.81,8.92,31.59,19.04,31.59,53.07s-16.78,44.14-31.59,53.07c-15.4,9.28-29.95,18.04-19.07,51.06l.2.61-.61-.2c-7.78-2.58-14.37-3.83-20.16-3.83-17.11,0-23.81,11.12-30.9,22.9-8.92,14.81-19.03,31.59-53.07,31.59Zm-83.97-55.14c17.47,0,24.26,11.28,31.45,23.21,8.83,14.66,18.85,31.28,52.52,31.28s43.68-16.62,52.51-31.28c7.19-11.94,13.98-23.21,31.45-23.21,5.71,0,12.17,1.2,19.76,3.66-10.66-33,4.01-41.85,19.55-51.2,14.66-8.84,31.28-18.85,31.28-52.52s-16.62-43.68-31.28-52.51c-15.53-9.36-30.21-18.2-19.55-51.21-7.59,2.46-14.05,3.66-19.75,3.66-17.47,0-24.26-11.27-31.45-23.21-8.84-14.67-18.85-31.28-52.52-31.28s-43.68,16.62-52.51,31.28c-7.19,11.94-13.98,23.21-31.46,23.21-5.7,0-12.17-1.2-19.75-3.66,10.66,33.01-4.01,41.85-19.54,51.2-14.66,8.83-31.28,18.85-31.28,52.52s16.62,43.68,31.28,52.51c15.53,9.36,30.21,18.2,19.54,51.2,7.59-2.46,14.05-3.66,19.75-3.66Z"/>
        </g>
        <g>
          <path d="m157.51,17.67c25.36,0,31.47,10.13,39.92,24.16,7.71,12.8,18.27,30.33,44.06,30.33.45,0,.9,0,1.36-.02-.75,24.57,14.54,35.93,30.34,45.45,14.03,8.45,24.16,14.56,24.16,39.91s-10.13,31.46-24.16,39.91c-15.8,9.52-31.09,20.88-30.34,45.45-.46-.01-.92-.02-1.36-.02-25.79,0-36.35,17.53-44.06,30.33-8.45,14.03-14.55,24.16-39.91,24.16s-31.46-10.14-39.92-24.17c-7.71-12.8-18.28-30.33-44.05-30.33-.45,0-.9,0-1.36.02.75-24.56-14.54-35.93-30.34-45.45-14.03-8.45-24.16-14.56-24.16-39.91s10.13-31.46,24.16-39.91c15.8-9.52,31.09-20.88,30.34-45.45.46.01.92.02,1.36.02,25.78,0,36.35-17.53,44.06-30.33,8.45-14.03,14.55-24.16,39.91-24.16m0-2.31c-26.66,0-33.38,11.15-41.89,25.28-7.43,12.33-17.6,29.21-42.08,29.21-1.24,0-2.51-.05-3.81-.13,1.81,24.64-12.58,35.95-29.09,45.9-14.12,8.51-25.28,15.23-25.28,41.9s11.16,33.39,25.28,41.9c16.51,9.95,30.9,21.25,29.09,45.9,1.3-.09,2.56-.13,3.81-.13,24.47,0,34.64,16.88,42.07,29.21,8.51,14.13,15.23,25.28,41.9,25.28s33.39-11.16,41.89-25.28c7.43-12.33,17.6-29.21,42.08-29.21,1.24,0,2.51.05,3.81.13-1.81-24.64,12.58-35.95,29.09-45.9,14.13-8.51,25.28-15.23,25.28-41.9s-11.16-33.39-25.28-41.9c-16.51-9.95-30.9-21.25-29.09-45.9-1.29.09-2.56.13-3.8.13h0c-24.47,0-34.64-16.88-42.07-29.21-8.51-14.13-15.23-25.28-41.9-25.28h0Z"/>
          <path d="m157.51,299.98c-26.85,0-33.61-11.23-42.17-25.44-7.39-12.26-17.51-29.05-41.8-29.05-1.22,0-2.49.04-3.79.13l-.37.03.03-.37c1.83-24.88-13.29-36.17-28.94-45.6-14.21-8.56-25.44-15.32-25.44-42.17s11.23-33.61,25.44-42.17c15.65-9.43,30.77-20.71,28.94-45.6l-.03-.37.37.03c1.29.09,2.56.13,3.78.13,24.3,0,34.41-16.8,41.8-29.06,8.56-14.21,15.32-25.43,42.17-25.43s33.61,11.23,42.17,25.44c7.39,12.26,17.51,29.05,41.8,29.06,1.23,0,2.5-.05,3.79-.13l.37-.03-.03.37c-1.83,24.88,13.29,36.17,28.94,45.6,14.21,8.56,25.44,15.32,25.44,42.17s-11.23,33.61-25.44,42.17c-15.65,9.43-30.77,20.71-28.94,45.6l.03.37-.37-.03c-1.3-.09-2.57-.13-3.79-.13-24.3,0-34.41,16.8-41.8,29.06-8.56,14.21-15.32,25.44-42.17,25.44Zm-83.97-55.14c24.65,0,34.88,16.97,42.35,29.37,8.46,14.04,15.14,25.13,41.62,25.13s33.16-11.09,41.62-25.12c7.47-12.4,17.69-29.37,42.35-29.37,1.12,0,2.28.04,3.46.11-1.68-24.99,13.53-36.34,29.27-45.83,14.04-8.46,25.12-15.14,25.12-41.62s-11.09-33.16-25.12-41.62c-15.74-9.48-30.96-20.83-29.27-45.83-1.18.07-2.34.11-3.46.11-24.66,0-34.89-16.98-42.35-29.37-8.46-14.04-15.14-25.12-41.62-25.12s-33.16,11.09-41.61,25.12c-7.47,12.4-17.7,29.37-42.36,29.37-1.12,0-2.28-.04-3.46-.11,1.68,24.99-13.53,36.34-29.27,45.83-14.04,8.46-25.12,15.14-25.12,41.62s11.09,33.16,25.12,41.62c15.74,9.48,30.96,20.84,29.27,45.83,1.18-.07,2.34-.11,3.46-.11Zm83.97,52.83c-25.54,0-31.68-10.2-40.19-24.32-7.67-12.74-18.18-30.17-43.78-30.17-.45,0-.9,0-1.36.02h-.34s.01-.33.01-.33c.74-24.44-14.51-35.71-30.18-45.16-14.12-8.5-24.32-14.65-24.32-40.19s10.2-31.68,24.32-40.19c15.68-9.45,30.93-20.72,30.18-45.16v-.34s.33,0,.33,0c.46.01.91.02,1.36.02,25.6,0,36.11-17.44,43.78-30.18,8.5-14.12,14.65-24.31,40.19-24.31s31.69,10.2,40.19,24.32c7.67,12.73,18.18,30.17,43.78,30.17.45,0,.9,0,1.35-.02h.34s-.01.33-.01.33c-.74,24.44,14.51,35.71,30.18,45.16,14.12,8.5,24.32,14.65,24.32,40.19s-10.2,31.69-24.32,40.19c-15.68,9.45-30.93,20.72-30.18,45.16v.34s-.33,0-.33,0c-.46-.01-.91-.02-1.36-.02-25.6,0-36.11,17.44-43.78,30.18-8.5,14.12-14.65,24.32-40.19,24.32Zm-83.97-55.14c25.96,0,36.58,17.62,44.33,30.48,8.4,13.94,14.47,24.01,39.64,24.01s31.24-10.07,39.64-24c7.75-12.87,18.37-30.49,44.34-30.49.34,0,.68,0,1.03,0-.6-24.56,14.73-35.89,30.51-45.39,13.94-8.4,24.01-14.46,24.01-39.64s-10.07-31.24-24.01-39.64c-15.77-9.5-31.11-20.84-30.51-45.39-.35,0-.69.01-1.03.01-25.97,0-36.58-17.62-44.33-30.49-8.4-13.94-14.46-24.01-39.64-24.01s-31.24,10.07-39.63,24c-7.75,12.87-18.37,30.49-44.34,30.49-.34,0-.68,0-1.03-.01.6,24.56-14.73,35.89-30.51,45.39-13.94,8.4-24.01,14.46-24.01,39.64s10.07,31.24,24.01,39.64c15.77,9.5,31.11,20.84,30.51,45.39.35,0,.69,0,1.03,0Z"/>
        </g>
      </g>
      <g>
        <path d="m163.9,92.01c.35-2.11.7-4.21,1.05-6.32"/>
        <path d="m233.52,191.06c-1.08-1.64-4.81-11.05-6.81-22.54-.97-5.58-5.56-16.31-16.58-21.11-5.14-2.24-15.97-4.66-25.61-2.87,6.07-5.65,16.08-17.47,11.83-30.97-4.99-15.85-12.25-23.19-17.55-28.54-2.28-2.3-4.08-4.12-5.14-6.05-1.28-2.34-4.8-6.65-8.9-6.29-3.13.27-6.46,2.7-7.3,3.87-1.14,1.6-8.58,8.47-18.57,14.47-4.86,2.92-13.21,11.07-13.72,23.08-.27,6.34,1.87,19.56,8.75,28.06,1.28,1.58,2.82,3.11,4.42,4.56-1.32-.6-2.64-1.16-3.94-1.58-10.41-3.36-23.51-.59-29.33,1.94-11.02,4.8-15.61,15.53-16.58,21.11-2,11.49-5.73,20.9-6.81,22.54-.79,1.2-1.85,5.19-.98,8.2,1.14,3.96,6.44,5.68,9.08,6.04,2.18.29,4.53,1.32,7.5,2.61,6.15,2.68,14.33,6.25,27.76,6.25,1.65,0,3.38-.05,5.19-.17,15.52-.99,22.95-17.32,25.42-24.29.34-.95,1.3-4.35,1.92-6.67.61,2.31,1.65,5.99,2,6.98,2.47,6.97,9.89,23.3,25.42,24.29,1.81.12,3.54.17,5.19.17,13.43,0,21.61-3.57,27.76-6.25,2.97-1.3,5.31-2.32,7.5-2.61,2.64-.36,7.94-2.08,9.08-6.04.87-3.02-.19-7-.98-8.2Zm-98.12-50.08c-6.21-7.66-8.61-20.28-8.33-26.79.48-11.21,8.27-18.81,12.8-21.53,10.37-6.23,17.89-13.25,19.13-15,.58-.81,3.5-2.87,5.92-3.09,2.88-.26,5.87,3.13,7.08,5.32,1.19,2.16,3.16,4.16,5.45,6.47,5.16,5.22,12.24,12.37,17.09,27.78,4.33,13.76-7.6,25.88-12.92,30.46-.25.22-.76.61-1.4,1.09-3.33,1.76-6.22,3.48-9.06,4.93.16-.36.98-1.7,1.14-2.33,1.08-4.24-2.65-9.25-5.12-11.54-2.35-2.19-4.31-3.81-5.74-5-1.7-1.41-2.92-2.42-3.23-3.08l-.79-1.7-.9,1.64c-.6,1.1-2.3,2.48-4.1,3.96-1.85,1.51-3.95,3.23-5.62,5.2-3.23,3.8-2.93,7.81-2.21,11.93-2.75-2.3-7.04-6.04-9.2-8.71Zm21.2,37.25c-.13.6-.27,1.28-.38,2.05-.1.66-1.88,7.11-2.36,8.48-7.04,19.87-18.96,22.72-23.75,23.03-16.12,1.03-25.34-2.99-32.07-5.93-2.98-1.3-5.55-2.42-8-2.75-2.48-.33-6.71-1.9-7.51-4.69-.68-2.34.2-5.8.75-6.64,1.18-1.79,5.01-11.33,7.09-23.25.91-5.21,5.19-15.22,15.47-19.7,3.96-1.72,10.83-3.32,17.75-3.32,3.53,0,7.07.42,10.24,1.44,3.26,1.05,6.72,2.91,9.86,4.65-4.1.81-6.37,2.77-8.75,7.15-1.24,2.27-2.08,4.85-2.82,7.12-.72,2.21-1.41,4.3-2.21,5.25l-1.21,1.43,1.87.13c.73.05,2.12.83,4.04,1.9,1.62.91,3.84,2.15,6.73,3.56,2.86,1.39,7.19,3.5,12.89.52l-.09-.17.13.16c.53-.45,1.29-1.33,2.09-2.31.03.63.12,1.25.24,1.88h0Zm1.11-5.71c-.39-.1-.81.04-1.05.37-1.5,1.99-2.76,3.51-3.43,4.15-4.8,2.45-8.42.68-11.07-.61-2.84-1.38-4.94-2.56-6.63-3.51-1.43-.8-2.51-1.41-3.4-1.77.65-1.23,1.19-2.88,1.79-4.7.72-2.2,1.53-4.68,2.69-6.8,2.58-4.74,4.76-6.14,10.14-6.54,0,0,1.02,0,1.19-.5.19-.56-.8-1.27-.8-1.27-.09-.05-.19-.11-.29-.16-1.34-4.64-1.82-8.38,1.41-12.2,1.56-1.84,3.59-3.5,5.38-4.96,1.49-1.21,2.83-2.31,3.74-3.36.66.7,1.61,1.49,2.87,2.54,1.49,1.24,3.35,2.78,5.66,4.93,2.48,2.31,5.61,6.65,4.67,9.79-.16.53-.83,1.94-1.44,3.15-.35.2-.71.4-1.06.59,0,0-.77.39-.59,1.16.11.46.98.62.98.62,5.38.4,7.56,1.8,10.14,6.54,1.15,2.12,1.97,4.61,2.69,6.8.6,1.82,1.13,3.47,1.79,4.7-.89.36-1.97.96-3.4,1.77-1.69.95-3.8,2.12-6.63,3.51-2.65,1.29-6.27,3.05-11.07.61-.67-.65-1.93-2.16-3.43-4.15-.04-.05-.1-.07-.15-.11-.21-.4-.45-.52-.68-.58Zm74.97,26.23c-.8,2.78-5.03,4.35-7.51,4.69-2.45.33-5.02,1.45-8,2.75-6.73,2.94-15.95,6.96-32.07,5.93-4.8-.31-16.71-3.16-23.75-23.03-.49-1.37-2.27-7.82-2.36-8.48-.12-.77-.26-1.45-.38-2.05-.02-.12-.04-.21-.06-.32.11-.54.21-1.07.27-1.6.81,1,1.59,1.9,2.12,2.35l.13-.16-.09.17c5.71,2.98,10.03.87,12.89-.52,2.89-1.41,5.11-2.65,6.73-3.56,1.92-1.08,3.31-1.85,4.04-1.9l1.87-.13-1.21-1.43c-.81-.95-1.49-3.04-2.21-5.25-.74-2.27-1.59-4.85-2.82-7.12-2.32-4.27-4.55-6.23-8.45-7.08,2.5-1,7.34-3.42,8.99-4.38.44-.19.87-.38,1.31-.57,2.98-.86,6.25-1.21,9.5-1.21,6.92,0,13.79,1.59,17.75,3.32,10.28,4.48,14.57,14.49,15.47,19.7,2.08,11.93,5.92,21.46,7.09,23.25.55.83,1.42,4.3.75,6.64Z"/>
        <path d="m123.43,145.83c1.81,0,3.54.12,5.16.34-1.48-.21-3.01-.36-4.67-.36-.17,0-.33,0-.49.01Z"/>
        <path d="m172.03,152.29l-.38.48,2-.09c-.5-.15-1.04-.28-1.62-.38Z"/>
        <path d="m160.51,179.22c-.64-2.04-1.11-3.22-1.12-3.25l-1.22-3.04-1.49,2.93c-.05.11-.36.74-.8,1.73,0,.05.02.11.03.16.18-.2.35-.39.56-.64,0,.08.03.18.04.27.33-.74.56-1.21.61-1.3l1-1.96.82,2.04s.35.91.85,2.44c.17.18.34.37.49.48.05.04.15.1.24.15Z"/>
        <path d="m146.35,151.98c-.05-.03-.11-.06-.16-.09,0,.04-.02.07-.03.11.07,0,.12-.02.19-.03Z"/>
        <path d="m133.62,146.25c-1.9-.55-3.91-.83-5.93-1,1.27.52,2.48.96,3.66,1.38.92.19,1.89.34,2.73.61,1.08.35,2.18.8,3.28,1.29,1.71.48,3.26.87,4.42,1.12-2.68-1.34-5.45-2.62-8.15-3.4Z"/>
        <g>
          <g>
            <path d="m89.96,188.9h0c-.27,0-.51-.19-.59-.47-.07-.26-.02-.53.04-.78.32-1.28.8-2.45,1.26-3.59l.27-.67c2.5-6.24,4.11-13.24,4.67-20.23l.94.07c-.56,7.09-2.2,14.18-4.73,20.51l-.27.67c-.45,1.11-.92,2.26-1.22,3.47-.05.21.19.41.21.55.06.29-.31.47-.58.47Z"/>
            <path d="m108.68,206.77c-5.97-3.84-12.82-6.54-19.81-7.81l.17-.93c7.11,1.29,14.08,4.03,20.16,7.94l-.51.8Z"/>
            <g>
              <path d="m158.26,159.93c2.07.81.89-.34.8-.81.5-.45,1.06-.56,2.18-.21-.63-.39-.8-.49-1.1-.68,1.14-.29,2.16-.32,3.07.12.85.42,1.36,1.17,1.23,2.25-.08.73-.16,1.48.12,2.21.14.36-.08.63-.46.61-.72-.04-1.3.29-1.87.62-1.36.78-3.27-.13-3.53-1.69-.07-.43.56-.68.28-1.16-.21-.35-.4-.71-.72-1.27"/>
              <path d="m157.52,159.7c-1.03,1.15-.26,2.86-1.49,3.86-.74.6-1.61.79-2.49.22-.06-.04-.12-.1-.19-.12-2.32-.57-2.4-2.2-1.92-4.07.26-1.01,1.01-1.59,1.97-1.79,1.22-.26,2.34.05,2.82,1.3.25.67.7.49,1.31.62"/>
              <path d="m159.72,156.54c-.31.85-1.42.48-1.91,1.2-.04.06-.33.06-.41,0-.76-.71-1.61-1.36-2.23-2.18-.79-1.04-.18-2.01.66-2.66.82-.63,1.91-.88,2.72-1.86.43,1.57,2.32,1.54,2.74,3.05.19.68-.31,2.61-.98,2.88-.39.16-.26-.36-.6-.42"/>
              <path d="m163.44,141.32c1.13,1.98-.23,9.32-1.83,10.01.84-3.29,2.1-6.37,1.83-10.01"/>
              <path d="m156.14,165.15c.31,2.02-4.69,8.2-7.68,9.09,3.11-2.98,5.34-6.03,7.68-9.09"/>
              <path d="m174.27,171.68c-3.82-1.71-7.26-3.9-9.73-7.37,3.24,2.46,6.49,4.91,9.73,7.37"/>
              <path d="m167.75,146.11c-.03,2.93-1.66,4.32-2.71,5.92-.68,1.03-1.15,2.41-2.63,2.71.05-1.38,1.21-2.1,1.84-3.15.99-1.66,2.08-3.26,3.51-5.49"/>
              <path d="m153.41,152.95c-2.05-.28-5.18-8.5-4.29-10.32,1.34,3.37,1.98,7.05,4.29,10.32"/>
              <path d="m149.76,160.97c-3.19,1.75-6.51,3.18-10.83,4.44,3.77-2.6,7.34-3.43,10.83-4.44"/>
              <path d="m175.18,160.04c-3.25-2.11-6.98-2.6-10.65-3.3,3.91-.1,7.64.37,10.65,3.3"/>
              <path d="m168.6,174.55c-1.64-.46-7.14-7.61-6.93-8.86,2.3,2.93,4.54,5.8,6.93,8.86"/>
              <path d="m141.48,159.37c2.46-1.3,7.61-1.5,9.07-.43-3.22.15-6.14.29-9.07.43"/>
              <path d="m148.04,169.41l4.26-4.61c-.86,2.03-2.28,3.58-4.26,4.61"/>
              <path d="m153.94,145.12c.36,2.06.72,4.12,1.09,6.18-1.1-1.91-1.47-3.98-1.09-6.18"/>
              <path d="m181.36,202.41c-3.09-3.31-5.94-6.89-8.49-10.63-2.02-2.98-3.89-6.23-3.84-9.86l1.42.02c-.05,3.23,1.7,6.26,3.59,9.04,2.51,3.68,5.32,7.2,8.35,10.46l-1.04.97Z"/>
              <path d="m193.92,199.62c-3.68-2.49-7.49-5.06-10.82-8.17-3.77-3.51-6.43-7.27-7.88-11.17l1.33-.5c1.38,3.69,3.9,7.26,7.52,10.62,3.25,3.03,7.01,5.57,10.65,8.03l-.8,1.18Z"/>
              <path d="m208.74,195.82c-.91-.39-1.86-.69-2.85-1-.68-.21-1.39-.44-2.08-.69-3.19-1.18-6.08-3.08-8.72-4.95-4.85-3.45-9.52-7.26-13.87-11.33l.97-1.04c4.3,4.02,8.92,7.79,13.72,11.21,2.56,1.82,5.35,3.66,8.39,4.78.66.24,1.35.46,2.02.67.99.31,2.01.63,2.99,1.05l-.56,1.31Z"/>
              <path d="m201.75,182.31c-4.72-1.96-9.22-4.46-13.36-7.45l.83-1.15c4.05,2.92,8.45,5.38,13.08,7.29l-.54,1.31Z"/>
              <path d="m210.01,178.66c-3.88-2.34-7.96-4.42-12.12-6.2-3.12-1.33-6.47-2.54-9.83-2.35l-.08-1.42c.07,0,.15,0,.22-.01,3.57-.14,7.03,1.1,10.25,2.48,4.22,1.8,8.36,3.92,12.29,6.29l-.73,1.22Z"/>
              <path d="m208.39,168.05c-6.98-3.14-15.12-3.59-22.3-3.98l.08-1.42c7.31.4,15.59.86,22.81,4.1l-.58,1.3Z"/>
              <path d="m214.37,158.13c-1.7-.69-3.63-1.19-5.93-1.55-7.62-1.17-15.43-.17-22.98.8l-.18-1.41c7.65-.98,15.55-2,23.37-.79,2.4.37,4.45.9,6.24,1.63l-.53,1.32Z"/>
              <path d="m226.81,187.6c-.36-1.26-.89-2.42-1.39-3.54l-.3-.66c-2.73-6.15-4.6-13.08-5.41-20.05l-.94.11c.82,7.06,2.72,14.09,5.49,20.32l.3.67c.49,1.09,1,2.22,1.34,3.41.06.2.06.28.06.3.03-.11-.24.17-.25.26-.05.29.33.46.6.45.02,0,.03,0,.05,0,.25-.03.46-.22.52-.49.06-.26,0-.53-.07-.78Z"/>
              <path d="m207.88,206.55l-.47-.82c6.27-3.58,13.38-5.96,20.54-6.87l.12.94c-7.04.9-14.03,3.23-20.19,6.75Z"/>
              <rect x="220.34" y="188.67" width=".95" height="6.41" transform="translate(-53.14 294.45) rotate(-61.52)"/>
              <path d="m173.27,138.63l-.56-1.3c2.97-1.28,5.02-4.11,6.78-6.97,2.34-3.79,4.4-7.79,6.14-11.9l1.31.55c-1.76,4.17-3.86,8.24-6.24,12.09-1.89,3.06-4.1,6.1-7.43,7.53Z"/>
              <path d="m170.17,133.99l-1-1.01c2.81-2.76,5.04-6.53,6.63-11.2,1.43-4.2,2.22-8.68,2.98-13l1.4.25c-.77,4.38-1.57,8.91-3.04,13.21-1.67,4.88-4.01,8.83-6.98,11.75Z"/>
              <path d="m165.5,129.51l-1.34-.46c1.92-5.57,3.47-11.32,4.62-17.1.62-3.08,1.16-6.38.94-9.61-.05-.7-.13-1.42-.21-2.11-.12-1.03-.25-2.09-.26-3.16l1.42-.02c.01,1,.13,1.98.25,3.01.08.71.17,1.45.22,2.18.23,3.4-.33,6.8-.96,9.98-1.17,5.84-2.74,11.65-4.67,17.28Z"/>
              <path d="m159.84,124.18l-1.39-.29c1.01-4.9,1.46-9.92,1.32-14.91l1.42-.04c.14,5.11-.31,10.24-1.35,15.24Z"/>
              <path d="m154.37,127.07c-1.68-3.25-1.97-7-2.03-10.57-.08-4.59.16-9.23.72-13.79l1.41.17c-.55,4.49-.79,9.07-.71,13.59.06,3.39.32,6.95,1.87,9.94l-1.26.65Z"/>
              <path d="m149.6,131.19c-2.62-6.83-5.58-14.58-5.57-22.49h1.42c-.01,7.65,2.77,14.94,5.47,21.99l-1.33.51Z"/>
              <path d="m144.6,135.61c-4.02-6.58-8.17-13.38-10.27-21.01-.64-2.34-.99-4.43-1.06-6.37l1.42-.05c.06,1.83.4,3.81,1.01,6.04,2.04,7.44,6.14,14.16,10.11,20.65l-1.21.74Z"/>
              <path d="m138.33,100.34l-.74-.59c3.53-4.41,7.67-6.89,10.99-8.87,1.23-.74,2.39-1.43,3.39-2.14,1.44-1.02,2.6-2.05,3.53-2.87.7-.61,1.3-1.15,1.84-1.53,0,0,0,0,0,0,.03-.02.08-.06.14-.11.51-.4.73-.54.95-.57l.38-.04.14.36c.13.39-.13.55-.77.94-.12.07-.23.14-.28.18,0,0-.01,0-.02.01-.5.35-1.09.87-1.76,1.47-.95.84-2.14,1.89-3.61,2.94-1.03.73-2.21,1.44-3.45,2.18-3.43,2.05-7.32,4.37-10.74,8.65Z"/>
              <path d="m183.54,97.74c-5.84-4.26-10.91-9.77-14.67-15.94l.81-.49c3.7,6.06,8.69,11.48,14.42,15.67l-.56.76Z"/>
              <rect x="161.22" y="88.37" width="6.41" height=".95" transform="translate(49.66 236.36) rotate(-80.5)"/>
              <path d="m130.97,202.91l-.99-1.02c3.2-3.1,6.19-6.46,8.88-10.01,2.04-2.68,3.94-5.61,4.06-8.84l1.42.05c-.14,3.63-2.17,6.78-4.35,9.65-2.74,3.61-5.78,7.03-9.03,10.17Z"/>
              <path d="m119.85,199.5l-.73-1.22c3.76-2.27,7.65-4.61,11.05-7.46,3.78-3.17,6.49-6.61,8.06-10.22l1.3.57c-1.65,3.82-4.5,7.43-8.45,10.74-3.49,2.92-7.43,5.3-11.23,7.59Z"/>
              <path d="m105.25,194.93l-.49-1.33c1-.37,2.04-.64,3.04-.89.68-.17,1.38-.35,2.05-.56,3.09-.96,5.97-2.65,8.63-4.34,4.98-3.16,9.78-6.68,14.28-10.48l.92,1.09c-4.55,3.83-9.41,7.4-14.44,10.59-2.74,1.74-5.72,3.48-8.97,4.49-.7.22-1.42.4-2.12.58-1.01.26-1.96.51-2.9.85Z"/>
              <path d="m112.94,181.81l-.47-1.34c4.71-1.67,9.24-3.89,13.44-6.6l.77,1.19c-4.29,2.77-8.92,5.04-13.73,6.75Z"/>
              <path d="m104.87,177.73l-.67-1.25c4.05-2.16,8.29-4.06,12.6-5.64,3.35-1.23,6.95-2.31,10.59-1.92l-.15,1.41c-3.34-.36-6.76.67-9.94,1.84-4.25,1.56-8.43,3.43-12.42,5.56Z"/>
              <path d="m107.04,167.22l-.51-1.32c7.38-2.87,15.67-2.89,22.99-2.91v1.42c-7.19.02-15.34.05-22.47,2.82Z"/>
              <path d="m131.15,158.81c-7.49-1.36-15.23-2.76-22.9-1.99-2.31.23-4.27.64-6,1.24l-.46-1.34c1.84-.63,3.9-1.06,6.32-1.31,7.88-.79,15.72.63,23.3,2.01l-.25,1.4Z"/>
              <rect x="92.36" y="191.23" width="6.41" height=".95" transform="translate(-84.27 75.34) rotate(-30.6)"/>
            </g>
          </g>
          <path d="m164.29,201.56c4.24,6.59,10.84,13.12,20.65,13.74,1.76.11,3.52.17,5.23.17,13.57,0,21.94-3.65,28.07-6.32,2.91-1.27,5.21-2.27,7.28-2.55,2.8-.38,8.42-2.23,9.66-6.54.94-3.27-.2-7.46-1.07-8.79h0c-1.06-1.6-4.72-10.88-6.71-22.27-1-5.72-5.7-16.72-17-21.64-1.63-.71-3.95-1.47-6.68-2.1.51-.24,1.02-.45,1.54-.72,15.19-7.77,24.91-19.71,25.32-20.22l1.7-2.14-2.74.13c-.64.03-15.93.88-31.22,8.69-1.21.62-2.31,1.3-3.45,1.97,2.81-5.48,4.33-12.01,2.14-19.01-5.04-16.01-12.38-23.43-17.74-28.85-2.23-2.25-3.99-4.03-5-5.87-1.27-2.31-4.8-6.68-9.04-6.68-.18,0-.36,0-.54.03-3.39.3-6.89,2.87-7.81,4.17-1.12,1.57-8.46,8.33-18.36,14.28-4.98,2.99-13.54,11.34-14.06,23.65-.18,4.22.72,11.43,3.32,18.34-1.79-1.4-3.66-2.78-5.71-4.08-14.62-9.26-30.13-11.51-30.29-11.53l-2.71-.38,1.5,2.29c.08.13,8.7,13.18,23.36,22.47,1.18.75,2.36,1.44,3.54,2.1-5.19.62-9.81,1.91-12.68,3.16-11.3,4.92-16,15.92-17,21.64-1.99,11.39-5.65,20.66-6.7,22.27-.88,1.33-2.02,5.52-1.07,8.79,1.24,4.31,6.86,6.17,9.66,6.54,2.1.29,4.4,1.29,7.33,2.57,6.1,2.66,14.46,6.3,28.02,6.3,1.66,0,3.42-.06,5.23-.17,8.69-.55,14.87-5.75,19.12-11.51-.13,1.3-.28,2.59-.34,3.93-.76,17.37,5.03,31.86,5.09,32.01l1.02,2.54,1.24-2.44c.29-.58,7.1-14.37,7.84-31.44.01-.26,0-.51.02-.77m35.21-74.07c10.97-5.61,22.13-7.52,27.14-8.13-3.43,3.7-11.5,11.63-22.48,17.24-1.54.79-3.08,1.48-4.6,2.13-4.03-.62-8.53-.88-12.92-.35,1.75-1.76,3.69-3.97,5.48-6.51,2.28-1.53,4.74-3.02,7.39-4.38Zm-71.69-18.4c.46-10.91,8.05-18.3,12.46-20.96,10.47-6.29,18.08-13.42,19.34-15.19.46-.64,3.2-2.6,5.41-2.79,2.54-.24,5.3,2.97,6.39,4.95,1.23,2.25,3.24,4.27,5.57,6.63,5.11,5.17,12.11,12.25,16.91,27.49,2.7,8.58-1.17,16.54-5.66,22.33-.09.07-.2.13-.29.2-2.53,3.27-5.26,5.87-7.15,7.49-.05.04-.15.12-.21.17-.19.15-.4.31-.66.51-1.5.79-2.92,1.58-4.28,2.34l-.16.09c-.9.5-1.77.99-2.62,1.45.07-.17.13-.34.17-.48,1.18-4.65-2.78-9.88-5.32-12.24-2.38-2.2-4.33-3.83-5.81-5.05-1.42-1.18-2.77-2.29-3.01-2.81l-1.38-2.97-1.57,2.87c-.53.97-2.18,2.32-3.94,3.76-1.87,1.52-3.98,3.25-5.7,5.27-2.93,3.46-3.11,7.12-2.66,10.62-2.35-2.01-5.82-5.12-7.66-7.39-6.09-7.52-8.45-19.91-8.18-26.31Zm19.69,36.5h-.03c-1.33-4.72-1.49-7.93,1.35-11.28,1.52-1.79,3.51-3.42,5.29-4.87,1.29-1.05,2.41-1.97,3.31-2.89.63.6,1.42,1.25,2.39,2.05l.26-.31-.17.39c1.38,1.14,3.27,2.71,5.56,4.84,2.17,2.02,5.31,6.27,4.48,9.07-.09.3-.48,1.2-1.3,2.84l-.84.47c-.44.22-1.2.91-.96,1.95.2.85,1.26,1.1,1.61,1.16,5.14.38,7.11,1.65,9.57,6.17,1.12,2.06,1.93,4.52,2.64,6.69.5,1.51.96,2.95,1.5,4.13-.78.37-1.68.88-2.71,1.45l-.1.06c-1.68.94-3.76,2.1-6.58,3.48-2.48,1.21-5.87,2.86-10.26.7l-.09-.05c-.67-.67-1.89-2.15-3.27-3.99h0c-.06-.08-.12-.14-.18-.18-.33-.53-.74-.69-1.03-.77-.68-.17-1.37.08-1.8.63-1.38,1.82-2.59,3.31-3.27,3.99l-.07.04c-4.41,2.18-7.81.52-10.28-.69-2.87-1.4-4.95-2.57-6.61-3.5-1.09-.61-1.99-1.11-2.77-1.49.54-1.18,1.01-2.62,1.51-4.16.71-2.15,1.51-4.6,2.63-6.65,2.46-4.52,4.43-5.79,9.52-6.17.25,0,1.54-.05,1.86-.98.34-.99-.75-1.86-1.13-2.12Zm-32.2-11.64c-10.42-6.6-17.73-15.23-20.8-19.24,4.93,1.07,15.86,3.99,26.28,10.59,3.5,2.22,6.61,4.66,9.37,7.08.96,1.8,2.01,3.54,3.27,5.09.54.67,1.14,1.35,1.82,2.06-.2-.07-.39-.13-.58-.19-3.93-1.27-8.24-1.67-12.4-1.56-2.3-1.12-4.63-2.37-6.96-3.84Zm14.79,72c-15.98,1.01-25.08-2.96-31.75-5.88-3.02-1.32-5.63-2.46-8.17-2.8-2.47-.33-6.26-1.85-6.93-4.18-.62-2.13.22-5.4.65-6.05,1.2-1.82,5.1-11.48,7.2-23.52.88-5.07,5.05-14.81,15.06-19.17,3.45-1.5,10.1-3.26,17.47-3.26,3.77,0,7.14.47,10.02,1.4,2.68.87,5.49,2.28,8.17,3.73-3.18,1.02-5.27,3.03-7.46,7.05-1.27,2.33-2.12,4.93-2.87,7.24-.7,2.14-1.36,4.17-2.08,5.01l-2.11,2.5,3.26.22c.57.04,2.11.9,3.74,1.82l.14.08c1.6.9,3.81,2.12,6.64,3.5,2.95,1.44,7.4,3.62,13.34.6.32-.16.35-.18.4-.22l.12-.11c.27-.24.58-.58.96-1,0,.05.02.11.03.17-.11.52-.25,1.2-.36,1.96-.09.61-1.87,7.04-2.33,8.35-6.9,19.47-18.47,22.26-23.13,22.56Zm31.7-3.73c-.54,12.31-4.38,22.96-6.32,27.62-1.53-4.81-4.43-15.74-3.9-28.06h0c.54-12.32,4.38-22.97,6.32-27.63,1.53,4.81,4.44,15.74,3.9,28.06Zm70.24-8.81c-.67,2.33-4.46,3.85-6.93,4.18-2.54.34-5.15,1.48-8.19,2.81-6.66,2.9-15.76,6.86-31.74,5.87-4.36-.28-14.81-2.76-21.78-19.1-.02-.16-.95-2.59-1.36-3.75-.48-1.36-2.25-7.77-2.35-8.43-.1-.69-.23-1.27-.33-1.78.39.46.71.82,1.03,1.06.11.08.47.29.49.3,5.93,3.01,10.39.84,13.35-.61,2.92-1.42,5.21-2.71,6.77-3.58,1.63-.91,3.17-1.77,3.74-1.81l3.27-.22-2.11-2.5c-.71-.84-1.37-2.86-2.08-5.02-.75-2.3-1.6-4.9-2.87-7.23-2.06-3.78-4.08-5.8-6.98-6.87,2.52-1.14,5.85-2.82,7.18-3.6l1.22-.54c2.72-.79,5.85-1.18,9.31-1.18,7.37,0,14.02,1.75,17.46,3.26,10.01,4.36,14.17,14.1,15.06,19.17,2.1,12.04,6,21.7,7.2,23.52.43.66,1.27,3.93.65,6.06Z"/>
        </g>
      </g>
    </g>
  </g>
</svg>