<?xml version="1.0" encoding="UTF-8"?>
<svg xmlns="http://www.w3.org/2000/svg" viewBox="0 0 479.63 428.21">
  <g>
    <g>
      <g>
        <g>
          <path d="m126.89,348.81v-29.32h7.98c8.48,0,11.63,3.02,11.63,8.11,0,4.2-2.18,6.59-6.17,7.64l7.9,13.57h-5.75l-6.97-12.89h-3.53v12.89h-5.08Zm7.6-15.04c4.66,0,6.68-1.85,6.68-6.05s-1.89-6.05-6.59-6.05h-2.6v12.1h2.52Z"/>
          <path d="m174.1,348.81c2.77-9.79,6.09-19.53,10.21-29.32h5.38c4.03,9.83,7.35,19.57,10.08,29.32h-5.29c-.76-2.73-1.51-5.5-2.35-8.27h-11.3c-.59,2.77-1.09,5.54-1.51,8.27h-5.21Zm7.14-10.37h10.25c-1.76-5.59-3.7-11.17-5.84-16.8-1.76,5.63-3.19,11.21-4.41,16.8Z"/>
          <path d="m227.93,348.81v-29.32h6.51l13.78,24.49c-.17-8.02-1.01-16.38-1.85-24.49h4.24v29.32h-4.96l-15.41-27.13c.55,9.2,1.43,18.52,2.35,27.13h-4.66Z"/>
          <path d="m301.22,346.59c-2.1,1.64-4.87,2.73-8.23,2.73-7.9,0-12.68-5.46-12.68-14.95s4.87-15.37,13.1-15.37c2.81,0,5.25.67,7.52,1.97l-.71,4.45c-2.06-2.6-4.2-4.16-6.68-4.16-5.29,0-7.85,5.12-7.85,12.89,0,8.36,2.77,12.81,7.85,12.81,2.69,0,5.12-1.3,7.06-2.98l.63,2.6Z"/>
          <path d="m347.37,348.81v-14.2h-12.73v14.2h-5.08v-29.32h5.08v12.89h12.73v-12.89h5.08v29.32h-5.08Z"/>
        </g>
        <g>
          <path d="m73.59,393.51c-3.17-1.35-4.75-2.05-7.89-3.47.06-.13.09-.19.15-.32.49.09.74.13,1.23.22,1.15.21,1.36.14,2.24-1.86,1.72-3.86,2.57-5.79,4.29-9.66.89-1.99.82-2.24-.08-2.89-.39-.28-.58-.43-.96-.71.06-.13.09-.19.15-.32,1.56.68,5.4,2.21,8.01,3.32,4.87,2.08,8.7,5.67,6.37,11.55-2.19,5.51-8.55,6.25-13.5,4.13Zm6.02-15.03c-.93-.4-2.08-.81-2.6-1.01-1.99,4.57-2.99,6.85-4.99,11.42-.95,2.18-.69,2.55.35,3,.32.14.49.21.81.35,4.96,2.13,8.92.98,10.84-3.74,1.87-4.6.3-8-4.41-10.02Z"/>
          <path d="m90.58,400.34c.05-.13.08-.2.13-.33.49.06.74.08,1.24.14,1.15.13,1.36.05,2.12-2,1.47-3.96,2.2-5.94,3.67-9.91.76-2.04.66-2.24-.26-2.88-.39-.28-.59-.42-.98-.69.05-.13.08-.2.13-.33,4.66,1.76,7,2.6,11.7,4.21-.44,1.27-.66,1.91-1.09,3.19-.16-.06-.24-.08-.4-.14.03-.47.04-.71.07-1.18.06-.97-.41-1.39-3.2-2.38-1.06-.38-1.6-.57-2.66-.96-.89,2.45-1.33,3.67-2.22,6.12,1.07.39,1.6.58,2.68.96,2.32.83,2.71.87,3.25.12.23-.32.35-.47.58-.79.15.05.23.08.38.13-.65,1.88-.97,2.82-1.62,4.69-.15-.05-.23-.08-.38-.13.02-.44.03-.67.04-1.11.04-.93-.27-1.11-2.6-1.93-1.07-.38-1.61-.57-2.68-.96-.66,1.83-1,2.74-1.66,4.57-.81,2.24-.53,2.59.53,2.97.79.29,1.19.43,1.98.71,2.66.94,3.54.81,4.39,0,.38-.36.57-.55.94-.91.16.1.24.15.4.25-.77,1.24-1.15,1.86-1.92,3.09-5.04-1.72-7.55-2.63-12.55-4.51Z"/>
          <path d="m116.11,409.49c-1.33-.41-2.93-1.25-3.92-2.13.2-1.45.3-2.17.5-3.62.2.01.3.02.5.03.07.6.11.9.18,1.49.16,1.22,1.08,2.55,3.3,3.23,2.04.62,4.25.14,4.88-1.97.49-1.68-.67-3.05-1.88-4.08-.59-.51-.88-.76-1.46-1.27-1.62-1.4-2.95-3.29-2.26-5.46.9-2.83,4.07-3.71,6.83-2.87.35.11,1.1.36,1.86.74.97.49,1.32.71,1.56.36.07-.1.11-.16.19-.26.16.05.24.07.4.12-.52,1.79-.78,2.69-1.3,4.48-.18-.05-.27-.08-.46-.13.02-.55.03-.83.05-1.39.04-.99-.61-2.29-2.8-2.95-1.66-.5-3.49-.01-4.02,1.68-.45,1.43.7,2.77,1.98,3.87.57.49.86.74,1.44,1.23,1.6,1.35,3.11,3.19,2.42,5.55-1.01,3.51-4.73,4.36-7.98,3.36Z"/>
          <path d="m130.11,413.1c.04-.14.06-.21.09-.34.49,0,.74.01,1.24.02,1.15.02,1.35-.09,1.9-2.2,1.08-4.09,1.62-6.13,2.69-10.22.56-2.11.44-2.29-.53-2.84-.41-.24-.62-.35-1.03-.59.04-.14.06-.21.09-.34,4.77,1.29,7.17,1.89,11.96,3.03-.31,1.31-.47,1.97-.78,3.28-.16-.04-.25-.06-.41-.1-.02-.47-.03-.71-.04-1.18-.04-.97-.54-1.34-3.39-2.05-1.09-.27-1.63-.41-2.72-.69-.65,2.52-.97,3.78-1.62,6.31,1.09.28,1.64.42,2.74.69,2.38.59,2.76.6,3.23-.2.2-.34.3-.51.5-.84.15.04.23.06.39.09-.46,1.93-.69,2.9-1.16,4.83-.16-.04-.23-.06-.39-.09-.03-.44-.04-.67-.06-1.11-.05-.92-.37-1.07-2.75-1.67-1.1-.27-1.65-.41-2.74-.69-.48,1.89-.73,2.83-1.21,4.71-.59,2.31-.28,2.62.8,2.9.81.21,1.22.31,2.03.51,2.72.67,3.58.45,4.35-.43.34-.4.51-.6.85-1,.17.08.25.12.42.2-.64,1.31-.96,1.96-1.61,3.27-5.15-1.22-7.72-1.87-12.84-3.25Z"/>
          <path d="m167.24,421.9c-3.64-.64-4.79-3.29-6.17-6.47-.83-1.92-1.81-3.84-2.32-4.69.27.05.41.08.68.14,2.22.44,4.54.03,5.05-2.68.54-2.89-1.19-4.11-3.68-4.61-.28-.06-.8-.13-1.19-.16-1.03,5.08-1.54,7.61-2.57,12.69-.43,2.14-.3,2.32.73,2.81.44.21.67.32,1.11.53-.03.14-.04.21-.07.35-3.03-.6-4.54-.91-7.56-1.56.03-.14.04-.21.07-.35.49-.02.74-.03,1.23-.05,1.15-.04,1.34-.16,1.78-2.29.86-4.13,1.3-6.19,2.16-10.32.45-2.13.33-2.34-.67-2.81-.43-.2-.64-.31-1.07-.51.03-.14.04-.21.07-.35,1.29.23,3.94.66,7.09,1.28,2.97.59,6.13,1.96,5.51,5.43-.5,2.74-3.73,3.46-5.33,3.59.42,1.04,1.37,3.08,2.45,4.92,1.31,2.25,2.71,4.28,4.4,4.57.19.03.38.04.6.03.02.16.03.24.04.39-.7.24-1.67.25-2.37.13Z"/>
          <path d="m176.9,422.94c.02-.14.03-.21.05-.35.6-.03.9-.05,1.49-.08,1.13-.06,1.32-.24,1.64-2.4.73-5.04,1.1-7.55,1.84-12.59-.73-.11-1.1-.16-1.83-.27-2.89-.43-3.58-.07-3.94.85-.22.58-.33.87-.55,1.45-.18-.03-.26-.04-.44-.07.3-1.87.45-2.81.76-4.68.16.03.25.04.41.07.02.13.03.19.05.32.07.4.34.5,2.2.78,3.85.6,5.78.87,9.64,1.37,1.86.24,2.15.22,2.32-.14.06-.12.08-.17.14-.29.17.02.25.03.41.05-.23,1.88-.35,2.82-.58,4.7-.18-.02-.27-.03-.44-.05-.05-.62-.07-.93-.12-1.55-.09-.98-.65-1.53-3.54-1.92-.73-.1-1.1-.15-1.84-.25-.7,5.04-1.05,7.56-1.75,12.6-.3,2.16-.17,2.38.9,2.76.56.2.84.3,1.41.5-.02.14-.03.21-.05.35-3.27-.43-4.9-.67-8.16-1.16Z"/>
          <path d="m220.08,427.29c0-.14.01-.21.02-.35.48-.1.72-.15,1.2-.25,1.12-.23,1.29-.37,1.38-2.55.09-2.11.14-3.16.23-5.27-3.76-.16-5.64-.27-9.4-.52-.14,2.1-.21,3.16-.35,5.26-.14,2.17,0,2.34,1.09,2.69.47.15.7.23,1.17.38,0,.14-.01.21-.02.35-3.07-.19-4.6-.29-7.67-.53l.03-.35c.48-.08.73-.13,1.21-.21,1.13-.19,1.3-.34,1.46-2.51.31-4.22.46-6.32.77-10.54.16-2.17.01-2.34-1.03-2.69-.45-.16-.67-.23-1.12-.39.01-.14.02-.21.03-.35,2.94.23,4.41.33,7.36.51,0,.14-.01.21-.02.35-.46.09-.7.14-1.16.23-1.08.21-1.25.35-1.39,2.52-.11,1.68-.17,2.52-.28,4.2,3.75.25,5.62.35,9.37.52.07-1.68.11-2.52.18-4.2.1-2.18-.06-2.33-1.11-2.66-.45-.14-.68-.21-1.13-.36,0-.14.01-.21.02-.35,2.95.15,4.42.21,7.37.3,0,.14,0,.21-.01.35-.46.11-.69.16-1.15.27-1.08.24-1.24.39-1.32,2.56-.16,4.22-.24,6.33-.39,10.56-.08,2.18.07,2.34,1.17,2.65.47.14.71.21,1.18.34,0,.14,0,.21-.01.35-3.07-.1-4.61-.16-7.68-.31Z"/>
          <path d="m235.05,419.25c.08-5.62,4.67-9,9.16-9.04,4.82-.04,9.13,2.62,9.32,8.9.15,5.17-4.07,9.05-9.18,9.09-5.52.04-9.38-3.07-9.29-8.95Zm15.37-.06c-.13-5.83-3.25-8.01-6.24-7.99-2.81.02-6.02,2.13-6.06,8.08-.04,5.75,3.02,7.93,6.21,7.9s6.22-2.25,6.09-8Z"/>
          <path d="m276.87,426.31c-.01-.14-.02-.21-.03-.35.46-.16.7-.24,1.16-.4,1.08-.37,1.28-.55,1.03-2.71-.44-3.84-.66-5.76-1.1-9.59-.11-.91-.17-1.59-.23-2.29-.02,0-.03,0-.05,0-.14.5-.4,1.41-.67,2.27-1.67,5.37-2.54,8.06-4.35,13.42-.41.03-.62.05-1.03.07-2.57-4.93-3.82-7.4-6.25-12.36-.36-.77-.77-1.58-.99-2.15-.02,0-.03,0-.05,0,.04.23.09,1.16.13,2.3.09,2.33.13,3.49.22,5.82.19,5.29.52,5.84,1.69,6.04.54.1.8.15,1.34.25,0,.14.01.21.02.35-2.65.17-3.97.24-6.62.36,0-.14,0-.21-.02-.35.47-.14.7-.22,1.17-.36,1.04-.33,1.14-.87,1.01-4.95-.1-3.31-.15-4.97-.25-8.28-.06-2.15-.54-2.3-1.62-2.53-.49-.1-.74-.15-1.23-.25,0-.14,0-.21-.02-.35,2.37-.11,3.55-.17,5.91-.32,2.07,4.36,3.12,6.54,5.29,10.87.32.66.97,1.91,1.07,2.51.02,0,.03,0,.05,0,.04-.51.54-1.82.82-2.68,1.53-4.6,2.27-6.9,3.7-11.52,2.19-.19,3.29-.3,5.48-.52.01.14.02.21.04.35-.44.17-.66.25-1.11.42-1.04.38-1.23.55-.97,2.72.51,4.2.76,6.3,1.27,10.49.26,2.16.38,2.31,1.51,2.47.49.07.73.11,1.21.18l.04.35c-3.04.31-4.56.45-7.6.71Z"/>
          <path d="m291.64,424.81c-.02-.14-.03-.21-.04-.35.46-.18.69-.27,1.15-.44,1.07-.41,1.21-.58.94-2.75-.52-4.19-.79-6.29-1.31-10.48-.27-2.16-.45-2.29-1.54-2.44-.47-.07-.7-.1-1.17-.16-.02-.14-.03-.21-.04-.35,4.87-.58,7.31-.91,12.17-1.64.2,1.33.3,2,.5,3.33-.17.02-.25.04-.42.06-.19-.43-.29-.65-.48-1.08-.4-.89-1-1.05-3.89-.64-1.11.15-1.66.23-2.77.37.34,2.58.51,3.87.85,6.46,1.11-.15,1.67-.22,2.78-.38,2.41-.33,2.77-.47,2.9-1.39.06-.39.09-.58.15-.97.16-.02.24-.03.39-.06.29,1.97.44,2.95.73,4.91-.16.02-.24.04-.4.06-.19-.4-.28-.6-.47-1.01-.39-.84-.74-.86-3.16-.52-1.12.15-1.67.23-2.79.38.25,1.93.38,2.89.64,4.82.31,2.36.72,2.54,1.82,2.39.83-.11,1.24-.17,2.06-.28,2.76-.39,3.47-.91,3.85-2.02.17-.5.25-.74.41-1.24.19.01.28.02.47.03-.1,1.45-.16,2.18-.27,3.63-5.21.79-7.82,1.14-13.05,1.76Z"/>
          <path d="m318.23,421.2c-1.36.25-3.16.24-4.43-.09-.49-1.38-.74-2.06-1.22-3.44.18-.08.27-.12.46-.21.34.5.51.75.84,1.24.7,1.01,2.12,1.77,4.39,1.35,2.08-.38,3.81-1.83,3.39-4-.33-1.72-1.99-2.4-3.53-2.76-.75-.18-1.12-.27-1.87-.45-2.07-.5-4.11-1.56-4.5-3.81-.51-2.92,1.88-5.16,4.7-5.69.36-.07,1.13-.19,1.98-.2,1.08,0,1.49.02,1.54-.4.02-.13.03-.19.04-.32.16-.03.25-.05.41-.08.36,1.83.54,2.74.9,4.57-.19.04-.28.06-.47.09-.24-.5-.36-.75-.59-1.25-.42-.9-1.59-1.75-3.83-1.33-1.69.32-3.08,1.59-2.77,3.34.26,1.47,1.88,2.14,3.52,2.53.73.17,1.1.26,1.83.43,2.03.46,4.2,1.4,4.69,3.81.72,3.58-2.18,6.04-5.49,6.65Z"/>
          <path d="m335.47,417.25c-.03-.14-.05-.21-.08-.35.55-.25.82-.37,1.36-.62,1.03-.47,1.15-.71.65-2.83-1.16-4.95-1.74-7.43-2.89-12.39-.72.17-1.09.25-1.81.42-2.86.65-3.37,1.25-3.37,2.23,0,.62.01.93.02,1.55-.18.04-.26.06-.44.1-.4-1.85-.6-2.78-1.01-4.63.16-.04.24-.05.41-.09.07.11.1.16.17.27.21.34.5.34,2.34-.08,3.81-.86,5.71-1.31,9.51-2.25,1.83-.46,2.09-.58,2.13-.98.01-.13.02-.19.03-.32.16-.04.24-.06.4-.1.47,1.84.71,2.75,1.18,4.59-.17.04-.26.07-.43.11-.27-.56-.41-.84-.68-1.39-.44-.88-1.17-1.18-4.02-.48-.72.18-1.08.27-1.81.44,1.19,4.95,1.78,7.42,2.97,12.37.51,2.12.72,2.28,1.85,2.24.6-.02.9-.03,1.5-.05.03.14.05.21.09.34-3.21.8-4.83,1.18-8.05,1.91Z"/>
          <path d="m353.73,412.68c-.04-.14-.06-.21-.09-.34.43-.24.65-.37,1.07-.61,1-.57,1.12-.76.53-2.86-1.14-4.07-1.71-6.1-2.85-10.17-.59-2.1-.78-2.2-1.89-2.18-.48,0-.72,0-1.19.01-.04-.14-.06-.21-.09-.34,4.77-1.31,7.14-1.99,11.88-3.45.4,1.29.59,1.93.99,3.22-.16.05-.24.07-.4.12-.25-.4-.38-.6-.64-1-.53-.82-1.15-.88-3.97-.05-1.08.32-1.62.47-2.7.79.72,2.5,1.08,3.76,1.8,6.26,1.09-.31,1.63-.47,2.72-.79,2.36-.69,2.69-.88,2.69-1.81,0-.39,0-.59,0-.98.15-.05.23-.07.38-.12.58,1.9.87,2.85,1.45,4.75-.15.05-.23.07-.39.12-.25-.37-.37-.55-.62-.92-.51-.77-.87-.74-3.23-.04-1.09.32-1.63.48-2.72.79.54,1.87.81,2.81,1.34,4.68.66,2.29,1.09,2.4,2.16,2.09.81-.23,1.21-.35,2.01-.59,2.69-.8,3.33-1.42,3.54-2.58.09-.52.14-.77.23-1.29.19-.02.28-.02.47-.04.11,1.45.16,2.18.27,3.63-5.08,1.56-7.63,2.3-12.74,3.7Z"/>
          <path d="m385.16,402.75c-.05-.13-.07-.2-.12-.33.41-.28.62-.42,1.03-.7.96-.64,1.11-1.02-.35-2.65-.82-.93-1.24-1.4-2.06-2.33-2.53.91-3.8,1.36-6.35,2.23-.05.72-.07,1.09-.13,1.81-.23,3.35.09,3.66,1.36,3.58.47-.03.71-.05,1.19-.08.05.13.07.2.12.34-2.41.83-3.61,1.23-6.02,2.02-.04-.13-.07-.2-.11-.34.26-.19.39-.29.65-.48.9-.67,1.03-1.01,1.31-3.83.5-5.09.72-7.63,1.11-12.7.07-.91-.02-1.09-.58-1.65,0-.05,0-.07.02-.11.84-.3,1.27-.44,2.11-.74,4.01,4.54,6.05,6.79,10.2,11.25,1.55,1.67,1.88,1.76,3.01,1.71.32-.01.48-.02.81-.04.05.13.08.2.13.33-2.92,1.11-4.38,1.65-7.32,2.7Zm-5.87-11.06c-.68-.81-1.24-1.52-1.43-1.81-.02,0-.03.01-.05.02.03.39,0,1.34-.06,2.33-.13,2.24-.2,3.36-.36,5.59,2.21-.76,3.32-1.15,5.52-1.94-1.46-1.67-2.19-2.51-3.63-4.19Z"/>
          <path d="m406.47,394.45c-3.17,1.33-4.76,1.99-7.96,3.25-.05-.13-.08-.2-.13-.33.4-.29.61-.44,1.01-.73.94-.68,1.04-.88.22-2.9-1.58-3.92-2.37-5.88-3.96-9.8-.82-2.02-1.04-2.15-2.13-1.96-.47.08-.71.12-1.18.2l-.13-.33c1.56-.65,5.33-2.34,7.94-3.44,4.88-2.06,10.14-2.33,12.75,3.45,2.44,5.4-1.48,10.5-6.44,12.59Zm-6.62-14.78c-.93.39-2.03.93-2.53,1.16,1.9,4.61,2.85,6.92,4.75,11.53.91,2.2,1.35,2.27,2.39,1.83.33-.14.49-.2.81-.34,4.97-2.08,6.92-5.73,4.86-10.39-2.01-4.54-5.55-5.78-10.27-3.79Z"/>
        </g>
      </g>
      <g>
        <g>
          <path d="m239.82,1.37c17.63,0,22.87,8.7,27.49,16.37,3.72,6.17,7.23,12,16.23,12,3.02,0,6.48-.66,10.55-2-5.71,17.31,1.93,21.92,10,26.78,7.67,4.62,16.37,9.86,16.37,27.49s-8.7,22.87-16.37,27.49c-8.07,4.86-15.71,9.47-10,26.78-4.06-1.35-7.53-2-10.55-2-9,0-12.51,5.83-16.23,12-4.62,7.67-9.86,16.37-27.49,16.37s-22.87-8.7-27.49-16.37c-3.72-6.17-7.23-12-16.23-12-3.02,0-6.48.66-10.55,2,5.71-17.31-1.93-21.92-10-26.78-7.67-4.62-16.37-9.86-16.37-27.49s8.7-22.87,16.37-27.49c8.07-4.86,15.71-9.47,10-26.78,4.06,1.35,7.53,2,10.55,2,9,0,12.52-5.83,16.24-12.01,4.62-7.67,9.86-16.37,27.49-16.37m0-1.2c-32.38,0-24.58,28.37-43.72,28.37-3.27,0-7.34-.83-12.52-2.77,13.31,35.51-25.6,18.32-25.6,56.24s38.91,20.74,25.6,56.24c5.19-1.94,9.25-2.77,12.52-2.77,19.14,0,11.34,28.37,43.72,28.37s24.58-28.38,43.72-28.37c3.27,0,7.34.83,12.52,2.77-13.31-35.51,25.6-18.32,25.6-56.24s-38.91-20.74-25.6-56.24c-5.19,1.94-9.25,2.77-12.52,2.77-19.14,0-11.34-28.37-43.72-28.37h0Z"/>
          <path d="m239.82,164.02c-18.4,0-23.85-9.05-28.66-17.03-3.67-6.09-6.83-11.34-15.06-11.34-3.43,0-7.5.9-12.46,2.76l-.35.13.13-.35c6.83-18.23-.31-22.54-8.58-27.52-7.98-4.81-17.03-10.26-17.03-28.66s9.05-23.85,17.03-28.66c8.27-4.98,15.41-9.29,8.58-27.52l-.13-.35.35.13c4.96,1.86,9.04,2.76,12.46,2.76,8.23,0,11.39-5.26,15.06-11.34,4.81-7.98,10.26-17.03,28.66-17.03s23.85,9.05,28.66,17.03c3.67,6.09,6.83,11.34,15.06,11.34,3.43,0,7.5-.9,12.46-2.76l.35-.13-.13.35c-6.83,18.23.31,22.54,8.58,27.52,7.98,4.81,17.03,10.26,17.03,28.66s-9.05,23.85-17.03,28.66c-8.27,4.98-15.41,9.29-8.58,27.52l.13.35-.35-.13c-4.96-1.86-9.03-2.76-12.46-2.76h0c-8.23,0-11.39,5.25-15.06,11.34-4.81,7.98-10.26,17.03-28.66,17.03Zm-43.72-28.71c8.41,0,11.63,5.33,15.35,11.5,4.76,7.91,10.17,16.87,28.38,16.87s23.61-8.96,28.37-16.87c3.72-6.17,6.93-11.5,15.35-11.5h0c3.39,0,7.39.87,12.24,2.66-6.71-18.21.5-22.55,8.85-27.58,7.91-4.76,16.87-10.16,16.87-28.38s-8.96-23.61-16.87-28.38c-8.35-5.03-15.56-9.37-8.85-27.58-4.84,1.79-8.85,2.66-12.24,2.66-8.41,0-11.63-5.33-15.35-11.5-4.76-7.91-10.16-16.87-28.38-16.87s-23.61,8.96-28.37,16.87c-3.72,6.17-6.93,11.5-15.35,11.5-3.39,0-7.39-.87-12.24-2.66,6.71,18.21-.5,22.55-8.85,27.58-7.91,4.76-16.87,10.16-16.87,28.38s8.96,23.61,16.87,28.38c8.35,5.03,15.56,9.38,8.85,27.58,4.84-1.79,8.85-2.66,12.24-2.66Zm43.72,27.5c-17.72,0-22.99-8.74-27.63-16.45-3.69-6.13-7.19-11.92-16.09-11.92-3.01,0-6.44.65-10.5,1.99l-.32.11.1-.32c5.66-17.19-1.91-21.75-9.93-26.58-7.71-4.65-16.45-9.91-16.45-27.63s8.74-22.99,16.45-27.63c8.02-4.83,15.59-9.39,9.93-26.58l-.1-.32.32.11c4.05,1.34,7.48,1.99,10.49,1.99,8.91,0,12.4-5.79,16.09-11.92,4.64-7.71,9.91-16.45,27.63-16.45s22.99,8.74,27.63,16.45c3.7,6.13,7.19,11.92,16.09,11.92,3.01,0,6.44-.65,10.49-1.99l.32-.11-.1.32c-5.66,17.19,1.91,21.75,9.93,26.58,7.71,4.65,16.45,9.91,16.45,27.63s-8.74,22.99-16.45,27.63c-8.02,4.83-15.59,9.39-9.93,26.58l.1.32-.32-.11c-4.05-1.34-7.48-1.99-10.5-1.99-8.91,0-12.4,5.79-16.09,11.92-4.65,7.71-9.91,16.45-27.63,16.45Zm-43.72-28.71c9.09,0,12.63,5.87,16.38,12.09,4.6,7.63,9.81,16.29,27.34,16.29s22.74-8.65,27.34-16.29c3.74-6.22,7.28-12.09,16.38-12.09,2.97,0,6.34.62,10.29,1.91-5.55-17.18,2.09-21.79,10.18-26.66,7.64-4.6,16.29-9.81,16.29-27.34s-8.65-22.74-16.29-27.34c-8.09-4.87-15.73-9.48-10.18-26.66-3.95,1.28-7.32,1.91-10.28,1.91-9.09,0-12.63-5.87-16.38-12.08-4.6-7.64-9.81-16.29-27.35-16.29s-22.74,8.65-27.34,16.29c-3.74,6.22-7.28,12.09-16.38,12.09-2.97,0-6.34-.62-10.28-1.91,5.55,17.19-2.09,21.79-10.18,26.66-7.63,4.6-16.29,9.81-16.29,27.34s8.65,22.74,16.29,27.34c8.09,4.87,15.73,9.48,10.18,26.66,3.95-1.28,7.32-1.91,10.29-1.91Z"/>
        </g>
        <g>
          <path d="m239.82,9.2c13.2,0,16.38,5.28,20.78,12.58,4.02,6.66,9.52,15.79,22.94,15.79.23,0,.47,0,.71,0-.39,12.79,7.57,18.71,15.8,23.66,7.3,4.4,12.58,7.58,12.58,20.78s-5.28,16.38-12.58,20.78c-8.23,4.96-16.19,10.87-15.8,23.66-.24,0-.48,0-.71,0-13.43,0-18.93,9.13-22.94,15.79-4.4,7.3-7.58,12.58-20.78,12.58s-16.38-5.28-20.78-12.58c-4.02-6.66-9.52-15.79-22.94-15.79-.23,0-.47,0-.71,0,.39-12.79-7.57-18.71-15.8-23.66-7.3-4.4-12.58-7.58-12.58-20.78s5.28-16.38,12.58-20.78c8.23-4.96,16.19-10.87,15.8-23.66.24,0,.48,0,.71,0,13.43,0,18.93-9.13,22.94-15.79,4.4-7.3,7.58-12.58,20.78-12.58m0-1.2c-13.88,0-17.38,5.81-21.81,13.16-3.87,6.42-9.16,15.21-21.91,15.21-.65,0-1.31-.02-1.98-.07.94,12.83-6.55,18.72-15.15,23.9-7.35,4.43-13.16,7.93-13.16,21.81s5.81,17.38,13.16,21.81c8.59,5.18,16.09,11.07,15.15,23.9.67-.05,1.33-.07,1.98-.07,12.74,0,18.04,8.79,21.91,15.21,4.43,7.35,7.93,13.16,21.82,13.16s17.38-5.81,21.81-13.16c3.87-6.42,9.16-15.21,21.91-15.21.65,0,1.31.02,1.98.07-.94-12.83,6.55-18.72,15.15-23.9,7.35-4.43,13.16-7.93,13.16-21.81s-5.81-17.38-13.16-21.81c-8.59-5.18-16.09-11.07-15.15-23.9-.67.05-1.33.07-1.98.07h0c-12.74,0-18.04-8.79-21.91-15.21-4.43-7.35-7.93-13.16-21.82-13.16h0Z"/>
          <path d="m239.82,156.19c-13.98,0-17.5-5.85-21.96-13.25-3.85-6.38-9.12-15.13-21.76-15.13-.63,0-1.3.02-1.97.07h-.19s.01-.18.01-.18c.95-12.96-6.92-18.83-15.07-23.74-7.4-4.46-13.24-7.98-13.24-21.96s5.84-17.5,13.24-21.96c8.15-4.91,16.02-10.78,15.07-23.74v-.19s.18.01.18.01c.67.05,1.33.07,1.97.07,12.65,0,17.92-8.75,21.77-15.13,4.46-7.4,7.98-13.24,21.96-13.24s17.5,5.84,21.96,13.24c3.85,6.38,9.12,15.13,21.76,15.13.64,0,1.3-.02,1.97-.07h.19s-.01.18-.01.18c-.95,12.96,6.92,18.83,15.07,23.74,7.4,4.46,13.24,7.98,13.24,21.96s-5.84,17.5-13.24,21.96c-8.15,4.91-16.02,10.78-15.07,23.74v.19s-.18-.01-.18-.01c-.67-.05-1.34-.07-1.97-.07-12.65,0-17.92,8.75-21.77,15.13-4.46,7.4-7.98,13.24-21.96,13.24Zm-43.72-28.71c12.84,0,18.16,8.84,22.05,15.29,4.4,7.31,7.88,13.08,21.67,13.08s17.27-5.77,21.67-13.08c3.89-6.45,9.21-15.29,22.05-15.29.58,0,1.19.02,1.8.06-.88-13.01,7.05-18.92,15.24-23.86,7.31-4.4,13.08-7.88,13.08-21.67s-5.77-17.27-13.08-21.67c-8.2-4.94-16.12-10.85-15.24-23.86-.61.04-1.22.06-1.8.06-12.84,0-18.16-8.84-22.05-15.29-4.4-7.31-7.88-13.08-21.67-13.08s-17.27,5.77-21.67,13.08c-3.89,6.45-9.21,15.29-22.05,15.29-.58,0-1.19-.02-1.8-.06.88,13.01-7.05,18.92-15.24,23.86-7.31,4.4-13.08,7.88-13.08,21.67s5.77,17.27,13.08,21.67c8.2,4.94,16.12,10.85,15.24,23.86.61-.04,1.22-.06,1.8-.06Zm43.72,27.51c-13.3,0-16.5-5.31-20.93-12.66-4-6.63-9.47-15.71-22.79-15.71-.23,0-.47,0-.71,0h-.18s0-.17,0-.17c.39-12.73-7.55-18.59-15.72-23.51-7.35-4.43-12.66-7.63-12.66-20.93s5.31-16.5,12.66-20.93c8.16-4.92,16.1-10.79,15.72-23.51v-.18s.17,0,.17,0c.24,0,.47,0,.71,0,13.33,0,18.8-9.08,22.8-15.71,4.43-7.35,7.63-12.66,20.92-12.66s16.5,5.31,20.93,12.66c3.99,6.63,9.47,15.71,22.8,15.71.23,0,.47,0,.7,0h.18s0,.17,0,.17c-.39,12.73,7.55,18.6,15.72,23.51,7.35,4.43,12.66,7.63,12.66,20.93s-5.31,16.5-12.66,20.93c-8.16,4.92-16.1,10.79-15.72,23.51v.18s-.17,0-.17,0c-.24,0-.47,0-.71,0-13.33,0-18.8,9.08-22.8,15.71-4.43,7.35-7.63,12.66-20.93,12.66Zm-43.72-28.71c13.52,0,19.05,9.17,23.08,15.87,4.37,7.26,7.53,12.5,20.64,12.5s16.27-5.24,20.64-12.5c4.04-6.7,9.56-15.88,23.08-15.88.18,0,.36,0,.54,0-.31-12.79,7.67-18.69,15.88-23.63,7.26-4.37,12.5-7.53,12.5-20.64s-5.24-16.27-12.5-20.64c-8.21-4.95-16.2-10.85-15.88-23.64-.18,0-.36,0-.54,0-13.52,0-19.05-9.17-23.08-15.87-4.37-7.26-7.53-12.5-20.64-12.5s-16.27,5.24-20.64,12.5c-4.04,6.7-9.56,15.88-23.08,15.88-.18,0-.36,0-.54,0,.31,12.79-7.67,18.69-15.88,23.64-7.26,4.37-12.5,7.53-12.5,20.64s5.24,16.27,12.5,20.64c8.21,4.95,16.2,10.85,15.88,23.64.18,0,.36,0,.54,0Z"/>
        </g>
        <line x1="219.93" y1="65.19" x2="218.07" y2="66.29"/>
        <path fill="none" d="m256.23,87.79s.08-.02.1-.06c.19-.33.48-.51.8-.67.42-.22.83-.43,1.13-.84-.36-.12-.65.05-.95.15-.18.05-.35.13-.54.16-.24.04-.38-.08-.46-.35-.1-.35-.2-.7-.31-1.08-.44.64-.43,1.69-.06,2.32,0,0,.27.34.3.36Z"/>
        <path fill="none" d="m257.4,85.72c.96.04,1.41-.18,1.91-.93.25-.38.46-.77.36-1.31-.59.21-1.6,1.21-2.27,2.24Z"/>
        <path fill="none" d="m258.49,83.63c.12-.13.22-.29.28-.45.08-.2,0-.41-.14-.57-.15-.16-.34-.15-.5-.06-.17.1-.34.22-.47.37-.52.58-.82,1.32-1.1,2.06-.06.16.03.39.05.64.67-.7,1.28-1.34,1.88-1.98Z"/>
        <path fill="none" d="m258.49,83.63c.12-.13.22-.29.28-.45.08-.2,0-.41-.14-.57-.15-.16-.34-.15-.5-.06-.17.1-.34.22-.47.37-.52.58-.82,1.32-1.1,2.06-.06.16.03.39.05.64.67-.7,1.28-1.34,1.88-1.98Z"/>
        <path fill="none" d="m256.23,87.79s.08-.02.1-.06c.19-.33.48-.51.8-.67.42-.22.83-.43,1.13-.84-.36-.12-.65.05-.95.15-.18.05-.35.13-.54.16-.24.04-.38-.08-.46-.35-.1-.35-.2-.7-.31-1.08-.44.64-.43,1.69-.06,2.32,0,0,.27.34.3.36Z"/>
        <path fill="none" d="m257.4,85.72c.96.04,1.41-.18,1.91-.93.25-.38.46-.77.36-1.31-.59.21-1.6,1.21-2.27,2.24Z"/>
        <path fill="none" d="m258.49,83.63c.12-.13.22-.29.28-.45.08-.2,0-.41-.14-.57-.15-.16-.34-.15-.5-.06-.17.1-.34.22-.47.37-.52.58-.82,1.32-1.1,2.06-.06.16.03.39.05.64.67-.7,1.28-1.34,1.88-1.98Z"/>
        <path fill="none" d="m257.4,85.72c.96.04,1.41-.18,1.91-.93.25-.38.46-.77.36-1.31-.59.21-1.6,1.21-2.27,2.24Z"/>
        <path fill="none" d="m256.23,87.79s.08-.02.1-.06c.19-.33.48-.51.8-.67.42-.22.83-.43,1.13-.84-.36-.12-.65.05-.95.15-.18.05-.35.13-.54.16-.24.04-.38-.08-.46-.35-.1-.35-.2-.7-.31-1.08-.44.64-.43,1.69-.06,2.32,0,0,.27.34.3.36Z"/>
        <path fill="none" d="m257.51,85.52c.96.04,1.41-.18,1.91-.93.25-.38.46-.77.36-1.31-.59.21-1.6,1.21-2.27,2.24Z"/>
        <path fill="none" d="m256.35,87.59s.08-.02.1-.06c.19-.33.48-.51.8-.67.42-.22.83-.43,1.13-.84-.36-.12-.65.05-.95.15-.18.05-.35.13-.54.16-.24.04-.38-.08-.46-.35-.1-.35-.2-.7-.31-1.08-.44.64-.43,1.69-.06,2.32,0,0,.27.34.3.36Z"/>
        <path fill="none" d="m258.6,83.42c.12-.13.22-.29.28-.45.08-.2,0-.41-.14-.57-.15-.16-.34-.15-.5-.06-.17.1-.34.22-.47.37-.52.58-.82,1.32-1.1,2.06-.06.16.03.39.05.64.67-.7,1.28-1.34,1.88-1.98Z"/>
        <path class="cls-3" d="m242.05,32.12c.12-.71.24-1.42.36-2.13"/>
        <path class="cls-3" d="m228.4,50.27c.61,0,1.19.04,1.74.12-.5-.07-1.01-.12-1.57-.12-.06,0-.11,0-.17,0Z"/>
        <path class="cls-3" d="m244.79,52.45l-.13.16.67-.03c-.17-.05-.35-.09-.55-.13Z"/>
        <path class="cls-3" d="m240.9,61.53c-.22-.69-.37-1.09-.38-1.1l-.41-1.03-.5.99s-.12.25-.27.58c0,.02,0,.04,0,.05.06-.07.12-.13.19-.22,0,.03.01.06.01.09.11-.25.19-.41.2-.44l.34-.66.28.69s.12.31.29.82c.06.06.11.12.17.16.02.01.05.03.08.05Z"/>
        <polygon class="cls-3" points="244.49 118.32 244.38 118.43 244.49 118.32 244.49 118.32"/>
        <path class="cls-3" d="m236.13,52.35s-.04-.02-.06-.03c0,.01,0,.02,0,.04.02,0,.04,0,.07,0Z"/>
        <path class="cls-3" d="m231.84,50.41c-.64-.19-1.32-.28-2-.34.43.17.83.32,1.23.47.31.07.64.12.92.21.36.12.74.27,1.11.44.58.16,1.1.29,1.49.38-.9-.45-1.84-.88-2.75-1.15Z"/>
        <path fill="none" d="m237.88,71.07h0c-.18,4.15.8,7.84,1.32,9.46.66-1.57,1.95-5.16,2.13-9.31.18-4.16-.8-7.84-1.32-9.46-.65,1.57-1.95,5.16-2.13,9.31Z"/>
        <path fill="none" d="m218.72,91.7c1.97,1.29,3.7,2.58,5.29,3.96,2.5,2.17,5.08,4.78,8.12,8.23,2.02,2.3,3.99,4.66,5.86,7.01-1.12-2.26-2.22-4.29-3.35-6.2-2.84-4.8-6.04-8.3-9.78-10.73-3.23-2.09-6.88-3.43-10.58-3.87,1.71,1.03,3.4,2.2,5.04,3.46,3.37,2.61,6.73,5.76,10.56,9.91.67.72,1.34,1.49,1.99,2.23l.04.04c1.8,2.06,3.66,4.18,5.77,5.82l-.35-.43c-2.47-3.07-5.03-6.24-7.75-9.18-3.61-3.91-7.31-7.29-10.98-10.04-.06-.05-.08-.13-.03-.19.04-.06.11-.07.17-.04Z"/>
        <path fill="none" d="m245.85,112.31c-1.4,1.52-2.73,3.1-4.29,5-.15.18-.31.37-.46.55-.94,1.11-1.99,2.37-2.35,3.89,1.48-1.67,3.06-3.29,4.58-4.86l.02-.02c.77-.79,1.56-1.6,2.32-2.4.38-.4.77-.83,1.15-1.24,1.8-1.96,3.65-3.97,5.97-5.07.07-.04.15,0,.19.07.04.07.03.17-.05.22-2.18,1.34-4,3.36-5.76,5.32l-.04.04c-.4.44-.81.9-1.22,1.34-.73.79-1.47,1.61-2.19,2.39l-.08.09c-.28.31-.57.63-.85.94.3-.2.6-.4.93-.62l.5-.32c1.66-1.08,3.37-2.19,4.87-3.58,1.5-1.39,2.87-3,4.19-4.55l.1-.12c1.91-2.24,4.06-4.76,6.65-6.41-1.4.31-2.84.82-4.28,1.51-3.32,1.6-6.48,4.09-9.93,7.84Z"/>
        <path fill="none" d="m237.88,71.07h0c-.18,4.15.8,7.84,1.32,9.46.66-1.57,1.95-5.16,2.13-9.31.18-4.16-.8-7.84-1.32-9.46-.65,1.57-1.95,5.16-2.13,9.31Z"/>
        <path fill="none" d="m218.72,91.7c1.97,1.29,3.7,2.58,5.29,3.96,2.5,2.17,5.08,4.78,8.12,8.23,2.02,2.3,3.99,4.66,5.86,7.01-1.12-2.26-2.22-4.29-3.35-6.2-2.84-4.8-6.04-8.3-9.78-10.73-3.23-2.09-6.88-3.43-10.58-3.87,1.71,1.03,3.4,2.2,5.04,3.46,3.37,2.61,6.73,5.76,10.56,9.91.67.72,1.34,1.49,1.99,2.23l.04.04c1.8,2.06,3.66,4.18,5.77,5.82l-.35-.43c-2.47-3.07-5.03-6.24-7.75-9.18-3.61-3.91-7.31-7.29-10.98-10.04-.06-.05-.08-.13-.03-.19.04-.06.11-.07.17-.04Z"/>
        <path fill="none" d="m245.85,112.31c-1.4,1.52-2.73,3.1-4.29,5-.15.18-.31.37-.46.55-.94,1.11-1.99,2.37-2.35,3.89,1.48-1.67,3.06-3.29,4.58-4.86l.02-.02c.77-.79,1.56-1.6,2.32-2.4.38-.4.77-.83,1.15-1.24,1.8-1.96,3.65-3.97,5.97-5.07.07-.04.15,0,.19.07.04.07.03.17-.05.22-2.18,1.34-4,3.36-5.76,5.32l-.04.04c-.4.44-.81.9-1.22,1.34-.73.79-1.47,1.61-2.19,2.39l-.08.09c-.28.31-.57.63-.85.94.3-.2.6-.4.93-.62l.5-.32c1.66-1.08,3.37-2.19,4.87-3.58,1.5-1.39,2.87-3,4.19-4.55l.1-.12c1.91-2.24,4.06-4.76,6.65-6.41-1.4.31-2.84.82-4.28,1.51-3.32,1.6-6.48,4.09-9.93,7.84Z"/>
        <path fill="none" d="m245.85,112.31c-1.4,1.52-2.73,3.1-4.29,5-.15.18-.31.37-.46.55-.94,1.11-1.99,2.37-2.35,3.89,1.48-1.67,3.06-3.29,4.58-4.86l.02-.02c.77-.79,1.56-1.6,2.32-2.4.38-.4.77-.83,1.15-1.24,1.8-1.96,3.65-3.97,5.97-5.07.07-.04.15,0,.19.07.04.07.03.17-.05.22-2.18,1.34-4,3.36-5.76,5.32l-.04.04c-.4.44-.81.9-1.22,1.34-.73.79-1.47,1.61-2.19,2.39l-.08.09c-.28.31-.57.63-.85.94.3-.2.6-.4.93-.62l.5-.32c1.66-1.08,3.37-2.19,4.87-3.58,1.5-1.39,2.87-3,4.19-4.55l.1-.12c1.91-2.24,4.06-4.76,6.65-6.41-1.4.31-2.84.82-4.28,1.51-3.32,1.6-6.48,4.09-9.93,7.84Z"/>
        <path fill="none" d="m237.88,71.07h0c-.18,4.15.8,7.84,1.32,9.46.66-1.57,1.95-5.16,2.13-9.31.18-4.16-.8-7.84-1.32-9.46-.65,1.57-1.95,5.16-2.13,9.31Z"/>
        <path fill="none" d="m237.99,70.87h0c-.18,4.15.8,7.84,1.32,9.46.66-1.57,1.95-5.16,2.13-9.31.18-4.16-.8-7.84-1.32-9.46-.65,1.57-1.95,5.16-2.13,9.31Z"/>
        <path fill="none" d="m245.96,112.11c-1.4,1.52-2.73,3.1-4.29,5-.15.18-.31.37-.46.55-.94,1.11-1.99,2.37-2.35,3.89,1.48-1.67,3.06-3.29,4.58-4.86l.02-.02c.77-.79,1.56-1.6,2.32-2.4.38-.4.77-.83,1.15-1.24,1.8-1.96,3.65-3.97,5.97-5.07.07-.04.15,0,.19.07.04.07.03.17-.05.22-2.18,1.34-4,3.36-5.76,5.32l-.04.04c-.4.44-.81.9-1.22,1.34-.73.79-1.47,1.61-2.19,2.39l-.08.09c-.28.31-.57.63-.85.94.3-.2.6-.4.93-.62l.5-.32c1.66-1.08,3.37-2.19,4.87-3.58,1.5-1.39,2.87-3,4.19-4.55l.1-.12c1.91-2.24,4.06-4.76,6.65-6.41-1.4.31-2.84.82-4.28,1.51-3.32,1.6-6.48,4.09-9.93,7.84Z"/>
        <path fill="none" d="m218.84,91.49c1.97,1.29,3.7,2.58,5.29,3.96,2.5,2.17,5.08,4.78,8.12,8.23,2.02,2.3,3.99,4.66,5.86,7.01-1.12-2.26-2.22-4.29-3.35-6.2-2.84-4.8-6.04-8.3-9.78-10.73-3.23-2.09-6.88-3.43-10.58-3.87,1.71,1.03,3.4,2.2,5.04,3.46,3.37,2.61,6.73,5.76,10.56,9.91.67.72,1.34,1.49,1.99,2.23l.04.04c1.8,2.06,3.66,4.18,5.77,5.82l-.35-.43c-2.47-3.07-5.03-6.24-7.75-9.18-3.61-3.91-7.31-7.29-10.98-10.04-.06-.05-.08-.13-.03-.19.04-.06.11-.07.17-.04Z"/>
        <g>
          <g>
            <path d="m217.11,64.8h0c-.09,0-.17-.06-.2-.16-.02-.09,0-.18.01-.26.11-.43.27-.83.43-1.21l.09-.22c.84-2.11,1.39-4.46,1.57-6.82l.32.03c-.19,2.39-.74,4.78-1.6,6.92l-.09.23c-.15.37-.31.76-.41,1.17-.02.07.06.14.07.19.02.1-.11.16-.2.16Z"/>
            <path d="m223.43,70.82c-2.01-1.3-4.33-2.21-6.68-2.63l.06-.31c2.4.43,4.75,1.36,6.8,2.68l-.17.27Z"/>
            <g>
              <path d="m240.14,55.03c.7.27.3-.12.27-.27.17-.15.36-.19.74-.07-.21-.13-.27-.17-.37-.23.38-.1.73-.11,1.03.04.29.14.46.39.42.76-.03.25-.05.5.04.75.05.12-.03.21-.16.2-.24-.01-.44.1-.63.21-.46.26-1.1-.04-1.19-.57-.02-.15.19-.23.09-.39-.07-.12-.14-.24-.24-.43"/>
              <path d="m239.89,54.95c-.35.39-.09.97-.5,1.3-.25.2-.54.27-.84.07-.02-.01-.04-.04-.07-.04-.78-.19-.81-.74-.65-1.37.09-.34.34-.53.66-.6.41-.09.79.02.95.44.09.22.24.17.44.21"/>
              <path d="m240.64,53.88c-.1.29-.48.16-.64.4-.01.02-.11.02-.14,0-.26-.24-.54-.46-.75-.73-.27-.35-.06-.68.22-.9.28-.21.64-.3.92-.63.15.53.78.52.93,1.03.06.23-.11.88-.33.97-.13.05-.09-.12-.2-.14"/>
              <path d="m241.89,48.75c.38.67-.08,3.14-.62,3.38.28-1.11.71-2.15.62-3.38"/>
              <path d="m239.43,56.79c.1.68-1.58,2.77-2.59,3.07,1.05-1.01,1.8-2.03,2.59-3.07"/>
              <path d="m245.55,58.99c-1.29-.58-2.45-1.31-3.28-2.48,1.09.83,2.19,1.66,3.28,2.48"/>
              <path d="m243.35,50.36c0,.99-.56,1.46-.91,2-.23.35-.39.81-.89.92.02-.46.41-.71.62-1.06.33-.56.7-1.1,1.18-1.85"/>
              <path d="m238.51,52.67c-.69-.09-1.75-2.87-1.45-3.48.45,1.14.67,2.38,1.45,3.48"/>
              <path d="m237.28,55.38c-1.07.59-2.19,1.07-3.65,1.5,1.27-.88,2.48-1.16,3.65-1.5"/>
              <path d="m245.85,55.06c-1.1-.71-2.35-.88-3.59-1.11,1.32-.03,2.58.12,3.59,1.11"/>
              <path d="m243.63,59.95c-.55-.16-2.41-2.57-2.34-2.99.77.99,1.53,1.96,2.34,2.99"/>
              <path d="m234.49,54.84c.83-.44,2.57-.51,3.06-.15-1.09.05-2.07.1-3.06.15"/>
              <path d="m236.7,58.22l1.44-1.55c-.29.69-.77,1.21-1.44,1.55"/>
              <path d="m238.69,50.03c.12.7.24,1.39.37,2.09-.37-.65-.5-1.34-.37-2.09"/>
              <path d="m247.94,69.35c-1.04-1.12-2-2.32-2.86-3.59-.68-1-1.31-2.1-1.29-3.32h.48c-.02,1.1.57,2.12,1.21,3.06.85,1.24,1.79,2.43,2.82,3.53l-.35.33Z"/>
              <path d="m252.17,68.41c-1.24-.84-2.53-1.71-3.65-2.75-1.27-1.18-2.17-2.45-2.66-3.77l.45-.17c.46,1.24,1.32,2.45,2.53,3.58,1.1,1.02,2.37,1.88,3.59,2.71l-.27.4Z"/>
              <path d="m257.17,67.13c-.31-.13-.63-.23-.96-.34-.23-.07-.47-.15-.7-.23-1.08-.4-2.05-1.04-2.94-1.67-1.64-1.16-3.21-2.45-4.68-3.82l.33-.35c1.45,1.36,3.01,2.63,4.63,3.78.86.61,1.81,1.23,2.83,1.61.22.08.45.15.68.23.33.1.68.21,1.01.35l-.19.44Z"/>
              <path d="m254.81,62.57c-1.59-.66-3.11-1.51-4.51-2.51l.28-.39c1.37.99,2.85,1.81,4.41,2.46l-.18.44Z"/>
              <path d="m257.6,61.34c-1.31-.79-2.68-1.49-4.09-2.09-1.05-.45-2.18-.86-3.32-.79l-.03-.48s.05,0,.08,0c1.2-.05,2.37.37,3.46.83,1.42.61,2.82,1.32,4.15,2.12l-.25.41Z"/>
              <path d="m257.05,57.76c-2.35-1.06-5.1-1.21-7.52-1.34l.03-.48c2.46.14,5.26.29,7.69,1.38l-.2.44Z"/>
              <path d="m259.07,54.42c-.57-.23-1.23-.4-2-.52-2.57-.4-5.2-.06-7.75.27l-.06-.48c2.58-.33,5.25-.67,7.88-.27.81.12,1.5.31,2.11.55l-.18.44Z"/>
              <path d="m263.26,64.36c-.12-.43-.3-.82-.47-1.19l-.1-.22c-.92-2.07-1.55-4.41-1.82-6.76l-.32.04c.28,2.38.92,4.75,1.85,6.85l.1.23c.17.37.34.75.45,1.15.02.07.02.09.02.1,0-.04-.08.06-.08.09-.02.1.11.16.2.15,0,0,.01,0,.02,0,.08-.01.15-.08.17-.17.02-.09,0-.18-.02-.26Z"/>
              <path d="m256.88,70.75l-.16-.28c2.12-1.21,4.51-2.01,6.93-2.32l.04.32c-2.38.3-4.73,1.09-6.81,2.28Z"/>
              <rect x="261.08" y="64.72" width=".32" height="2.16" transform="translate(78.82 264.04) rotate(-61.52)"/>
              <path d="m245.21,47.84l-.19-.44c1-.43,1.69-1.38,2.29-2.35.79-1.28,1.48-2.63,2.07-4.01l.44.19c-.59,1.41-1.3,2.78-2.1,4.08-.64,1.03-1.38,2.06-2.51,2.54Z"/>
              <path d="m244.16,46.28l-.34-.34c.95-.93,1.7-2.2,2.24-3.78.48-1.42.75-2.93,1.01-4.38l.47.08c-.26,1.48-.53,3-1.02,4.46-.56,1.65-1.35,2.98-2.35,3.96Z"/>
              <path d="m242.59,44.77l-.45-.16c.65-1.88,1.17-3.82,1.56-5.77.21-1.04.39-2.15.32-3.24-.02-.24-.04-.48-.07-.71-.04-.35-.08-.7-.09-1.06h.48c0,.33.04.66.08,1.01.03.24.06.49.07.74.08,1.15-.11,2.29-.32,3.37-.39,1.97-.92,3.93-1.58,5.83Z"/>
              <path d="m240.68,42.97l-.47-.1c.34-1.65.49-3.34.44-5.03h.48c.05,1.71-.1,3.44-.45,5.13Z"/>
              <path d="m238.83,43.94c-.57-1.1-.66-2.36-.68-3.56-.03-1.55.06-3.11.24-4.65l.48.06c-.18,1.52-.27,3.06-.24,4.58.02,1.14.11,2.34.63,3.35l-.43.22Z"/>
              <path d="m237.23,45.33c-.88-2.3-1.88-4.92-1.88-7.59h.48c0,2.58.94,5.04,1.85,7.42l-.45.17Z"/>
              <path d="m235.54,46.82c-1.35-2.22-2.76-4.51-3.46-7.09-.22-.79-.33-1.49-.36-2.15l.48-.02c.02.62.13,1.28.34,2.04.69,2.51,2.07,4.77,3.41,6.96l-.41.25Z"/>
              <path d="m233.42,34.93l-.25-.2c1.19-1.49,2.59-2.32,3.71-2.99.41-.25.81-.48,1.14-.72.48-.34.88-.69,1.19-.97.23-.21.44-.39.62-.52,0,0,0,0,0,0,.01,0,.03-.02.05-.04.17-.13.25-.18.32-.19h.13s.05.11.05.11c.04.13-.04.19-.26.32-.04.02-.08.05-.1.06,0,0,0,0,0,0-.17.12-.37.29-.59.49-.32.28-.72.64-1.22.99-.35.25-.74.48-1.16.74-1.16.69-2.47,1.48-3.62,2.92Z"/>
              <path d="m248.67,34.05c-1.97-1.44-3.68-3.3-4.95-5.38l.27-.17c1.25,2.04,2.93,3.87,4.86,5.28l-.19.26Z"/>
              <rect x="241.14" y="30.89" width="2.16" height=".32" transform="translate(171.62 264.83) rotate(-80.5)"/>
              <path d="m230.94,69.52l-.33-.34c1.08-1.04,2.09-2.18,3-3.38.69-.9,1.33-1.89,1.37-2.98l.48.02c-.05,1.22-.73,2.29-1.47,3.25-.92,1.22-1.95,2.37-3.04,3.43Z"/>
              <path d="m227.19,68.37l-.25-.41c1.27-.76,2.58-1.56,3.73-2.52,1.28-1.07,2.19-2.23,2.72-3.45l.44.19c-.56,1.29-1.52,2.51-2.85,3.62-1.18.99-2.5,1.79-3.79,2.56Z"/>
              <path d="m222.27,66.83l-.17-.45c.34-.12.69-.21,1.02-.3.23-.06.46-.12.69-.19,1.04-.32,2.01-.89,2.91-1.46,1.68-1.07,3.3-2.25,4.82-3.53l.31.37c-1.54,1.29-3.17,2.49-4.87,3.57-.92.59-1.93,1.18-3.02,1.52-.24.07-.48.14-.71.2-.34.09-.66.17-.98.29Z"/>
              <path d="m224.86,62.4l-.16-.45c1.59-.56,3.11-1.31,4.53-2.23l.26.4c-1.45.93-3.01,1.7-4.63,2.28Z"/>
              <path d="m222.14,61.03l-.23-.42c1.37-.73,2.8-1.37,4.25-1.9,1.13-.41,2.34-.78,3.57-.65l-.05.48c-1.13-.12-2.28.23-3.35.62-1.43.53-2.84,1.16-4.19,1.88Z"/>
              <path d="m222.87,57.48l-.17-.45c2.49-.97,5.29-.98,7.75-.98v.48c-2.42,0-5.17.02-7.58.95Z"/>
              <path d="m231,54.65c-2.52-.46-5.14-.93-7.72-.67-.78.08-1.44.22-2.02.42l-.16-.45c.62-.21,1.32-.36,2.13-.44,2.66-.27,5.3.21,7.86.68l-.09.47Z"/>
              <rect x="217.92" y="65.58" width="2.16" height=".32" transform="translate(-2.97 120.63) rotate(-30.6)"/>
            </g>
          </g>
          <g>
            <path fill="none" d="m243.33,116.9l.02-.02c.77-.79,1.56-1.6,2.32-2.4.38-.4.77-.83,1.15-1.24,1.8-1.96,3.65-3.97,5.97-5.07.07-.04.15,0,.19.07.04.07.03.17-.05.22-2.18,1.34-4,3.36-5.76,5.32l-.04.04c-.4.44-.81.9-1.22,1.34-.73.79-1.47,1.61-2.19,2.39l-.08.09c-.28.31-.57.63-.85.94.3-.2.6-.4.93-.62l.5-.32c1.66-1.08,3.37-2.19,4.87-3.58,1.5-1.39,2.87-3,4.19-4.55l.1-.12c1.91-2.24,4.06-4.76,6.65-6.41-1.4.31-2.84.82-4.28,1.51-3.32,1.6-6.48,4.09-9.93,7.84-1.4,1.52-2.73,3.1-4.29,5-.15.18-.31.37-.46.55-.94,1.11-1.99,2.37-2.35,3.89,1.48-1.67,3.06-3.29,4.58-4.86Z"/>
            <path fill="none" d="m256.23,87.79s.08-.02.1-.06c.19-.33.48-.51.8-.67.42-.22.83-.43,1.13-.84-.36-.12-.65.05-.95.15-.18.05-.35.13-.54.16-.24.04-.38-.08-.46-.35-.1-.35-.2-.7-.31-1.08-.44.64-.43,1.69-.06,2.32,0,0,.27.34.3.36Z"/>
            <path fill="none" d="m217.17,69.55c.86.12,1.74.5,2.76.94,2.25.98,5.32,2.32,10.71,1.98,1.57-.1,5.47-1.04,7.8-7.61.16-.44.76-2.61.79-2.82.04-.25.09-.48.12-.66,0-.02,0-.04-.01-.06-.13.14-.23.26-.32.34l-.04.04s-.03.02-.13.07c-2,1.02-3.5.28-4.5-.2-.96-.47-1.7-.88-2.24-1.18l-.05-.03c-.55-.31-1.07-.6-1.26-.61l-1.1-.07.71-.84c.24-.29.46-.97.7-1.69.25-.78.54-1.66.97-2.44.74-1.36,1.44-2.03,2.52-2.38-.9-.49-1.85-.97-2.75-1.26-.97-.31-2.11-.47-3.38-.47-2.49,0-4.73.59-5.89,1.1-3.37,1.47-4.78,4.76-5.08,6.47-.71,4.06-2.02,7.32-2.43,7.93-.14.22-.43,1.32-.22,2.04.23.79,1.5,1.3,2.34,1.41Z"/>
            <path fill="none" d="m240.59,27.62c-.43.6-2.99,3-6.52,5.12-1.49.9-4.05,3.39-4.2,7.07-.09,2.16.7,6.34,2.76,8.87.62.77,1.79,1.81,2.58,2.49-.15-1.18-.09-2.41.9-3.58.58-.68,1.29-1.26,1.92-1.78.6-.49,1.15-.94,1.33-1.27l.53-.97.47,1c.08.17.53.55,1.01.95.5.41,1.16.96,1.96,1.7.85.79,2.19,2.56,1.79,4.13-.01.05-.03.1-.06.16.29-.16.58-.32.88-.49l.05-.03c.46-.26.94-.52,1.44-.79.09-.07.16-.12.22-.17.02-.02.06-.04.07-.06.64-.55,1.56-1.42,2.41-2.53.03-.02.07-.04.1-.07,1.51-1.95,2.82-4.64,1.91-7.53-1.62-5.14-3.98-7.53-5.7-9.27-.79-.79-1.46-1.48-1.88-2.24-.37-.67-1.3-1.75-2.16-1.67-.75.06-1.67.73-1.83.94Z"/>
            <path fill="none" d="m218.72,91.7c1.97,1.29,3.7,2.58,5.29,3.96,2.51,2.17,5.08,4.78,8.12,8.23,2.02,2.3,3.99,4.66,5.86,7.01-1.12-2.26-2.22-4.29-3.35-6.2-2.84-4.8-6.04-8.3-9.78-10.73-3.23-2.09-6.88-3.43-10.58-3.87,1.71,1.03,3.4,2.2,5.04,3.46,3.37,2.61,6.73,5.76,10.55,9.91.67.72,1.34,1.49,1.99,2.23l.04.04c1.8,2.06,3.66,4.18,5.77,5.82l-.35-.43c-2.47-3.07-5.03-6.24-7.75-9.18-3.61-3.91-7.31-7.29-10.98-10.04-.06-.05-.08-.13-.03-.19.04-.06.11-.07.17-.04Z"/>
            <path fill="none" d="m257.4,85.72c.96.04,1.41-.18,1.91-.93.25-.38.46-.77.36-1.31-.59.21-1.6,1.21-2.27,2.24Z"/>
            <path fill="none" d="m258.49,83.63c.12-.13.22-.29.28-.45.08-.2,0-.41-.14-.57-.15-.16-.34-.15-.5-.06-.17.1-.34.22-.47.37-.52.58-.82,1.32-1.1,2.06-.06.16.03.39.05.64.67-.7,1.28-1.34,1.88-1.98Z"/>
            <path fill="none" d="m240.02,59.24c.1.03.24.08.35.26.02.01.04.03.06.06h0c.47.62.88,1.12,1.1,1.35l.03.02c1.48.73,2.62.17,3.46-.24.95-.46,1.65-.86,2.22-1.17l.03-.02c.35-.19.65-.36.91-.49-.18-.4-.34-.88-.51-1.39-.24-.73-.51-1.56-.89-2.26-.83-1.53-1.49-1.95-3.23-2.08-.12-.02-.48-.1-.54-.39-.08-.35.18-.58.32-.66l.28-.16c.28-.55.41-.86.44-.96.28-.95-.78-2.38-1.51-3.06-.77-.72-1.41-1.25-1.88-1.63l.06-.13-.09.11c-.33-.27-.59-.49-.81-.69-.3.31-.68.62-1.12.98-.6.49-1.27,1.04-1.78,1.64-.96,1.13-.9,2.21-.46,3.8h0c.13.09.5.39.38.72-.11.31-.54.33-.63.33-1.72.13-2.38.56-3.21,2.08-.38.69-.65,1.52-.89,2.24-.17.52-.33,1.01-.51,1.4.26.13.57.29.93.5.56.32,1.26.71,2.23,1.18.84.41,1.98.97,3.47.23h.02c.23-.24.64-.74,1.1-1.36.14-.19.38-.27.61-.21Z"/>
            <path fill="none" d="m240.59,65.07c-.12-.34-.47-1.58-.68-2.36-.21.78-.53,1.93-.65,2.25-.19.54-.47,1.25-.85,2.02-.26,1.26-.47,2.64-.53,4.09h0c-.18,4.15.8,7.84,1.32,9.46.66-1.57,1.95-5.16,2.13-9.31.08-1.81-.07-3.52-.3-5.03-.18-.42-.33-.8-.44-1.13Z"/>
            <path fill="none" d="m232.18,50.02c.06.02.13.04.19.07-.23-.24-.43-.47-.61-.69-.42-.52-.78-1.11-1.1-1.72-.93-.82-1.98-1.64-3.16-2.39-3.51-2.23-7.2-3.21-8.86-3.57,1.04,1.35,3.5,4.26,7.01,6.49.78.5,1.57.92,2.35,1.29,1.4-.04,2.86.1,4.18.53Z"/>
            <path fill="none" d="m249.71,49.69c1.48-.18,3-.09,4.36.12.52-.22,1.03-.45,1.55-.72,3.7-1.89,6.43-4.57,7.58-5.82-1.69.21-5.45.85-9.15,2.74-.89.46-1.72.96-2.49,1.48-.6.86-1.26,1.6-1.85,2.2Z"/>
            <path fill="none" d="m241.41,64.88c.14.39.45,1.21.46,1.27,2.35,5.51,5.87,6.35,7.35,6.44,5.39.33,8.46-1,10.71-1.98,1.02-.45,1.9-.83,2.76-.95.83-.11,2.11-.62,2.34-1.41.21-.72-.08-1.82-.22-2.04-.4-.61-1.72-3.87-2.43-7.93-.3-1.71-1.7-5-5.08-6.47-1.16-.51-3.4-1.1-5.89-1.1-1.17,0-2.22.13-3.14.4l-.41.18c-.45.26-1.57.83-2.42,1.21.98.36,1.66,1.04,2.35,2.32.43.79.71,1.66.97,2.44.24.73.46,1.41.7,1.69l.71.84-1.1.07c-.19.01-.71.3-1.26.61-.53.29-1.3.73-2.28,1.21-1,.49-2.5,1.22-4.5.2,0,0-.13-.07-.16-.1-.11-.08-.22-.2-.35-.36.04.17.08.37.11.6.03.22.63,2.38.79,2.84Z"/>
            <path d="m265.73,65.59h0c-.36-.54-1.59-3.67-2.26-7.51-.34-1.93-1.92-5.64-5.73-7.3-.55-.24-1.33-.49-2.25-.71.17-.08.34-.15.52-.24,5.12-2.62,8.4-6.65,8.54-6.82l.57-.72-.92.04c-.22.01-5.37.3-10.53,2.93-.41.21-.78.44-1.16.66.95-1.85,1.46-4.05.72-6.41-1.7-5.4-4.17-7.9-5.98-9.73-.75-.76-1.34-1.36-1.69-1.98-.43-.78-1.62-2.25-3.05-2.25-.06,0-.12,0-.18,0-1.14.1-2.32.97-2.64,1.41-.38.53-2.85,2.81-6.19,4.82-1.68,1.01-4.57,3.82-4.74,7.98-.06,1.42.24,3.85,1.12,6.19-.6-.47-1.23-.94-1.93-1.38-4.93-3.12-10.16-3.88-10.21-3.89l-.92-.13.51.77s2.93,4.45,7.88,7.58c.4.25.8.49,1.19.71-1.75.21-3.31.65-4.28,1.07-3.81,1.66-5.4,5.37-5.73,7.3-.67,3.84-1.91,6.97-2.26,7.51-.3.45-.68,1.86-.36,2.96.42,1.45,2.32,2.08,3.26,2.21.71.1,1.49.44,2.47.87,2.06.9,4.88,2.12,9.45,2.12.56,0,1.15-.02,1.76-.06,2.93-.19,5.01-1.94,6.45-3.88-.04.44-.09.87-.11,1.33-.25,5.86,1.7,10.75,1.72,10.79l.35.86.42-.82c.1-.19,2.39-4.85,2.65-10.6,0-.09,0-.17,0-.26,0,0,.12,1.39.18,1.85.17,1.28.4,3.48.45,4.12.03.39.05.79.07,1.18.01.28.02.55.04.82,0,3.99-.98,18.75-1.67,22.86-.32,1.88-1.01,4.94-1.68,7.89-.14.61-.27,1.21-.4,1.79-1.08-2.23-2.2-4.38-3.36-6.39-1.72-2.98-3.19-5.12-4.79-6.91-3.09-3.49-6.95-6.13-11.16-7.65-2.38-.86-4.84-1.34-7.32-1.43h0c-.22,0-.33.15-.37.28-.05.17,0,.4.23.52,3.88,2.12,7.72,4.97,11.72,8.71,2.16,2.01,4.19,4.22,6.16,6.37,1.26,1.37,2.57,2.79,3.89,4.14,1.54,1.57,2.99,2.75,4.43,3.61l.29.05c-.25,1.14-.46,2.12-.58,2.81-.55,3.11-1.28,7.72-1.66,12.01-.48,5.45-.24,10.22.74,14.57.05.2.21.29.37.29.03,0,.06,0,.09,0,.19-.04.35-.21.3-.45-.64-3.13-.91-6.42-.85-10.04.01-.02.02-.05.02-.08,0-.09,0-.17,0-.25,0-.06,0-.12,0-.18.04-1.41.12-2.84.25-4.25.02-.16.15-1.17.3-2.34.06-.44.12-.9.17-1.35.17-.02.41-.19.75-.57l.03.06,1.64-1.77-.03-.04c1.29-1.03,2.71-1.92,4.07-2.77h0c1.53-.96,3.1-1.95,4.54-3.15,1.81-1.52,3.39-3.37,4.91-5.16,1.09-1.28,2.22-2.61,3.43-3.8,1.8-1.78,3.61-3.01,5.55-3.78.23-.09.26-.29.22-.46-.05-.23-.27-.45-.51-.43-9.26.79-15.98,8.09-21.56,14.87-.15.18-.3.36-.45.54l-.04.04c-.4.48-.81.97-1.18,1.47.3-.62.62-1.23.95-1.82.05-.07.34-.54.68-1.11l.18-.3c.42-.69.9-1.46.95-1.54.48-.63.94-1.3,1.35-1.98l.07-.11c.08-.12.17-.24.25-.36.55-.78,1.11-1.51,1.65-2.23,2.3-3.02,4.91-6.45,8.65-14.88l.24-.53c.16-.33.3-.67.42-.99.01-.03.03-.07.04-.12l.03-.09c.41-1.07.64-2.31,1.07-3.44.08-.21.23-.38.37-.55.15-.18.25-.39.37-.59.16-.26.4-.4.66-.51.5-.21.94-.52,1.31-.93.09-.1.22-.22.22-.34,0-.35.22-.49.41-.68.35-.33.63-.73.77-1.22.06-.19.09-.4.1-.6.01-.64-.24-.87-.84-.74-.03-.06-.07-.12-.08-.19-.18-.82-.98-1.05-1.49-.62-.34.28-.64.63-.89,1-.26.39-.44.84-.67,1.3-.55,0-.75.45-.89.95-.22.83-.1,1.7.32,2.5v.52s-.42,1.38-.42,1.38c-.1.4-.43,1.26-.69,1.95-.11.3-.21.57-.28.75-.07.21-.15.41-.23.61-.06.14-.11.28-.16.41-.91,2.01-4.74,9.23-6.02,11.14-.59.88-1.63,2.26-2.63,3.6-.78,1.03-1.58,2.1-1.98,2.69-.99,1.45-2.4,3.61-3.57,5.69-.26.47-.5.95-.73,1.45.07-.45.15-.9.2-1.36l.04-.19c.05-.27.1-.54.16-.81.18-.93.38-1.85.59-2.78h0s0,0,0,0c.14-.63.28-1.26.43-1.91,1.58-6.99,3.38-14.9,3.3-31.78v-.24c0-.54,0-1.55-.04-2.08-.21-2.45-.57-5.47-1.39-7.91,1.43,2.22,3.66,4.42,6.96,4.64.59.04,1.19.06,1.77.06,4.58,0,7.4-1.23,9.47-2.13.98-.43,1.76-.77,2.46-.86.94-.13,2.84-.75,3.26-2.21.32-1.1-.07-2.52-.36-2.96Zm-47.14,26.33c3.67,2.75,7.37,6.13,10.98,10.04,2.72,2.94,5.28,6.12,7.75,9.18l.35.43c-2.11-1.64-3.97-3.77-5.77-5.82l-.04-.04c-.65-.74-1.32-1.51-1.99-2.23-3.83-4.15-7.18-7.3-10.55-9.91-1.64-1.27-3.34-2.43-5.04-3.46,3.69.44,7.35,1.77,10.58,3.87,3.74,2.42,6.94,5.93,9.78,10.73,1.13,1.91,2.23,3.94,3.35,6.2-1.86-2.35-3.83-4.72-5.86-7.01-3.03-3.45-5.61-6.07-8.12-8.23-1.59-1.38-3.32-2.67-5.29-3.96-.06-.04-.13-.02-.17.04-.05.07-.03.15.03.19Zm41.08-8.45c.11.54-.11.93-.36,1.31-.5.75-.95.97-1.91.93.67-1.03,1.68-2.04,2.27-2.24Zm-3.11,1.49c.28-.74.58-1.48,1.1-2.06.14-.15.3-.27.47-.37.16-.09.34-.11.5.06.15.16.23.37.14.57-.07.17-.17.32-.28.45-.6.65-1.21,1.28-1.88,1.98-.03-.25-.11-.48-.05-.64Zm-.56.13c.11.38.21.73.31,1.08.08.27.22.39.46.35.18-.03.36-.11.54-.16.3-.09.59-.27.95-.15-.3.41-.71.62-1.13.84-.31.16-.61.34-.8.67-.02.03-.07.04-.1.06-.03-.02-.3-.36-.3-.36-.37-.64-.39-1.69.06-2.32Zm-14.89,32.76c.16-.19.31-.37.46-.55,1.56-1.9,2.88-3.48,4.29-5,3.45-3.75,6.61-6.24,9.93-7.84,1.44-.69,2.88-1.2,4.28-1.51-2.59,1.65-4.74,4.17-6.65,6.41l-.1.12c-1.32,1.55-2.69,3.15-4.19,4.55-1.5,1.39-3.21,2.51-4.87,3.58l-.5.32c-.33.22-.64.42-.93.62.28-.31.57-.62.85-.94l.08-.09c.72-.79,1.45-1.6,2.19-2.39.41-.44.82-.9,1.22-1.34l.04-.04c1.76-1.95,3.57-3.97,5.76-5.32.08-.05.09-.15.05-.22-.04-.08-.12-.11-.19-.07-2.32,1.09-4.17,3.11-5.97,5.07-.38.41-.76.83-1.15,1.24-.77.8-1.56,1.61-2.32,2.4l-.02.02c-1.53,1.57-3.1,3.19-4.58,4.86.36-1.52,1.42-2.77,2.35-3.89Zm-26.04-51.77c.4-.61,1.72-3.87,2.43-7.93.3-1.71,1.7-5,5.08-6.47,1.16-.51,3.41-1.1,5.89-1.1,1.27,0,2.41.16,3.38.47.9.29,1.85.77,2.75,1.26-1.07.35-1.78,1.02-2.52,2.38-.43.78-.72,1.66-.97,2.44-.24.72-.46,1.41-.7,1.69l-.71.84,1.1.07c.19.01.71.3,1.26.61l.05.03c.54.3,1.28.72,2.24,1.18.99.49,2.5,1.22,4.5.2.11-.05.12-.06.13-.07l.04-.04c.09-.08.2-.19.32-.34,0,.02,0,.04.01.06-.04.18-.08.41-.12.66-.03.21-.63,2.38-.79,2.82-2.33,6.57-6.23,7.51-7.8,7.61-5.39.34-8.46-1-10.71-1.98-1.02-.44-1.9-.83-2.76-.94-.83-.11-2.11-.63-2.34-1.41-.21-.72.08-1.82.22-2.04Zm29.52-37.75c.42.76,1.09,1.44,1.88,2.24,1.72,1.74,4.09,4.13,5.7,9.27.91,2.89-.39,5.58-1.91,7.53-.03.02-.07.04-.1.07-.85,1.1-1.77,1.98-2.41,2.53-.02.01-.05.04-.07.06-.06.05-.13.11-.22.17-.51.27-.98.53-1.44.79l-.05.03c-.3.17-.6.33-.88.49.02-.06.04-.11.06-.16.4-1.57-.94-3.33-1.79-4.13-.8-.74-1.46-1.29-1.96-1.7-.48-.4-.93-.77-1.01-.95l-.47-1-.53.97c-.18.33-.74.78-1.33,1.27-.63.51-1.34,1.1-1.92,1.78-.99,1.17-1.05,2.4-.9,3.58-.79-.68-1.96-1.73-2.58-2.49-2.05-2.54-2.85-6.71-2.76-8.87.16-3.68,2.71-6.17,4.2-7.07,3.53-2.12,6.1-4.52,6.52-5.12.15-.21,1.08-.88,1.83-.94.86-.08,1.79,1,2.16,1.67Zm-6.28,32.46c-1.49.73-2.63.17-3.47-.23-.97-.47-1.67-.87-2.23-1.18-.37-.21-.67-.38-.93-.5.18-.4.34-.88.51-1.4.24-.73.51-1.55.89-2.24.83-1.53,1.49-1.95,3.21-2.08.09,0,.52-.02.63-.33.12-.33-.25-.63-.38-.72h0c-.45-1.59-.5-2.67.46-3.8.51-.6,1.18-1.15,1.78-1.64.43-.35.81-.67,1.12-.98.21.2.48.42.81.69l.09-.11-.06.13c.47.39,1.1.91,1.88,1.63.73.68,1.79,2.11,1.51,3.06-.03.1-.16.41-.44.96l-.28.16c-.15.07-.41.31-.32.66.07.29.42.37.54.39,1.73.13,2.4.56,3.23,2.08.38.7.65,1.52.89,2.26.17.51.33.99.51,1.39-.26.12-.57.3-.91.49l-.03.02c-.56.32-1.27.71-2.22,1.17-.84.41-1.98.97-3.46.24l-.03-.02c-.23-.23-.64-.73-1.1-1.35h0s-.04-.05-.06-.06c-.11-.18-.25-.23-.35-.26-.23-.06-.46.03-.61.21-.46.62-.87,1.12-1.1,1.35h-.02Zm2.56.99s.16.1.16.1c2,1.02,3.5.28,4.5-.2.99-.48,1.76-.91,2.28-1.21.55-.31,1.07-.6,1.26-.61l1.1-.07-.71-.84c-.24-.28-.46-.97-.7-1.69-.25-.77-.54-1.65-.97-2.44-.69-1.28-1.38-1.95-2.35-2.32.85-.39,1.97-.95,2.42-1.21l.41-.18c.92-.26,1.97-.4,3.14-.4,2.49,0,4.73.59,5.89,1.1,3.37,1.47,4.78,4.76,5.08,6.47.71,4.06,2.02,7.32,2.43,7.93.14.22.43,1.32.22,2.04-.23.79-1.5,1.3-2.34,1.41-.86.12-1.74.5-2.76.95-2.24.98-5.32,2.32-10.71,1.98-1.47-.09-4.99-.93-7.35-6.44,0-.05-.32-.87-.46-1.27-.16-.46-.76-2.62-.79-2.84-.03-.23-.08-.43-.11-.6.13.15.24.28.35.36Zm13.19-15.78c3.7-1.89,7.46-2.54,9.15-2.74-1.16,1.25-3.88,3.92-7.58,5.82-.52.27-1.04.5-1.55.72-1.36-.21-2.88-.3-4.36-.12.59-.59,1.24-1.34,1.85-2.2.77-.52,1.6-1.02,2.49-1.48Zm-28.4,2.18c-3.51-2.23-5.98-5.14-7.01-6.49,1.66.36,5.35,1.35,8.86,3.57,1.18.75,2.23,1.57,3.16,2.39.32.61.68,1.19,1.1,1.72.18.22.39.45.61.69-.07-.02-.13-.04-.19-.07-1.33-.43-2.78-.56-4.18-.53-.78-.38-1.56-.8-2.35-1.29Zm15.68,23.03c-.18,4.15-1.48,7.74-2.13,9.31-.52-1.62-1.5-5.31-1.32-9.46h0c.06-1.46.27-2.84.53-4.09.38-.77.66-1.48.85-2.02.11-.32.44-1.47.65-2.25.21.78.56,2.02.68,2.36.11.32.26.71.44,1.13.23,1.5.38,3.21.3,5.03Z"/>
          </g>
        </g>
      </g>
      <g>
        <path d="m28.04,285.19c1.54-3.51,2.58-7.95,3.19-13.59.61-5.7.83-12.8.64-21.11-.18-7.68-.65-14.19-1.42-19.32-.75-5.02-1.9-8.85-3.52-11.7-1.51-2.66-3.47-4.53-5.98-5.73-2.44-1.16-5.41-1.76-9.03-1.72H0c.34.54.63,1.19.88,1.95.44,1.37.67,2.81.67,4.29.04,14.1.08,28.19.11,42.29.03,11.1.05,22.19.08,33.29,0,1.53-.22,3.09-.68,4.64-.24.81-.52,1.53-.85,2.15,4.61-1.25,7.39-1.99,12.38-3.31,3.82-1.01,6.9-2.42,9.42-4.3,2.6-1.94,4.57-4.5,6.02-7.83Zm-15.19,8.28l-3.32.84v-.81c-.11-11.38-.19-22.77-.28-34.15-.11-14.36-.21-28.72-.35-43.07v-.64s3.06-.03,3.06-.03c2.44,0,4.42.6,5.97,1.86,1.59,1.29,2.82,3.29,3.75,6.09.94,2.83,1.59,6.45,2,11.06.41,4.59.66,10.28.75,16.92.1,7.26.02,13.53-.23,18.61-.25,5.13-.79,9.2-1.66,12.42-.85,3.19-2.04,5.61-3.64,7.38-1.55,1.72-3.59,2.91-6.06,3.54Z"/>
        <path d="m88.04,280.12c-1.1-1.11-2.18-2.83-3.31-5.26-1.2-2.59-2.5-6.08-3.85-10.37-1.41-4.46-3.05-10.35-4.99-17.99l-.1-.4.33-.26c2.34-1.82,4.13-4.27,5.33-7.27,1.2-3.02,1.77-6.66,1.7-10.81-.05-2.5-.32-4.77-.81-6.75-.48-1.93-1.3-3.51-2.49-4.83-1.17-1.29-2.75-2.28-4.82-3.02-2.03-.72-4.71-1.09-7.97-1.09h-12.15c.32.47.6,1.02.84,1.66.47,1.24.73,2.53.76,3.84.26,10.7.47,21.4.68,32.1.2,10.31.41,20.62.65,30.92.03,1.34-.16,2.71-.56,4.08-.2.69-.44,1.29-.72,1.82,3.94-.88,6.39-1.41,10.21-2.19-.35-.44-.65-.98-.91-1.64-.47-1.18-.72-2.46-.75-3.78-.22-9.47-.41-18.95-.6-28.43v-.58s1.27-.14,1.27-.14c.5-.05.98-.12,1.43-.2.45-.08.9-.18,1.35-.29l.6-.15.16.6c2.36,8.58,4.1,14.79,5.47,19.53,1.4,4.82,3.01,8.19,4.92,10.33.8.89,1.69,1.53,2.62,1.89.93.36,1.9.56,2.89.61.99.05,2-.04,3.02-.26.48-.1.95-.21,1.43-.33-.57-.35-1.13-.79-1.65-1.32Zm-14.23-39.66c-.82,1.62-1.95,2.94-3.36,3.94-1.43,1.01-3.22,1.62-5.34,1.82l-.68.06-.07-3.73c-.18-9.14-.37-18.29-.59-27.43l-.02-.65h2.68s.03-.01.05-.01c2.86,0,5.14,1.06,6.77,3.15,1.66,2.12,2.52,5.69,2.62,10.91.05,2.32-.08,4.51-.39,6.51-.31,2.04-.87,3.87-1.67,5.44Z"/>
        <path d="m137.36,212.08h-6.15c.05.08.09.15.12.23h0c.2.43.29.92.26,1.43-.03.48-.15,1.01-.38,1.64-.21.56-.46,1.28-.77,2.17-2.7,7.71-4.03,11.77-6.65,20.07l-.56,1.76-1.71-4.54c-2.47-6.58-3.97-10.56-6.72-17.3-.61-1.41-.96-2.61-1.06-3.67-.06-.67.05-1.27.34-1.8h-9.52c.32.31.63.65.91,1.02.73.96,1.46,2.3,2.16,3.96,3.7,9.12,7.16,18.51,10.5,27.58l.16.53.04,4.44c.06,7.8.1,12.93.18,21.11.01,1.22-.2,2.48-.61,3.74-.21.64-.46,1.19-.74,1.67,3.8-.43,6.22-.66,10.02-.99-.32-.45-.6-1-.83-1.63-.44-1.18-.67-2.4-.67-3.62l-.14-24.99.03-.09c3.09-10.09,6.02-19.14,8.98-27.65.47-1.42,1.09-2.69,1.82-3.79.33-.49.66-.92,1-1.3Z"/>
        <path d="m218.06,213.64c.29-.57.64-1.08,1.06-1.53h-5.94s.04.1.06.15c.16.4.24.88.24,1.41,0,.5-.07,1.07-.21,1.76-.13.64-.3,1.41-.51,2.32l-9.92,48.13-10.01-48.14c-.27-1.41-.39-2.67-.37-3.74.02-.7.19-1.33.52-1.88h-10.29c.28.31.56.67.85,1.07.75,1.05,1.33,2.49,1.71,4.29l11.93,56.2h7.8l11.78-56.19c.32-1.47.76-2.75,1.31-3.83Z"/>
        <path d="m259.99,268.04c.27,1.42.39,2.67.37,3.74-.02.7-.19,1.33-.52,1.88h10.29c-.28-.31-.56-.67-.85-1.07h0c-.75-1.05-1.33-2.5-1.71-4.29l-11.93-56.2h-9.37c.36.62.56,1.28.6,1.98.05,1-.05,2.23-.32,3.64l-10.48,50.58c-.27,1.46-.7,2.77-1.27,3.91-.28.55-.58,1.04-.91,1.46h6.09c-.05-.08-.09-.15-.13-.22-.23-.41-.36-.88-.39-1.41-.03-.48.01-1.05.13-1.7.11-.61.26-1.38.48-2.31l3.31-16.01h13.24s3.39,16.03,3.39,16.03Zm-15.95-19.29l5.86-28.35,6.04,28.35h-11.89Z"/>
        <path d="m320.04,269c-1.28.42-2.57.64-3.84.64h-12.6v-52.04c0-1.23.22-2.48.66-3.73.24-.67.52-1.26.84-1.76h-10.34c.33.5.61,1.09.84,1.76.44,1.25.66,2.5.66,3.73v50.57c0,1.23-.22,2.48-.66,3.73-.24.67-.52,1.26-.84,1.76h25.83s1-5.32,1-5.32c-.45.25-.97.46-1.56.66Z"/>
        <path d="m370.25,272.47c-1.27.27-2.54.33-3.79.19-4.8-.56-7.11-.8-11.78-1.22l-.58-.05.22-54.06c0-1.21.23-2.44.68-3.64.23-.62.5-1.15.81-1.61h-10.26c.31.48.58,1.02.81,1.65.44,1.21.66,2.43.65,3.65l-.13,51.91c0,1.22-.23,2.44-.67,3.63-.24.64-.51,1.19-.84,1.65,9.71.64,15.08,1.17,25.46,2.49.4-1.91.67-3.22,1.03-5.08-.47.21-1,.38-1.62.51Z"/>
        <path d="m405.38,232.38l-.62-.03v-.62c.1-6.48.14-9.62.23-15.17v-.63s.64,0,.64,0c4.78.03,7.17.04,11.95.08,1.28,0,2.57.25,3.83.7.58.21,1.1.45,1.55.73-.33-2.11-.56-3.46-.91-5.38-8.59,0-17.19,0-25.78,0,.3.45.55.99.77,1.61.42,1.21.63,2.46.61,3.71-.14,9.85-.25,19.7-.37,29.54-.11,9.52-.23,19.03-.36,28.55-.02,1.28-.26,2.52-.71,3.69-.25.64-.54,1.17-.87,1.6,8.33,1.45,16.94,3.15,25.63,5.06.44-2.01.72-3.4,1.11-5.43-.49.21-1.06.36-1.71.46-1.28.2-2.58.17-3.85-.09-4.85-.98-7.17-1.43-11.86-2.3l-.53-.1v-.54c.17-10.78.31-21.55.45-32.33l.1-8.04.67.04c2.99.19,4.49.29,7.48.49,1.28.09,2.58.45,3.86,1.09.68.34,1.27.72,1.76,1.15l.13-9.05c-.52.37-1.14.68-1.85.93-1.3.46-2.6.67-3.88.61-2.99-.14-4.49-.21-7.48-.33Z"/>
        <path d="m479.63,212.11h-6.26c.06.11.12.23.17.35.19.46.27.98.24,1.54-.03.52-.16,1.12-.39,1.83-.21.65-.48,1.5-.79,2.58-2.69,9.04-4.96,18.17-7.02,26.7l-.62,2.56-.62-2.56c-2.66-10.94-4.96-19.24-7.46-26.91-.58-1.64-.89-3-.96-4.14-.04-.74.09-1.4.41-1.97h-9.62c.35.34.67.74.96,1.18.72,1.08,1.39,2.52,2.04,4.41,3.7,11.37,6.63,23.13,9.47,34.5l.64,2.58-.03,3.77c-.09,10.07-.17,20.14-.28,30.21-.02,1.47-.26,2.85-.72,4.12-.27.74-.6,1.35-.98,1.82,4.09,1.06,6.66,1.74,10.68,2.82-.31-.6-.57-1.29-.8-2.07-.43-1.51-.65-3.02-.64-4.51.08-11.51.15-23.03.22-34.54l.02-.14,1.46-6.18c2.46-10.5,5.01-21.35,7.98-31.91.49-1.75,1.09-3.22,1.84-4.48.36-.6.72-1.12,1.09-1.56Z"/>
      </g>
    </g>
  </g>
</svg>