<?xml version="1.0" encoding="UTF-8"?>
<svg xmlns="http://www.w3.org/2000/svg" viewBox="0 0 479.63 216.18">
  <g>
    <g>
      <g>
        <g>
          <path d="m126.89,136.79v-29.32h7.98c8.48,0,11.63,3.02,11.63,8.11,0,4.2-2.18,6.59-6.17,7.64l7.9,13.57h-5.75l-6.97-12.89h-3.53v12.89h-5.08Zm7.6-15.04c4.66,0,6.68-1.85,6.68-6.05s-1.89-6.05-6.59-6.05h-2.6v12.1h2.52Z"/>
          <path d="m174.1,136.79c2.77-9.79,6.09-19.53,10.21-29.32h5.38c4.03,9.83,7.35,19.57,10.08,29.32h-5.29c-.76-2.73-1.51-5.5-2.35-8.27h-11.3c-.59,2.77-1.09,5.54-1.51,8.27h-5.21Zm7.14-10.37h10.25c-1.76-5.59-3.7-11.17-5.84-16.8-1.76,5.63-3.19,11.21-4.41,16.8Z"/>
          <path d="m227.93,136.79v-29.32h6.51l13.78,24.49c-.17-8.02-1.01-16.38-1.85-24.49h4.24v29.32h-4.96l-15.41-27.13c.55,9.2,1.43,18.52,2.35,27.13h-4.66Z"/>
          <path d="m301.22,134.56c-2.1,1.64-4.87,2.73-8.23,2.73-7.9,0-12.68-5.46-12.68-14.95s4.87-15.37,13.1-15.37c2.81,0,5.25.67,7.52,1.97l-.71,4.45c-2.06-2.6-4.2-4.16-6.68-4.16-5.29,0-7.85,5.12-7.85,12.89,0,8.36,2.77,12.81,7.85,12.81,2.69,0,5.12-1.3,7.06-2.98l.63,2.6Z"/>
          <path d="m347.37,136.79v-14.2h-12.73v14.2h-5.08v-29.32h5.08v12.89h12.73v-12.89h5.08v29.32h-5.08Z"/>
        </g>
        <g>
          <path d="m73.59,181.48c-3.17-1.35-4.75-2.05-7.89-3.47.06-.13.09-.19.15-.32.49.09.74.13,1.23.22,1.15.21,1.36.14,2.24-1.86,1.72-3.86,2.57-5.79,4.29-9.66.89-1.99.82-2.24-.08-2.89-.39-.28-.58-.43-.96-.71.06-.13.09-.19.15-.32,1.56.68,5.4,2.21,8.01,3.32,4.87,2.08,8.7,5.67,6.37,11.55-2.19,5.51-8.55,6.25-13.5,4.13Zm6.02-15.03c-.93-.4-2.08-.81-2.6-1.01-1.99,4.57-2.99,6.85-4.99,11.42-.95,2.18-.69,2.55.35,3,.32.14.49.21.81.35,4.96,2.13,8.92.98,10.84-3.74,1.87-4.6.3-8-4.41-10.02Z"/>
          <path d="m90.58,188.32c.05-.13.08-.2.13-.33.49.06.74.08,1.24.14,1.15.13,1.36.05,2.12-2,1.47-3.96,2.2-5.94,3.67-9.91.76-2.04.66-2.24-.26-2.88-.39-.28-.59-.42-.98-.69.05-.13.08-.2.13-.33,4.66,1.76,7,2.6,11.7,4.21-.44,1.27-.66,1.91-1.09,3.19-.16-.06-.24-.08-.4-.14.03-.47.04-.71.07-1.18.06-.97-.41-1.39-3.2-2.38-1.06-.38-1.6-.57-2.66-.96-.89,2.45-1.33,3.67-2.22,6.12,1.07.39,1.6.58,2.68.96,2.32.83,2.71.87,3.25.12.23-.32.35-.47.58-.79.15.05.23.08.38.13-.65,1.88-.97,2.82-1.62,4.69-.15-.05-.23-.08-.38-.13.02-.44.03-.67.04-1.11.04-.93-.27-1.11-2.6-1.93-1.07-.38-1.61-.57-2.68-.96-.66,1.83-1,2.74-1.66,4.57-.81,2.24-.53,2.59.53,2.97.79.29,1.19.43,1.98.71,2.66.94,3.54.81,4.39,0,.38-.36.57-.55.94-.91.16.1.24.15.4.25-.77,1.24-1.15,1.86-1.92,3.09-5.04-1.72-7.55-2.63-12.55-4.51Z"/>
          <path d="m116.11,197.47c-1.33-.41-2.93-1.25-3.92-2.13.2-1.45.3-2.17.5-3.62.2.01.3.02.5.03.07.6.11.9.18,1.49.16,1.22,1.08,2.55,3.3,3.23,2.04.62,4.25.14,4.88-1.97.49-1.68-.67-3.05-1.88-4.08-.59-.51-.88-.76-1.46-1.27-1.62-1.4-2.95-3.29-2.26-5.46.9-2.83,4.07-3.71,6.83-2.87.35.11,1.1.36,1.86.74.97.49,1.32.71,1.56.36.07-.1.11-.16.19-.26.16.05.24.07.4.12-.52,1.79-.78,2.69-1.3,4.48-.18-.05-.27-.08-.46-.13.02-.55.03-.83.05-1.39.04-.99-.61-2.29-2.8-2.95-1.66-.5-3.49-.01-4.02,1.68-.45,1.43.7,2.77,1.98,3.87.57.49.86.74,1.44,1.23,1.6,1.35,3.11,3.19,2.42,5.55-1.01,3.51-4.73,4.36-7.98,3.36Z"/>
          <path d="m130.11,201.08c.04-.14.06-.21.09-.34.49,0,.74.01,1.24.02,1.15.02,1.35-.09,1.9-2.2,1.08-4.09,1.62-6.13,2.69-10.22.56-2.11.44-2.29-.53-2.84-.41-.24-.62-.35-1.03-.59.04-.14.06-.21.09-.34,4.77,1.29,7.17,1.89,11.96,3.03-.31,1.31-.47,1.97-.78,3.28-.16-.04-.25-.06-.41-.1-.02-.47-.03-.71-.04-1.18-.04-.97-.54-1.34-3.39-2.05-1.09-.27-1.63-.41-2.72-.69-.65,2.52-.97,3.78-1.62,6.31,1.09.28,1.64.42,2.74.69,2.38.59,2.76.6,3.23-.2.2-.34.3-.51.5-.84.15.04.23.06.39.09-.46,1.93-.69,2.9-1.16,4.83-.16-.04-.23-.06-.39-.09-.03-.44-.04-.67-.06-1.11-.05-.92-.37-1.07-2.75-1.67-1.1-.27-1.65-.41-2.74-.69-.48,1.89-.73,2.83-1.21,4.71-.59,2.31-.28,2.62.8,2.9.81.21,1.22.31,2.03.51,2.72.67,3.58.45,4.35-.43.34-.4.51-.6.85-1,.17.08.25.12.42.2-.64,1.31-.96,1.96-1.61,3.27-5.15-1.22-7.72-1.87-12.84-3.25Z"/>
          <path d="m167.24,209.88c-3.64-.64-4.79-3.29-6.17-6.47-.83-1.92-1.81-3.84-2.32-4.69.27.05.41.08.68.14,2.22.44,4.54.03,5.05-2.68.54-2.89-1.19-4.11-3.68-4.61-.28-.06-.8-.13-1.19-.16-1.03,5.08-1.54,7.61-2.57,12.69-.43,2.14-.3,2.32.73,2.81.44.21.67.32,1.11.53-.03.14-.04.21-.07.35-3.03-.6-4.54-.91-7.56-1.56.03-.14.04-.21.07-.35.49-.02.74-.03,1.23-.05,1.15-.04,1.34-.16,1.78-2.29.86-4.13,1.3-6.19,2.16-10.32.45-2.13.33-2.34-.67-2.81-.43-.2-.64-.31-1.07-.51.03-.14.04-.21.07-.35,1.29.23,3.94.66,7.09,1.28,2.97.59,6.13,1.96,5.51,5.43-.5,2.74-3.73,3.46-5.33,3.59.42,1.04,1.37,3.08,2.45,4.92,1.31,2.25,2.71,4.28,4.4,4.57.19.03.38.04.6.03.02.16.03.24.04.39-.7.24-1.67.25-2.37.13Z"/>
          <path d="m176.9,210.92c.02-.14.03-.21.05-.35.6-.03.9-.05,1.49-.08,1.13-.06,1.32-.24,1.64-2.4.73-5.04,1.1-7.55,1.84-12.59-.73-.11-1.1-.16-1.83-.27-2.89-.43-3.58-.07-3.94.85-.22.58-.33.87-.55,1.45-.18-.03-.26-.04-.44-.07.3-1.87.45-2.81.76-4.68.16.03.25.04.41.07.02.13.03.19.05.32.07.4.34.5,2.2.78,3.85.6,5.78.87,9.64,1.37,1.86.24,2.15.22,2.32-.14.06-.12.08-.17.14-.29.17.02.25.03.41.05-.23,1.88-.35,2.82-.58,4.7-.18-.02-.27-.03-.44-.05-.05-.62-.07-.93-.12-1.55-.09-.98-.65-1.53-3.54-1.92-.73-.1-1.1-.15-1.84-.25-.7,5.04-1.05,7.56-1.75,12.6-.3,2.16-.17,2.38.9,2.76.56.2.84.3,1.41.5-.02.14-.03.21-.05.35-3.27-.43-4.9-.67-8.16-1.16Z"/>
          <path d="m220.08,215.27c0-.14.01-.21.02-.35.48-.1.72-.15,1.2-.25,1.12-.23,1.29-.37,1.38-2.55.09-2.11.14-3.16.23-5.27-3.76-.16-5.64-.27-9.4-.52-.14,2.1-.21,3.16-.35,5.26-.14,2.17,0,2.34,1.09,2.69.47.15.7.23,1.17.38,0,.14-.01.21-.02.35-3.07-.19-4.6-.29-7.67-.53l.03-.35c.48-.08.73-.13,1.21-.21,1.13-.19,1.3-.34,1.46-2.51.31-4.22.46-6.32.77-10.54.16-2.17.01-2.34-1.03-2.69-.45-.16-.67-.23-1.12-.39.01-.14.02-.21.03-.35,2.94.23,4.41.33,7.36.51,0,.14-.01.21-.02.35-.46.09-.7.14-1.16.23-1.08.21-1.25.35-1.39,2.52-.11,1.68-.17,2.52-.28,4.2,3.75.25,5.62.35,9.37.52.07-1.68.11-2.52.18-4.2.1-2.18-.06-2.33-1.11-2.66-.45-.14-.68-.21-1.13-.36,0-.14.01-.21.02-.35,2.95.15,4.42.21,7.37.3,0,.14,0,.21-.01.35-.46.11-.69.16-1.15.27-1.08.24-1.24.39-1.32,2.56-.16,4.22-.24,6.33-.39,10.56-.08,2.18.07,2.34,1.17,2.65.47.14.71.21,1.18.34,0,.14,0,.21-.01.35-3.07-.1-4.61-.16-7.68-.31Z"/>
          <path d="m235.05,207.23c.08-5.62,4.67-9,9.16-9.04,4.82-.04,9.13,2.62,9.32,8.9.15,5.17-4.07,9.05-9.18,9.09-5.52.04-9.38-3.07-9.29-8.95Zm15.37-.06c-.13-5.83-3.25-8.01-6.24-7.99-2.81.02-6.02,2.13-6.06,8.08-.04,5.75,3.02,7.93,6.21,7.9s6.22-2.25,6.09-8Z"/>
          <path d="m276.87,214.29c-.01-.14-.02-.21-.03-.35.46-.16.7-.24,1.16-.4,1.08-.37,1.28-.55,1.03-2.71-.44-3.84-.66-5.76-1.1-9.59-.11-.91-.17-1.59-.23-2.29-.02,0-.03,0-.05,0-.14.5-.4,1.41-.67,2.27-1.67,5.37-2.54,8.06-4.35,13.42-.41.03-.62.05-1.03.07-2.57-4.93-3.82-7.4-6.25-12.36-.36-.77-.77-1.58-.99-2.15-.02,0-.03,0-.05,0,.04.23.09,1.16.13,2.3.09,2.33.13,3.49.22,5.82.19,5.29.52,5.84,1.69,6.04.54.1.8.15,1.34.25,0,.14.01.21.02.35-2.65.17-3.97.24-6.62.36,0-.14,0-.21-.02-.35.47-.14.7-.22,1.17-.36,1.04-.33,1.14-.87,1.01-4.95-.1-3.31-.15-4.97-.25-8.28-.06-2.15-.54-2.3-1.62-2.53-.49-.1-.74-.15-1.23-.25,0-.14,0-.21-.02-.35,2.37-.11,3.55-.17,5.91-.32,2.07,4.36,3.12,6.54,5.29,10.87.32.66.97,1.91,1.07,2.51.02,0,.03,0,.05,0,.04-.51.54-1.82.82-2.68,1.53-4.6,2.27-6.9,3.7-11.52,2.19-.19,3.29-.3,5.48-.52.01.14.02.21.04.35-.44.17-.66.25-1.11.42-1.04.38-1.23.55-.97,2.72.51,4.2.76,6.3,1.27,10.49.26,2.16.38,2.31,1.51,2.47.49.07.73.11,1.21.18l.04.35c-3.04.31-4.56.45-7.6.71Z"/>
          <path d="m291.64,212.79c-.02-.14-.03-.21-.04-.35.46-.18.69-.27,1.15-.44,1.07-.41,1.21-.58.94-2.75-.52-4.19-.79-6.29-1.31-10.48-.27-2.16-.45-2.29-1.54-2.44-.47-.07-.7-.1-1.17-.16-.02-.14-.03-.21-.04-.35,4.87-.58,7.31-.91,12.17-1.64.2,1.33.3,2,.5,3.33-.17.02-.25.04-.42.06-.19-.43-.29-.65-.48-1.08-.4-.89-1-1.05-3.89-.64-1.11.15-1.66.23-2.77.37.34,2.58.51,3.87.85,6.46,1.11-.15,1.67-.22,2.78-.38,2.41-.33,2.77-.47,2.9-1.39.06-.39.09-.58.15-.97.16-.02.24-.03.39-.06.29,1.97.44,2.95.73,4.91-.16.02-.24.04-.4.06-.19-.4-.28-.6-.47-1.01-.39-.84-.74-.86-3.16-.52-1.12.15-1.67.23-2.79.38.25,1.93.38,2.89.64,4.82.31,2.36.72,2.54,1.82,2.39.83-.11,1.24-.17,2.06-.28,2.76-.39,3.47-.91,3.85-2.02.17-.5.25-.74.41-1.24.19.01.28.02.47.03-.1,1.45-.16,2.18-.27,3.63-5.21.79-7.82,1.14-13.05,1.76Z"/>
          <path d="m318.23,209.18c-1.36.25-3.16.24-4.43-.09-.49-1.38-.74-2.06-1.22-3.44.18-.08.27-.12.46-.21.34.5.51.75.84,1.24.7,1.01,2.12,1.77,4.39,1.35,2.08-.38,3.81-1.83,3.39-4-.33-1.72-1.99-2.4-3.53-2.76-.75-.18-1.12-.27-1.87-.45-2.07-.5-4.11-1.56-4.5-3.81-.51-2.92,1.88-5.16,4.7-5.69.36-.07,1.13-.19,1.98-.2,1.08,0,1.49.02,1.54-.4.02-.13.03-.19.04-.32.16-.03.25-.05.41-.08.36,1.83.54,2.74.9,4.57-.19.04-.28.06-.47.09-.24-.5-.36-.75-.59-1.25-.42-.9-1.59-1.75-3.83-1.33-1.69.32-3.08,1.59-2.77,3.34.26,1.47,1.88,2.14,3.52,2.53.73.17,1.1.26,1.83.43,2.03.46,4.2,1.4,4.69,3.81.72,3.58-2.18,6.04-5.49,6.65Z"/>
          <path d="m335.47,205.23c-.03-.14-.05-.21-.08-.35.55-.25.82-.37,1.36-.62,1.03-.47,1.15-.71.65-2.83-1.16-4.95-1.74-7.43-2.89-12.39-.72.17-1.09.25-1.81.42-2.86.65-3.37,1.25-3.37,2.23,0,.62.01.93.02,1.55-.18.04-.26.06-.44.1-.4-1.85-.6-2.78-1.01-4.63.16-.04.24-.05.41-.09.07.11.1.16.17.27.21.34.5.34,2.34-.08,3.81-.86,5.71-1.31,9.51-2.25,1.83-.46,2.09-.58,2.13-.98.01-.13.02-.19.03-.32.16-.04.24-.06.4-.1.47,1.84.71,2.75,1.18,4.59-.17.04-.26.07-.43.11-.27-.56-.41-.84-.68-1.39-.44-.88-1.17-1.18-4.02-.48-.72.18-1.08.27-1.81.44,1.19,4.95,1.78,7.42,2.97,12.37.51,2.12.72,2.28,1.85,2.24.6-.02.9-.03,1.5-.05.03.14.05.21.09.34-3.21.8-4.83,1.18-8.05,1.91Z"/>
          <path d="m353.73,200.66c-.04-.14-.06-.21-.09-.34.43-.24.65-.37,1.07-.61,1-.57,1.12-.76.53-2.86-1.14-4.07-1.71-6.1-2.85-10.17-.59-2.1-.78-2.2-1.89-2.18-.48,0-.72,0-1.19.01-.04-.14-.06-.21-.09-.34,4.77-1.31,7.14-1.99,11.88-3.45.4,1.29.59,1.93.99,3.22-.16.05-.24.07-.4.12-.25-.4-.38-.6-.64-1-.53-.82-1.15-.88-3.97-.05-1.08.32-1.62.47-2.7.79.72,2.5,1.08,3.76,1.8,6.26,1.09-.31,1.63-.47,2.72-.79,2.36-.69,2.69-.88,2.69-1.81,0-.39,0-.59,0-.98.15-.05.23-.07.38-.12.58,1.9.87,2.85,1.45,4.75-.15.05-.23.07-.39.12-.25-.37-.37-.55-.62-.92-.51-.77-.87-.74-3.23-.04-1.09.32-1.63.48-2.72.79.54,1.87.81,2.81,1.34,4.68.66,2.29,1.09,2.4,2.16,2.09.81-.23,1.21-.35,2.01-.59,2.69-.8,3.33-1.42,3.54-2.58.09-.52.14-.77.23-1.29.19-.02.28-.02.47-.04.11,1.45.16,2.18.27,3.63-5.08,1.56-7.63,2.3-12.74,3.7Z"/>
          <path d="m385.16,190.73c-.05-.13-.07-.2-.12-.33.41-.28.62-.42,1.03-.7.96-.64,1.11-1.02-.35-2.65-.82-.93-1.24-1.4-2.06-2.33-2.53.91-3.8,1.36-6.35,2.23-.05.72-.07,1.09-.13,1.81-.23,3.35.09,3.66,1.36,3.58.47-.03.71-.05,1.19-.08.05.13.07.2.12.34-2.41.83-3.61,1.23-6.02,2.02-.04-.13-.07-.2-.11-.34.26-.19.39-.29.65-.48.9-.67,1.03-1.01,1.31-3.83.5-5.09.72-7.63,1.11-12.7.07-.91-.02-1.09-.58-1.65,0-.05,0-.07.02-.11.84-.3,1.27-.44,2.11-.74,4.01,4.54,6.05,6.79,10.2,11.25,1.55,1.67,1.88,1.76,3.01,1.71.32-.01.48-.02.81-.04.05.13.08.2.13.33-2.92,1.11-4.38,1.65-7.32,2.7Zm-5.87-11.06c-.68-.81-1.24-1.52-1.43-1.81-.02,0-.03.01-.05.02.03.39,0,1.34-.06,2.33-.13,2.24-.2,3.36-.36,5.59,2.21-.76,3.32-1.15,5.52-1.94-1.46-1.67-2.19-2.51-3.63-4.19Z"/>
          <path d="m406.47,182.43c-3.17,1.33-4.76,1.99-7.96,3.25-.05-.13-.08-.2-.13-.33.4-.29.61-.44,1.01-.73.94-.68,1.04-.88.22-2.9-1.58-3.92-2.37-5.88-3.96-9.8-.82-2.02-1.04-2.15-2.13-1.96-.47.08-.71.12-1.18.2l-.13-.33c1.56-.65,5.33-2.34,7.94-3.44,4.88-2.06,10.14-2.33,12.75,3.45,2.44,5.4-1.48,10.5-6.44,12.59Zm-6.62-14.78c-.93.39-2.03.93-2.53,1.16,1.9,4.61,2.85,6.92,4.75,11.53.91,2.2,1.35,2.27,2.39,1.83.33-.14.49-.2.81-.34,4.97-2.08,6.92-5.73,4.86-10.39-2.01-4.54-5.55-5.78-10.27-3.79Z"/>
        </g>
      </g>
      <g>
        <path d="m28.04,73.17c1.54-3.51,2.58-7.95,3.19-13.59.61-5.7.83-12.8.64-21.11-.18-7.68-.65-14.19-1.42-19.32-.75-5.02-1.9-8.85-3.52-11.7-1.51-2.66-3.47-4.53-5.98-5.73C18.51.56,15.53-.04,11.91,0H0c.34.54.63,1.19.88,1.95.44,1.37.67,2.81.67,4.29.04,14.1.08,28.19.11,42.29.03,11.1.05,22.19.08,33.29,0,1.53-.22,3.09-.68,4.64-.24.81-.52,1.53-.85,2.15,4.61-1.25,7.39-1.99,12.38-3.31,3.82-1.01,6.9-2.42,9.42-4.3,2.6-1.94,4.57-4.5,6.02-7.83Zm-15.19,8.28l-3.32.84v-.81c-.11-11.38-.19-22.77-.28-34.15-.11-14.36-.21-28.72-.35-43.07v-.64s3.06-.03,3.06-.03c2.44,0,4.42.6,5.97,1.86,1.59,1.29,2.82,3.29,3.75,6.09.94,2.83,1.59,6.45,2,11.06.41,4.59.66,10.28.75,16.92.1,7.26.02,13.53-.23,18.61-.25,5.13-.79,9.2-1.66,12.42-.85,3.19-2.04,5.61-3.64,7.38-1.55,1.72-3.59,2.91-6.06,3.54Z"/>
        <path d="m88.04,68.1c-1.1-1.11-2.18-2.83-3.31-5.26-1.2-2.59-2.5-6.08-3.85-10.37-1.41-4.46-3.05-10.35-4.99-17.99l-.1-.4.33-.26c2.34-1.82,4.13-4.27,5.33-7.27,1.2-3.02,1.77-6.66,1.7-10.81-.05-2.5-.32-4.77-.81-6.75-.48-1.93-1.3-3.51-2.49-4.83-1.17-1.29-2.75-2.28-4.82-3.02-2.03-.72-4.71-1.09-7.97-1.09h-12.15c.32.47.6,1.02.84,1.66.47,1.24.73,2.53.76,3.84.26,10.7.47,21.4.68,32.1.2,10.31.41,20.62.65,30.92.03,1.34-.16,2.71-.56,4.08-.2.69-.44,1.29-.72,1.82,3.94-.88,6.39-1.41,10.21-2.19-.35-.44-.65-.98-.91-1.64-.47-1.18-.72-2.46-.75-3.78-.22-9.47-.41-18.95-.6-28.43v-.58s1.27-.14,1.27-.14c.5-.05.98-.12,1.43-.2.45-.08.9-.18,1.35-.29l.6-.15.16.6c2.36,8.58,4.1,14.79,5.47,19.53,1.4,4.82,3.01,8.19,4.92,10.33.8.89,1.69,1.53,2.62,1.89.93.36,1.9.56,2.89.61.99.05,2-.04,3.02-.26.48-.1.95-.21,1.43-.33-.57-.35-1.13-.79-1.65-1.32Zm-14.23-39.66c-.82,1.62-1.95,2.94-3.36,3.94-1.43,1.01-3.22,1.62-5.34,1.82l-.68.06-.07-3.73c-.18-9.14-.37-18.29-.59-27.43l-.02-.65h2.68s.03-.01.05-.01c2.86,0,5.14,1.06,6.77,3.15,1.66,2.12,2.52,5.69,2.62,10.91.05,2.32-.08,4.51-.39,6.51-.31,2.04-.87,3.87-1.67,5.44Z"/>
        <path d="m137.36.06h-6.15c.05.08.09.15.12.23h0c.2.43.29.92.26,1.43-.03.48-.15,1.01-.38,1.64-.21.56-.46,1.28-.77,2.17-2.7,7.71-4.03,11.77-6.65,20.07l-.56,1.76-1.71-4.54c-2.47-6.58-3.97-10.56-6.72-17.3-.61-1.41-.96-2.61-1.06-3.67-.06-.67.05-1.27.34-1.8h-9.52c.32.31.63.65.91,1.02.73.96,1.46,2.3,2.16,3.96,3.7,9.12,7.16,18.51,10.5,27.58l.16.53.04,4.44c.06,7.8.1,12.93.18,21.11.01,1.22-.2,2.48-.61,3.74-.21.64-.46,1.19-.74,1.67,3.8-.43,6.22-.66,10.02-.99-.32-.45-.6-1-.83-1.63-.44-1.18-.67-2.4-.67-3.62l-.14-24.99.03-.09c3.09-10.09,6.02-19.14,8.98-27.65.47-1.42,1.09-2.69,1.82-3.79.33-.49.66-.92,1-1.3Z"/>
        <path d="m218.06,1.62c.29-.57.64-1.08,1.06-1.53h-5.94s.04.1.06.15c.16.4.24.88.24,1.41,0,.5-.07,1.07-.21,1.76-.13.64-.3,1.41-.51,2.32l-9.92,48.13-10.01-48.14c-.27-1.41-.39-2.67-.37-3.74.02-.7.19-1.33.52-1.88h-10.29c.28.31.56.67.85,1.07.75,1.05,1.33,2.49,1.71,4.29l11.93,56.2h7.8l11.78-56.19c.32-1.47.76-2.75,1.31-3.83Z"/>
        <path d="m259.99,56.02c.27,1.42.39,2.67.37,3.74-.02.7-.19,1.33-.52,1.88h10.29c-.28-.31-.56-.67-.85-1.07h0c-.75-1.05-1.33-2.5-1.71-4.29L255.64.09h-9.37c.36.62.56,1.28.6,1.98.05,1-.05,2.23-.32,3.64l-10.48,50.58c-.27,1.46-.7,2.77-1.27,3.91-.28.55-.58,1.04-.91,1.46h6.09c-.05-.08-.09-.15-.13-.22-.23-.41-.36-.88-.39-1.41-.03-.48.01-1.05.13-1.7.11-.61.26-1.38.48-2.31l3.31-16.01h13.24s3.39,16.03,3.39,16.03Zm-15.95-19.29l5.86-28.35,6.04,28.35h-11.89Z"/>
        <path d="m320.04,56.98c-1.28.42-2.57.64-3.84.64h-12.6V5.58c0-1.23.22-2.48.66-3.73.24-.67.52-1.26.84-1.76h-10.34c.33.5.61,1.09.84,1.76.44,1.25.66,2.5.66,3.73v50.57c0,1.23-.22,2.48-.66,3.73-.24.67-.52,1.26-.84,1.76h25.83s1-5.32,1-5.32c-.45.25-.97.46-1.56.66Z"/>
        <path d="m370.25,60.45c-1.27.27-2.54.33-3.79.19-4.8-.56-7.11-.8-11.78-1.22l-.58-.05.22-54.06c0-1.21.23-2.44.68-3.64.23-.62.5-1.15.81-1.61h-10.26c.31.48.58,1.02.81,1.65.44,1.21.66,2.43.65,3.65l-.13,51.91c0,1.22-.23,2.44-.67,3.63-.24.64-.51,1.19-.84,1.65,9.71.64,15.08,1.17,25.46,2.49.4-1.91.67-3.22,1.03-5.08-.47.21-1,.38-1.62.51Z"/>
        <path d="m405.38,20.36l-.62-.03v-.62c.1-6.48.14-9.62.23-15.17v-.63s.64,0,.64,0c4.78.03,7.17.04,11.95.08,1.28,0,2.57.25,3.83.7.58.21,1.1.45,1.55.73-.33-2.11-.56-3.46-.91-5.38-8.59,0-17.19,0-25.78,0,.3.45.55.99.77,1.61.42,1.21.63,2.46.61,3.71-.14,9.85-.25,19.7-.37,29.54-.11,9.52-.23,19.03-.36,28.55-.02,1.28-.26,2.52-.71,3.69-.25.64-.54,1.17-.87,1.6,8.33,1.45,16.94,3.15,25.63,5.06.44-2.01.72-3.4,1.11-5.43-.49.21-1.06.36-1.71.46-1.28.2-2.58.17-3.85-.09-4.85-.98-7.17-1.43-11.86-2.3l-.53-.1v-.54c.17-10.78.31-21.55.45-32.33l.1-8.04.67.04c2.99.19,4.49.29,7.48.49,1.28.09,2.58.45,3.86,1.09.68.34,1.27.72,1.76,1.15l.13-9.05c-.52.37-1.14.68-1.85.93-1.3.46-2.6.67-3.88.61-2.99-.14-4.49-.21-7.48-.33Z"/>
        <path d="m479.63.09h-6.26c.06.11.12.23.17.35.19.46.27.98.24,1.54-.03.52-.16,1.12-.39,1.83-.21.65-.48,1.5-.79,2.58-2.69,9.04-4.96,18.17-7.02,26.7l-.62,2.56-.62-2.56c-2.66-10.94-4.96-19.24-7.46-26.91-.58-1.64-.89-3-.96-4.14-.04-.74.09-1.4.41-1.97h-9.62c.35.34.67.74.96,1.18.72,1.08,1.39,2.52,2.04,4.41,3.7,11.37,6.63,23.13,9.47,34.5l.64,2.58-.03,3.77c-.09,10.07-.17,20.14-.28,30.21-.02,1.47-.26,2.85-.72,4.12-.27.74-.6,1.35-.98,1.82,4.09,1.06,6.66,1.74,10.68,2.82-.31-.6-.57-1.29-.8-2.07-.43-1.51-.65-3.02-.64-4.51.08-11.51.15-23.03.22-34.54l.02-.14,1.46-6.18c2.46-10.5,5.01-21.35,7.98-31.91.49-1.75,1.09-3.22,1.84-4.48.36-.6.72-1.12,1.09-1.56Z"/>
      </g>
    </g>
  </g>
</svg>